<svg width="1318" height="791" viewBox="0 0 1318 791" fill="none" xmlns="http://www.w3.org/2000/svg">
<g id="Click Quiz">
<g clip-path="url(#clip0_45_510)">
<g id="Dashboard">
<path id="Vector" d="M1339.59 0H-22V791H1339.59V0Z" fill="white"/>
<path id="Vector_2" d="M1339.59 0H-22V70.0365H1339.59V0Z" fill="#272B31"/>
<path id="Dashboard_2" d="M261.715 38H257.997V27.5133H261.746C262.8 27.5133 263.708 27.7232 264.47 28.1431C265.231 28.5595 265.816 29.1586 266.226 29.9404C266.639 30.7221 266.846 31.6574 266.846 32.7464C266.846 33.8388 266.639 34.7775 266.226 35.5627C265.816 36.3478 265.228 36.9503 264.459 37.3702C263.695 37.7901 262.78 38 261.715 38ZM260.215 36.1003H261.623C262.278 36.1003 262.829 35.9842 263.277 35.7521C263.727 35.5166 264.065 35.153 264.29 34.6614C264.519 34.1665 264.634 33.5281 264.634 32.7464C264.634 31.9715 264.519 31.3383 264.29 30.8467C264.065 30.3551 263.729 29.9933 263.282 29.7611C262.835 29.529 262.283 29.413 261.628 29.413H260.215V36.1003ZM270.69 38.1485C270.188 38.1485 269.741 38.0614 269.348 37.8873C268.956 37.7098 268.645 37.4487 268.416 37.1039C268.191 36.7557 268.078 36.3222 268.078 35.8033C268.078 35.3664 268.159 34.9994 268.319 34.7024C268.479 34.4054 268.698 34.1665 268.974 33.9855C269.251 33.8046 269.565 33.6681 269.917 33.5759C270.272 33.4837 270.644 33.4189 271.033 33.3813C271.49 33.3335 271.859 33.2892 272.139 33.2482C272.419 33.2038 272.622 33.139 272.748 33.0536C272.875 32.9683 272.938 32.842 272.938 32.6747V32.644C272.938 32.3197 272.835 32.0688 272.63 31.8913C272.429 31.7138 272.142 31.625 271.77 31.625C271.378 31.625 271.065 31.7121 270.833 31.8861C270.601 32.0568 270.447 32.2719 270.372 32.5313L268.355 32.3675C268.457 31.8896 268.659 31.4765 268.959 31.1283C269.259 30.7767 269.647 30.507 270.121 30.3193C270.599 30.1281 271.152 30.0325 271.78 30.0325C272.217 30.0325 272.636 30.0837 273.035 30.1861C273.438 30.2886 273.794 30.4473 274.105 30.6624C274.419 30.8774 274.667 31.1539 274.848 31.4919C275.029 31.8264 275.119 32.2275 275.119 32.6952V38H273.05V36.9093H272.989C272.863 37.1551 272.694 37.3719 272.482 37.5596C272.27 37.744 272.016 37.8891 271.719 37.9949C271.422 38.0973 271.079 38.1485 270.69 38.1485ZM271.314 36.6431C271.635 36.6431 271.919 36.5799 272.164 36.4536C272.41 36.3239 272.603 36.1498 272.743 35.9313C272.883 35.7129 272.953 35.4654 272.953 35.1889V34.3542C272.885 34.3986 272.791 34.4396 272.671 34.4771C272.555 34.5112 272.424 34.5437 272.277 34.5744C272.13 34.6017 271.984 34.6273 271.837 34.6512C271.69 34.6717 271.557 34.6905 271.437 34.7075C271.181 34.7451 270.958 34.8048 270.767 34.8867C270.575 34.9687 270.427 35.0796 270.321 35.2196C270.215 35.3561 270.162 35.5268 270.162 35.7316C270.162 36.0286 270.27 36.2556 270.485 36.4127C270.703 36.5663 270.98 36.6431 271.314 36.6431ZM283.355 32.3777L281.358 32.5006C281.324 32.3299 281.251 32.1763 281.138 32.0398C281.025 31.8998 280.877 31.7889 280.693 31.7069C280.512 31.6216 280.295 31.5789 280.042 31.5789C279.704 31.5789 279.419 31.6506 279.187 31.794C278.955 31.9339 278.839 32.1217 278.839 32.3572C278.839 32.545 278.914 32.7037 279.064 32.8334C279.215 32.9632 279.472 33.0673 279.838 33.1458L281.261 33.4325C282.026 33.5896 282.596 33.8422 282.971 34.1904C283.347 34.5386 283.534 34.996 283.534 35.5627C283.534 36.0781 283.383 36.5304 283.079 36.9196C282.778 37.3087 282.365 37.6126 281.84 37.831C281.317 38.0461 280.715 38.1536 280.032 38.1536C278.991 38.1536 278.161 37.9368 277.544 37.5033C276.929 37.0664 276.569 36.4724 276.463 35.7214L278.609 35.6087C278.673 35.9262 278.83 36.1686 279.08 36.3358C279.329 36.4997 279.648 36.5816 280.037 36.5816C280.42 36.5816 280.727 36.5082 280.959 36.3614C281.194 36.2112 281.314 36.0184 281.317 35.7828C281.314 35.5848 281.23 35.4227 281.066 35.2964C280.903 35.1667 280.65 35.0677 280.309 34.9994L278.947 34.728C278.178 34.5744 277.607 34.3081 277.231 33.9292C276.859 33.5503 276.673 33.0673 276.673 32.4801C276.673 31.9749 276.81 31.5397 277.083 31.1744C277.359 30.8091 277.747 30.5275 278.245 30.3295C278.747 30.1315 279.334 30.0325 280.006 30.0325C281 30.0325 281.782 30.2425 282.352 30.6624C282.925 31.0822 283.26 31.654 283.355 32.3777ZM287.089 33.453V38H284.908V27.5133H287.028V31.5226H287.12C287.298 31.0583 287.584 30.6948 287.98 30.4319C288.376 30.1657 288.873 30.0325 289.47 30.0325C290.017 30.0325 290.493 30.152 290.899 30.391C291.309 30.6265 291.626 30.9662 291.851 31.4099C292.08 31.8503 292.193 32.3777 292.189 32.9922V38H290.008V33.3813C290.011 32.8966 289.889 32.5194 289.639 32.2497C289.394 31.98 289.049 31.8452 288.605 31.8452C288.308 31.8452 288.045 31.9083 287.816 32.0346C287.591 32.1609 287.414 32.3453 287.284 32.5877C287.158 32.8266 287.093 33.1151 287.089 33.453ZM293.947 38V27.5133H296.128V31.456H296.195C296.29 31.2444 296.429 31.0293 296.61 30.8108C296.794 30.589 297.033 30.4046 297.327 30.2578C297.623 30.1076 297.992 30.0325 298.433 30.0325C299.006 30.0325 299.535 30.1827 300.02 30.4831C300.505 30.7801 300.892 31.229 301.182 31.8298C301.472 32.4272 301.617 33.1765 301.617 34.0777C301.617 34.955 301.476 35.6958 301.192 36.3C300.913 36.9008 300.53 37.3565 300.045 37.6672C299.564 37.9744 299.025 38.128 298.427 38.128C298.004 38.128 297.644 38.058 297.347 37.9181C297.053 37.7781 296.813 37.6023 296.625 37.3907C296.437 37.1756 296.294 36.9588 296.195 36.7404H296.098V38H293.947ZM296.082 34.0675C296.082 34.5351 296.147 34.9431 296.277 35.2913C296.407 35.6395 296.594 35.9108 296.84 36.1054C297.086 36.2966 297.385 36.3922 297.736 36.3922C298.091 36.3922 298.392 36.2949 298.637 36.1003C298.883 35.9023 299.069 35.6292 299.195 35.281C299.325 34.9294 299.39 34.5249 299.39 34.0675C299.39 33.6135 299.327 33.2141 299.201 32.8693C299.074 32.5245 298.888 32.2548 298.642 32.0602C298.397 31.8657 298.095 31.7684 297.736 31.7684C297.381 31.7684 297.081 31.8623 296.835 32.05C296.593 32.2378 296.407 32.504 296.277 32.8488C296.147 33.1936 296.082 33.5998 296.082 34.0675ZM306.627 38.1536C305.831 38.1536 305.143 37.9846 304.563 37.6467C303.986 37.3053 303.541 36.8308 303.227 36.2232C302.913 35.6121 302.755 34.9038 302.755 34.0982C302.755 33.2857 302.913 32.5757 303.227 31.9681C303.541 31.357 303.986 30.8825 304.563 30.5446C305.143 30.2032 305.831 30.0325 306.627 30.0325C307.422 30.0325 308.108 30.2032 308.685 30.5446C309.265 30.8825 309.713 31.357 310.027 31.9681C310.341 32.5757 310.498 33.2857 310.498 34.0982C310.498 34.9038 310.341 35.6121 310.027 36.2232C309.713 36.8308 309.265 37.3053 308.685 37.6467C308.108 37.9846 307.422 38.1536 306.627 38.1536ZM306.637 36.4639C306.999 36.4639 307.301 36.3614 307.543 36.1566C307.786 35.9484 307.968 35.6651 308.091 35.3066C308.217 34.9482 308.28 34.5403 308.28 34.0828C308.28 33.6254 308.217 33.2175 308.091 32.859C307.968 32.5006 307.786 32.2173 307.543 32.009C307.301 31.8008 306.999 31.6967 306.637 31.6967C306.272 31.6967 305.964 31.8008 305.715 32.009C305.469 32.2173 305.283 32.5006 305.157 32.859C305.034 33.2175 304.973 33.6254 304.973 34.0828C304.973 34.5403 305.034 34.9482 305.157 35.3066C305.283 35.6651 305.469 35.9484 305.715 36.1566C305.964 36.3614 306.272 36.4639 306.637 36.4639ZM314.159 38.1485C313.657 38.1485 313.21 38.0614 312.817 37.8873C312.425 37.7098 312.114 37.4487 311.885 37.1039C311.66 36.7557 311.547 36.3222 311.547 35.8033C311.547 35.3664 311.628 34.9994 311.788 34.7024C311.948 34.4054 312.167 34.1665 312.443 33.9855C312.72 33.8046 313.034 33.6681 313.386 33.5759C313.741 33.4837 314.113 33.4189 314.502 33.3813C314.959 33.3335 315.328 33.2892 315.608 33.2482C315.888 33.2038 316.091 33.139 316.217 33.0536C316.344 32.9683 316.407 32.842 316.407 32.6747V32.644C316.407 32.3197 316.304 32.0688 316.099 31.8913C315.898 31.7138 315.611 31.625 315.239 31.625C314.847 31.625 314.534 31.7121 314.302 31.8861C314.07 32.0568 313.916 32.2719 313.841 32.5313L311.824 32.3675C311.926 31.8896 312.128 31.4765 312.428 31.1283C312.728 30.7767 313.116 30.507 313.59 30.3193C314.068 30.1281 314.621 30.0325 315.249 30.0325C315.686 30.0325 316.105 30.0837 316.504 30.1861C316.907 30.2886 317.264 30.4473 317.574 30.6624C317.888 30.8774 318.136 31.1539 318.317 31.4919C318.498 31.8264 318.588 32.2275 318.588 32.6952V38H316.519V36.9093H316.458C316.332 37.1551 316.163 37.3719 315.951 37.5596C315.739 37.744 315.485 37.8891 315.188 37.9949C314.891 38.0973 314.548 38.1485 314.159 38.1485ZM314.784 36.6431C315.104 36.6431 315.388 36.5799 315.634 36.4536C315.879 36.3239 316.072 36.1498 316.212 35.9313C316.352 35.7129 316.422 35.4654 316.422 35.1889V34.3542C316.354 34.3986 316.26 34.4396 316.14 34.4771C316.024 34.5112 315.893 34.5437 315.746 34.5744C315.599 34.6017 315.453 34.6273 315.306 34.6512C315.159 34.6717 315.026 34.6905 314.906 34.7075C314.65 34.7451 314.427 34.8048 314.236 34.8867C314.044 34.9687 313.896 35.0796 313.79 35.2196C313.684 35.3561 313.631 35.5268 313.631 35.7316C313.631 36.0286 313.739 36.2556 313.954 36.4127C314.172 36.5663 314.449 36.6431 314.784 36.6431ZM320.28 38V30.1349H322.395V31.5072H322.477C322.62 31.0191 322.861 30.6504 323.199 30.4012C323.537 30.1486 323.926 30.0223 324.366 30.0223C324.476 30.0223 324.593 30.0291 324.72 30.0428C324.846 30.0564 324.957 30.0752 325.053 30.0991V32.0346C324.95 32.0039 324.809 31.9766 324.628 31.9527C324.447 31.9288 324.281 31.9169 324.131 31.9169C323.81 31.9169 323.523 31.9869 323.271 32.1268C323.021 32.2634 322.824 32.4545 322.677 32.7003C322.533 32.9461 322.462 33.2294 322.462 33.5503V38H320.28ZM328.712 38.128C328.115 38.128 327.574 37.9744 327.089 37.6672C326.608 37.3565 326.226 36.9008 325.942 36.3C325.662 35.6958 325.522 34.955 325.522 34.0777C325.522 33.1765 325.668 32.4272 325.958 31.8298C326.248 31.229 326.634 30.7801 327.115 30.4831C327.6 30.1827 328.13 30.0325 328.707 30.0325C329.148 30.0325 329.515 30.1076 329.808 30.2578C330.105 30.4046 330.344 30.589 330.525 30.8108C330.709 31.0293 330.849 31.2444 330.945 31.456H331.012V27.5133H333.188V38H331.037V36.7404H330.945C330.843 36.9588 330.698 37.1756 330.51 37.3907C330.325 37.6023 330.085 37.7781 329.788 37.9181C329.494 38.058 329.136 38.128 328.712 38.128ZM329.404 36.3922C329.755 36.3922 330.052 36.2966 330.295 36.1054C330.541 35.9108 330.728 35.6395 330.858 35.2913C330.991 34.9431 331.058 34.5351 331.058 34.0675C331.058 33.5998 330.993 33.1936 330.863 32.8488C330.733 32.504 330.546 32.2378 330.3 32.05C330.054 31.8623 329.755 31.7684 329.404 31.7684C329.045 31.7684 328.743 31.8657 328.497 32.0602C328.252 32.2548 328.066 32.5245 327.939 32.8693C327.813 33.2141 327.75 33.6135 327.75 34.0675C327.75 34.5249 327.813 34.9294 327.939 35.281C328.069 35.6292 328.255 35.9023 328.497 36.1003C328.743 36.2949 329.045 36.3922 329.404 36.3922Z" fill="white"/>
<path id="Vector_3" d="M334.791 44.1614H257.545C256.692 44.1614 256 44.8531 256 45.7063C256 46.5595 256.692 47.2512 257.545 47.2512H334.791C335.644 47.2512 336.336 46.5595 336.336 45.7063C336.336 44.8531 335.644 44.1614 334.791 44.1614Z" fill="white"/>
<path id="My Courses" d="M351.051 27.5133H352.567L356.131 36.2181H356.254L359.817 27.5133H361.333V38H360.145V30.0325H360.043L356.766 38H355.619L352.341 30.0325H352.239V38H351.051V27.5133ZM364.494 40.9494C364.289 40.9494 364.106 40.9323 363.946 40.8982C363.785 40.8675 363.674 40.8367 363.613 40.806L363.92 39.741C364.214 39.8161 364.473 39.8434 364.698 39.8229C364.924 39.8024 365.123 39.7017 365.298 39.5208C365.475 39.3433 365.637 39.0548 365.784 38.6554L366.009 38.041L363.101 30.1349H364.412L366.583 36.4024H366.665L368.836 30.1349H370.147L366.808 39.147C366.658 39.5532 366.472 39.8895 366.25 40.1557C366.028 40.4254 365.77 40.6251 365.477 40.7548C365.187 40.8845 364.859 40.9494 364.494 40.9494ZM384.4 30.7904H383.13C383.055 30.4251 382.923 30.1042 382.735 29.8277C382.551 29.5512 382.326 29.3191 382.059 29.1313C381.797 28.9402 381.505 28.7968 381.184 28.7012C380.863 28.6056 380.528 28.5578 380.18 28.5578C379.545 28.5578 378.97 28.7183 378.455 29.0392C377.943 29.36 377.535 29.8328 377.231 30.4575C376.93 31.0822 376.78 31.8486 376.78 32.7566C376.78 33.6647 376.93 34.431 377.231 35.0557C377.535 35.6804 377.943 36.1532 378.455 36.4741C378.97 36.795 379.545 36.9554 380.18 36.9554C380.528 36.9554 380.863 36.9076 381.184 36.812C381.505 36.7165 381.797 36.5748 382.059 36.387C382.326 36.1959 382.551 35.962 382.735 35.6855C382.923 35.4056 383.055 35.0847 383.13 34.7229H384.4C384.304 35.2588 384.13 35.7385 383.877 36.1617C383.625 36.585 383.311 36.9452 382.935 37.2422C382.56 37.5357 382.138 37.7593 381.67 37.913C381.206 38.0666 380.709 38.1434 380.18 38.1434C379.286 38.1434 378.49 37.9249 377.794 37.488C377.098 37.051 376.55 36.4297 376.15 35.6241C375.751 34.8185 375.551 33.8627 375.551 32.7566C375.551 31.6506 375.751 30.6948 376.15 29.8892C376.55 29.0835 377.098 28.4623 377.794 28.0253C378.49 27.5884 379.286 27.3699 380.18 27.3699C380.709 27.3699 381.206 27.4467 381.67 27.6003C382.138 27.7539 382.56 27.9792 382.935 28.2762C383.311 28.5698 383.625 28.9282 383.877 29.3515C384.13 29.7714 384.304 30.251 384.4 30.7904ZM389.483 38.1639C388.773 38.1639 388.15 37.9949 387.614 37.6569C387.081 37.319 386.665 36.8462 386.365 36.2386C386.068 35.6309 385.919 34.9209 385.919 34.1084C385.919 33.2892 386.068 32.574 386.365 31.963C386.665 31.3519 387.081 30.8774 387.614 30.5395C388.15 30.2015 388.773 30.0325 389.483 30.0325C390.193 30.0325 390.814 30.2015 391.347 30.5395C391.883 30.8774 392.299 31.3519 392.596 31.963C392.897 32.574 393.047 33.2892 393.047 34.1084C393.047 34.9209 392.897 35.6309 392.596 36.2386C392.299 36.8462 391.883 37.319 391.347 37.6569C390.814 37.9949 390.193 38.1639 389.483 38.1639ZM389.483 37.0783C390.022 37.0783 390.466 36.9401 390.814 36.6636C391.162 36.387 391.42 36.0235 391.587 35.5729C391.755 35.1223 391.838 34.6341 391.838 34.1084C391.838 33.5827 391.755 33.0929 391.587 32.6389C391.42 32.1848 391.162 31.8179 390.814 31.538C390.466 31.258 390.022 31.1181 389.483 31.1181C388.944 31.1181 388.5 31.258 388.152 31.538C387.803 31.8179 387.546 32.1848 387.378 32.6389C387.211 33.0929 387.127 33.5827 387.127 34.1084C387.127 34.6341 387.211 35.1223 387.378 35.5729C387.546 36.0235 387.803 36.387 388.152 36.6636C388.5 36.9401 388.944 37.0783 389.483 37.0783ZM399.848 34.7843V30.1349H401.056V38H399.848V36.6687H399.766C399.582 37.0681 399.295 37.4077 398.906 37.6877C398.517 37.9642 398.025 38.1024 397.431 38.1024C396.94 38.1024 396.503 37.9949 396.12 37.7798C395.738 37.5613 395.438 37.2336 395.219 36.7967C395.001 36.3563 394.891 35.8016 394.891 35.1325V30.1349H396.1V35.0506C396.1 35.6241 396.26 36.0815 396.581 36.4229C396.905 36.7643 397.319 36.9349 397.82 36.9349C398.121 36.9349 398.426 36.8581 398.737 36.7045C399.051 36.5509 399.314 36.3154 399.525 35.9979C399.74 35.6804 399.848 35.2759 399.848 34.7843ZM403.27 38V30.1349H404.437V31.3229H404.519C404.663 30.9337 404.922 30.618 405.297 30.3756C405.673 30.1332 406.096 30.0121 406.567 30.0121C406.656 30.0121 406.767 30.0138 406.9 30.0172C407.033 30.0206 407.134 30.0257 407.202 30.0325V31.2614C407.161 31.2512 407.067 31.2358 406.921 31.2154C406.777 31.1915 406.625 31.1795 406.465 31.1795C406.083 31.1795 405.741 31.2597 405.441 31.4202C405.144 31.5772 404.908 31.7957 404.734 32.0756C404.564 32.3521 404.478 32.6679 404.478 33.0229V38H403.27ZM414.206 31.8964L413.12 32.2036C413.052 32.0227 412.951 31.8469 412.818 31.6762C412.688 31.5021 412.511 31.3587 412.286 31.2461C412.06 31.1334 411.772 31.0771 411.42 31.0771C410.939 31.0771 410.538 31.1881 410.217 31.4099C409.9 31.6284 409.741 31.9066 409.741 32.2446C409.741 32.545 409.85 32.7822 410.068 32.9563C410.287 33.1304 410.628 33.2755 411.093 33.3916L412.26 33.6783C412.963 33.849 413.487 34.1101 413.832 34.4617C414.177 34.8099 414.349 35.2588 414.349 35.8084C414.349 36.259 414.22 36.6618 413.96 37.0169C413.704 37.3719 413.346 37.6518 412.885 37.8566C412.424 38.0614 411.888 38.1639 411.277 38.1639C410.475 38.1639 409.811 37.9898 409.285 37.6416C408.759 37.2934 408.427 36.7847 408.287 36.1157L409.434 35.8289C409.543 36.2522 409.749 36.5697 410.053 36.7813C410.36 36.993 410.761 37.0988 411.256 37.0988C411.82 37.0988 412.267 36.9793 412.598 36.7404C412.933 36.498 413.1 36.2078 413.1 35.8699C413.1 35.5968 413.004 35.3681 412.813 35.1837C412.622 34.996 412.328 34.856 411.932 34.7639L410.622 34.4566C409.901 34.2859 409.372 34.0214 409.034 33.663C408.7 33.3011 408.532 32.8488 408.532 32.306C408.532 31.8623 408.657 31.4697 408.906 31.1283C409.159 30.787 409.502 30.519 409.935 30.3244C410.372 30.1298 410.867 30.0325 411.42 30.0325C412.199 30.0325 412.81 30.2032 413.253 30.5446C413.701 30.8859 414.018 31.3365 414.206 31.8964ZM419.466 38.1639C418.708 38.1639 418.054 37.9966 417.505 37.662C416.959 37.3241 416.537 36.853 416.24 36.2488C415.946 35.6412 415.8 34.9345 415.8 34.1289C415.8 33.3233 415.946 32.6133 416.24 31.9988C416.537 31.3809 416.95 30.8996 417.479 30.5548C418.012 30.2066 418.633 30.0325 419.343 30.0325C419.753 30.0325 420.157 30.1008 420.557 30.2374C420.956 30.3739 421.319 30.5958 421.647 30.903C421.975 31.2068 422.236 31.6096 422.431 32.1114C422.625 32.6133 422.722 33.2311 422.722 33.9651V34.4771H416.66V33.4325H421.494C421.494 32.9888 421.405 32.5928 421.227 32.2446C421.053 31.8964 420.804 31.6216 420.48 31.4202C420.159 31.2188 419.78 31.1181 419.343 31.1181C418.862 31.1181 418.445 31.2376 418.094 31.4765C417.745 31.7121 417.477 32.0193 417.29 32.3982C417.102 32.7771 417.008 33.1833 417.008 33.6169V34.3133C417.008 34.9072 417.11 35.4107 417.315 35.8238C417.523 36.2334 417.812 36.5458 418.181 36.7608C418.549 36.9725 418.978 37.0783 419.466 37.0783C419.783 37.0783 420.07 37.0339 420.326 36.9452C420.586 36.853 420.809 36.7165 420.997 36.5355C421.185 36.3512 421.33 36.1225 421.432 35.8494L422.6 36.1771C422.477 36.5731 422.27 36.9213 421.98 37.2217C421.69 37.5187 421.331 37.7508 420.905 37.9181C420.478 38.0819 419.998 38.1639 419.466 38.1639ZM430.132 31.8964L429.046 32.2036C428.978 32.0227 428.877 31.8469 428.744 31.6762C428.614 31.5021 428.437 31.3587 428.212 31.2461C427.986 31.1334 427.698 31.0771 427.346 31.0771C426.865 31.0771 426.464 31.1881 426.143 31.4099C425.825 31.6284 425.667 31.9066 425.667 32.2446C425.667 32.545 425.776 32.7822 425.994 32.9563C426.213 33.1304 426.554 33.2755 427.019 33.3916L428.186 33.6783C428.889 33.849 429.413 34.1101 429.758 34.4617C430.103 34.8099 430.275 35.2588 430.275 35.8084C430.275 36.259 430.145 36.6618 429.886 37.0169C429.63 37.3719 429.272 37.6518 428.811 37.8566C428.35 38.0614 427.814 38.1639 427.203 38.1639C426.401 38.1639 425.737 37.9898 425.211 37.6416C424.685 37.2934 424.353 36.7847 424.213 36.1157L425.36 35.8289C425.469 36.2522 425.675 36.5697 425.979 36.7813C426.286 36.993 426.687 37.0988 427.182 37.0988C427.746 37.0988 428.193 36.9793 428.524 36.7404C428.859 36.498 429.026 36.2078 429.026 35.8699C429.026 35.5968 428.93 35.3681 428.739 35.1837C428.548 34.996 428.254 34.856 427.858 34.7639L426.547 34.4566C425.827 34.2859 425.298 34.0214 424.96 33.663C424.626 33.3011 424.458 32.8488 424.458 32.306C424.458 31.8623 424.583 31.4697 424.832 31.1283C425.085 30.787 425.428 30.519 425.861 30.3244C426.298 30.1298 426.793 30.0325 427.346 30.0325C428.125 30.0325 428.736 30.2032 429.179 30.5446C429.627 30.8859 429.944 31.3365 430.132 31.8964Z" fill="white"/>
<path id="Vector_4" d="M447.602 31.1624L441.47 37.3893L435.243 31.2572" stroke="white" stroke-width="1.54492" stroke-linecap="round" stroke-linejoin="round"/>
<g id="Group">
<path id="Vector_5" d="M1220.18 28.2395C1219.09 28.2395 1218.04 28.6736 1217.27 29.4462C1216.49 30.2188 1216.06 31.2667 1216.06 32.3593V35.9641L1214 38.539H1226.36L1224.3 35.9641V32.3593C1224.3 31.2667 1223.87 30.2188 1223.09 29.4462C1222.32 28.6736 1221.27 28.2395 1220.18 28.2395Z" stroke="#F9FAFB" stroke-width="1.64792"/>
<path id="Vector_6" d="M1220.18 40.599C1220.73 40.599 1221.25 40.3819 1221.64 39.9956C1222.02 39.6093 1222.24 39.0854 1222.24 38.5391H1218.12C1218.12 39.0854 1218.34 39.6093 1218.72 39.9956C1219.11 40.3819 1219.63 40.599 1220.18 40.599Z" stroke="#F9FAFB" stroke-width="1.64792"/>
</g>
<path id="Vector_7" d="M1264.47 50.8984C1273 50.8984 1279.92 43.9816 1279.92 35.4492C1279.92 26.9169 1273 20 1264.47 20C1255.93 20 1249.02 26.9169 1249.02 35.4492C1249.02 43.9816 1255.93 50.8984 1264.47 50.8984Z" fill="#F3F4F6"/>
<path id="IP" d="M1261.95 30.8615V39.8501H1260.05V30.8615H1261.95ZM1263.51 39.8501V30.8615H1267.06C1267.74 30.8615 1268.32 30.9917 1268.8 31.2521C1269.28 31.5096 1269.65 31.868 1269.9 32.3274C1270.15 32.7838 1270.28 33.3105 1270.28 33.9074C1270.28 34.5043 1270.15 35.031 1269.89 35.4874C1269.64 35.9439 1269.26 36.2994 1268.77 36.554C1268.29 36.8085 1267.7 36.9358 1267.01 36.9358H1264.75V35.4128H1266.7C1267.07 35.4128 1267.37 35.3499 1267.61 35.2241C1267.85 35.0954 1268.03 34.9183 1268.14 34.693C1268.26 34.4648 1268.32 34.2029 1268.32 33.9074C1268.32 33.609 1268.26 33.3486 1268.14 33.1262C1268.03 32.9009 1267.85 32.7268 1267.61 32.6039C1267.37 32.4781 1267.06 32.4152 1266.69 32.4152H1265.41V39.8501H1263.51Z" fill="#111827"/>
</g>
<g id="Logo 1">
<g id="Group_2">
<path id="Vector_8" d="M43.4706 22.6732H41.0151V20.3276H56.2459C57.8718 20.3276 58.5687 21.0214 58.5687 22.6401V25.283H56.08V23.4991C56.08 22.9375 55.7814 22.6732 55.2504 22.6732H46.1252V32.3196H56.1464V34.6651H46.1252V43.6839C46.1252 44.2455 46.4239 44.5098 46.9548 44.5098H56.3123C56.8432 44.5098 57.1418 44.2455 57.1418 43.6839V41.9H59.5973V44.5428C59.5973 46.1616 58.9005 46.8553 57.2746 46.8553H45.7934C44.1675 46.8553 43.4706 46.1616 43.4706 44.5428V22.6732Z" fill="white"/>
<path id="Vector_9" d="M67.1628 36.9776L63.0482 30.8991C62.5837 30.2714 62.0527 30.1062 61.2895 30.1062H60.4932V27.8928H61.8868C63.8114 27.8928 64.3091 28.1901 65.4374 29.9741L68.1915 34.2026C68.4901 34.6982 68.822 35.3259 68.822 35.3259H68.8883C68.8883 35.3259 69.2202 34.6982 69.4856 34.2026L72.2398 29.9741C73.368 28.2232 73.8325 27.8928 75.7903 27.8928H77.1508V30.1062H76.3876C75.5912 30.1062 75.0271 30.2053 74.5957 30.866L70.4479 36.9776L77.1176 46.8553H74.098L69.5188 39.8187C69.2202 39.3232 68.9215 38.7616 68.9215 38.7616H68.8552C68.8552 38.7616 68.5565 39.2901 68.2247 39.8187L63.546 46.8553H60.5595L67.1628 36.9776Z" fill="white"/>
<path id="Vector_10" d="M90.3243 35.1608H91.3861V34.9295C91.3861 30.9652 89.9593 29.5777 86.4419 29.5777C85.4796 29.5777 82.7255 29.842 82.7255 31.2295V32.4518H80.27V30.6349C80.27 27.992 84.816 27.4304 86.4751 27.4304C92.5143 27.4304 93.9412 30.6349 93.9412 34.7313V43.8161C93.9412 44.3777 94.2398 44.642 94.7707 44.642H96.3635V46.8554H93.7421C92.1161 46.8554 91.4525 46.1286 91.4525 44.576C91.4525 43.7501 91.4856 43.1885 91.4856 43.1885H91.4193C91.4525 43.1885 89.8597 47.3179 85.0814 47.3179C81.8959 47.3179 78.6108 45.4679 78.6108 41.7019C78.644 35.392 87.0392 35.1608 90.3243 35.1608ZM85.546 45.1376C89.1961 45.1376 91.3861 41.3715 91.3861 38.0679V37.209H90.2911C87.3047 37.209 81.2986 37.2751 81.2986 41.5367C81.2986 43.3206 82.7255 45.1376 85.546 45.1376Z" fill="white"/>
<path id="Vector_11" d="M99.7483 30.9322C99.7483 30.4036 99.4496 30.1063 98.9187 30.1063H97.3259V27.8929H99.9805C101.573 27.8929 102.303 28.5867 102.303 30.0072V30.8661C102.303 31.626 102.237 32.2206 102.237 32.2206H102.303C103.266 29.6438 106.252 27.4304 109.205 27.4304C112.723 27.4304 114.548 29.0492 115.112 32.1876H115.178C116.207 29.6108 118.961 27.4304 122.18 27.4304C126.792 27.4304 128.517 30.1063 128.517 34.7974V43.8161C128.517 44.3777 128.816 44.642 129.347 44.642H130.94V46.8554H128.252C126.626 46.8554 125.929 46.1617 125.929 44.5429V35.4251C125.929 32.3197 125.299 29.776 121.781 29.776C118.895 29.776 116.505 32.3527 115.742 35.1277C115.477 35.9536 115.41 36.8786 115.41 37.8697V46.8554H112.822V35.4251C112.822 32.551 112.391 29.776 108.807 29.776C105.688 29.776 103.398 32.4518 102.602 35.359C102.37 36.1518 102.303 37.0108 102.303 37.9027V46.8885H99.7151V30.9322H99.7483Z" fill="white"/>
<path id="Vector_12" d="M133.594 43.8491H136.514V46.8554H133.594V43.8491Z" fill="white"/>
<path id="Vector_13" d="M141.857 30.9321C141.857 30.4035 141.558 30.1062 141.027 30.1062H139.435V27.8928H142.122C143.748 27.8928 144.445 28.5866 144.445 30.2053V43.816C144.445 44.3776 144.744 44.6419 145.275 44.6419H146.867V46.8553H144.18C142.554 46.8553 141.857 46.1616 141.857 44.5428V30.9321ZM141.791 20.3276H144.279V23.5651H141.791V20.3276Z" fill="white"/>
<path id="Vector_14" d="M161.733 19.8652C165.516 19.8652 171.688 21.484 171.688 25.4813V27.6617H169.199V26.1751C169.199 23.6974 164.886 22.3099 161.8 22.3099C155.893 22.3099 151.347 26.9018 151.347 33.3438C151.347 39.6867 155.86 44.7742 161.932 44.7742C167.441 44.7742 170.659 41.0411 170.659 41.0411L172.186 42.9572C172.186 42.9572 168.502 47.2518 161.899 47.2518C154.101 47.2518 148.593 41.0742 148.593 33.3108C148.56 25.7456 154.234 19.8652 161.733 19.8652Z" fill="white"/>
<path id="Vector_15" d="M184.231 27.4304C189.805 27.4304 194.318 31.659 194.318 37.2751C194.318 43.0233 189.805 47.3179 184.264 47.3179C178.689 47.3179 174.177 43.0233 174.177 37.2751C174.21 31.659 178.723 27.4304 184.231 27.4304ZM184.297 45.0054C188.345 45.0054 191.697 41.6688 191.697 37.2751C191.697 32.9804 188.345 29.776 184.297 29.776C180.216 29.776 176.864 32.9804 176.864 37.2751C176.864 41.7018 180.183 45.0054 184.297 45.0054Z" fill="white"/>
<path id="Vector_16" d="M198.4 30.9321C198.4 30.4035 198.101 30.1062 197.57 30.1062H195.944V27.8928H198.599C200.192 27.8928 200.922 28.5205 200.922 30.0401V31.3285C200.922 32.1214 200.855 32.749 200.855 32.749H200.922C201.818 29.8749 203.941 27.6946 206.961 27.6946C207.492 27.6946 207.99 27.7937 207.99 27.7937V30.3374C207.99 30.3374 207.525 30.2714 207.027 30.2714C204.34 30.2714 202.315 32.3857 201.486 35.1937C201.121 36.416 200.955 37.6714 200.955 38.8937V46.8883H198.367V30.9321H198.4Z" fill="white"/>
<path id="Vector_17" d="M210.644 42.2303C210.644 42.2303 212.768 45.1044 216.517 45.1044C218.641 45.1044 220.532 44.0803 220.532 42.0982C220.532 37.9357 209.848 38.6955 209.848 32.5839C209.848 29.1482 212.801 27.4634 216.65 27.4634C218.575 27.4634 222.457 28.2232 222.457 30.8991V32.5178H220.035V31.6259C220.035 30.2384 217.977 29.7098 216.75 29.7098C214.095 29.7098 212.502 30.6018 212.502 32.4518C212.502 36.7134 223.187 35.7223 223.187 42.0321C223.187 45.2036 220.3 47.3509 216.517 47.3509C211.54 47.3509 209.184 44.0143 209.184 44.0143L210.644 42.2303Z" fill="white"/>
<path id="Vector_18" d="M227.468 30.9321C227.468 30.4035 227.169 30.1062 226.638 30.1062H225.045V27.8928H227.733C229.359 27.8928 230.056 28.5866 230.056 30.2053V43.816C230.056 44.3776 230.355 44.6419 230.886 44.6419H232.478V46.8553H229.791C228.165 46.8553 227.468 46.1616 227.468 44.5428V30.9321ZM227.401 20.3276H229.89V23.5651H227.401V20.3276Z" fill="white"/>
</g>
</g>
<g id="Group_3">
<path id="Exam XXXXXXXX - 21.11.2025" d="M250.77 132V111.636H264.491V115.186H255.075V120.038H263.786V123.588H255.075V128.45H264.531V132H250.77ZM271.375 116.727L274.179 122.067L277.052 116.727H281.397L276.973 124.364L281.517 132H277.191L274.179 126.72L271.216 132H266.841L271.375 124.364L267 116.727H271.375ZM288.186 132.288C287.212 132.288 286.343 132.119 285.581 131.781C284.819 131.437 284.215 130.929 283.771 130.26C283.334 129.584 283.115 128.742 283.115 127.734C283.115 126.886 283.271 126.173 283.582 125.597C283.894 125.02 284.318 124.556 284.855 124.205C285.392 123.853 286.002 123.588 286.685 123.409C287.374 123.23 288.097 123.104 288.852 123.031C289.741 122.938 290.456 122.852 291 122.773C291.544 122.687 291.938 122.561 292.183 122.395C292.429 122.229 292.551 121.984 292.551 121.659V121.599C292.551 120.97 292.352 120.482 291.955 120.138C291.563 119.793 291.007 119.621 290.284 119.621C289.522 119.621 288.915 119.79 288.464 120.128C288.014 120.459 287.715 120.877 287.57 121.381L283.652 121.062C283.851 120.134 284.242 119.332 284.825 118.656C285.409 117.973 286.161 117.45 287.082 117.085C288.01 116.714 289.084 116.528 290.304 116.528C291.152 116.528 291.964 116.628 292.74 116.827C293.522 117.026 294.215 117.334 294.818 117.751C295.428 118.169 295.909 118.706 296.26 119.362C296.611 120.012 296.787 120.791 296.787 121.699V132H292.77V129.882H292.651C292.405 130.359 292.077 130.78 291.666 131.145C291.255 131.503 290.761 131.785 290.185 131.99C289.608 132.189 288.942 132.288 288.186 132.288ZM289.399 129.365C290.022 129.365 290.572 129.242 291.05 128.997C291.527 128.745 291.902 128.407 292.173 127.983C292.445 127.559 292.581 127.078 292.581 126.541V124.92C292.448 125.007 292.266 125.086 292.034 125.159C291.809 125.225 291.554 125.288 291.268 125.348C290.983 125.401 290.698 125.451 290.413 125.497C290.128 125.537 289.87 125.573 289.638 125.607C289.141 125.679 288.706 125.795 288.335 125.955C287.964 126.114 287.676 126.329 287.47 126.601C287.265 126.866 287.162 127.197 287.162 127.595C287.162 128.172 287.371 128.613 287.788 128.918C288.213 129.216 288.75 129.365 289.399 129.365ZM300.073 132V116.727H304.11V119.422H304.289C304.607 118.527 305.138 117.821 305.88 117.304C306.622 116.787 307.511 116.528 308.545 116.528C309.592 116.528 310.484 116.79 311.219 117.314C311.955 117.831 312.446 118.534 312.691 119.422H312.85C313.162 118.547 313.725 117.848 314.54 117.324C315.362 116.794 316.334 116.528 317.454 116.528C318.879 116.528 320.036 116.982 320.924 117.891C321.819 118.792 322.266 120.071 322.266 121.729V132H318.04V122.564C318.04 121.715 317.815 121.079 317.364 120.655C316.914 120.231 316.35 120.018 315.674 120.018C314.905 120.018 314.305 120.264 313.874 120.754C313.443 121.238 313.228 121.878 313.228 122.673V132H309.121V122.474C309.121 121.725 308.906 121.129 308.475 120.685C308.051 120.241 307.491 120.018 306.795 120.018C306.324 120.018 305.9 120.138 305.522 120.376C305.151 120.608 304.856 120.937 304.637 121.361C304.418 121.778 304.309 122.269 304.309 122.832V132H300.073ZM336.209 111.636L340.316 118.577H340.475L344.601 111.636H349.463L343.249 121.818L349.603 132H344.651L340.475 125.05H340.316L336.14 132H331.208L337.581 121.818L331.327 111.636H336.209ZM356.225 111.636L360.331 118.577H360.49L364.617 111.636H369.479L363.265 121.818L369.618 132H364.667L360.49 125.05H360.331L356.155 132H351.223L357.597 121.818L351.343 111.636H356.225ZM376.24 111.636L380.347 118.577H380.506L384.632 111.636H389.495L383.28 121.818L389.634 132H384.682L380.506 125.05H380.347L376.171 132H371.239L377.613 121.818L371.358 111.636H376.24ZM396.256 111.636L400.363 118.577H400.522L404.648 111.636H409.51L403.296 121.818L409.65 132H404.698L400.522 125.05H400.363L396.186 132H391.255L397.628 121.818L391.374 111.636H396.256ZM416.272 111.636L420.378 118.577H420.537L424.664 111.636H429.526L423.311 121.818L429.665 132H424.713L420.537 125.05H420.378L416.202 132H411.27L417.644 121.818L411.39 111.636H416.272ZM436.287 111.636L440.394 118.577H440.553L444.679 111.636H449.542L443.327 121.818L449.681 132H444.729L440.553 125.05H440.394L436.218 132H431.286L437.659 121.818L431.405 111.636H436.287ZM456.303 111.636L460.409 118.577H460.569L464.695 111.636H469.557L463.343 121.818L469.696 132H464.745L460.569 125.05H460.409L456.233 132H451.301L457.675 121.818L451.421 111.636H456.303ZM476.319 111.636L480.425 118.577H480.584L484.711 111.636H489.573L483.358 121.818L489.712 132H484.76L480.584 125.05H480.425L476.249 132H471.317L477.691 121.818L471.436 111.636H476.319ZM508.214 120.138V123.499H498.927V120.138H508.214ZM518.264 132V128.898L525.512 122.186C526.129 121.589 526.646 121.053 527.064 120.575C527.488 120.098 527.809 119.631 528.028 119.173C528.247 118.709 528.356 118.209 528.356 117.672C528.356 117.075 528.22 116.562 527.949 116.131C527.677 115.693 527.306 115.358 526.835 115.126C526.364 114.888 525.831 114.768 525.234 114.768C524.611 114.768 524.067 114.894 523.603 115.146C523.139 115.398 522.781 115.759 522.529 116.23C522.278 116.701 522.152 117.261 522.152 117.911H518.065C518.065 116.578 518.367 115.421 518.97 114.44C519.573 113.459 520.418 112.7 521.505 112.163C522.592 111.626 523.845 111.358 525.264 111.358C526.722 111.358 527.992 111.616 529.072 112.134C530.159 112.644 531.004 113.353 531.608 114.261C532.211 115.17 532.512 116.21 532.512 117.384C532.512 118.152 532.36 118.911 532.055 119.661C531.757 120.41 531.223 121.241 530.454 122.156C529.685 123.064 528.601 124.155 527.203 125.428L524.23 128.341V128.48H532.781V132H518.264ZM544.76 111.636V132H540.455V115.723H540.335L535.672 118.646V114.828L540.713 111.636H544.76ZM551.022 132.259C550.365 132.259 549.802 132.027 549.331 131.562C548.867 131.092 548.635 130.528 548.635 129.872C548.635 129.223 548.867 128.666 549.331 128.202C549.802 127.738 550.365 127.506 551.022 127.506C551.658 127.506 552.215 127.738 552.692 128.202C553.169 128.666 553.408 129.223 553.408 129.872C553.408 130.31 553.295 130.711 553.07 131.075C552.851 131.433 552.563 131.722 552.205 131.94C551.847 132.152 551.453 132.259 551.022 132.259ZM563.162 111.636V132H558.857V115.723H558.738L554.074 118.646V114.828L559.115 111.636H563.162ZM576.862 111.636V132H572.556V115.723H572.437L567.773 118.646V114.828L572.815 111.636H576.862ZM583.123 132.259C582.467 132.259 581.904 132.027 581.433 131.562C580.969 131.092 580.737 130.528 580.737 129.872C580.737 129.223 580.969 128.666 581.433 128.202C581.904 127.738 582.467 127.506 583.123 127.506C583.76 127.506 584.316 127.738 584.794 128.202C585.271 128.666 585.51 129.223 585.51 129.872C585.51 130.31 585.397 130.711 585.172 131.075C584.953 131.433 584.664 131.722 584.306 131.94C583.949 132.152 583.554 132.259 583.123 132.259ZM588.947 132V128.898L596.196 122.186C596.813 121.589 597.33 121.053 597.747 120.575C598.171 120.098 598.493 119.631 598.712 119.173C598.93 118.709 599.04 118.209 599.04 117.672C599.04 117.075 598.904 116.562 598.632 116.131C598.36 115.693 597.989 115.358 597.518 115.126C597.048 114.888 596.514 114.768 595.918 114.768C595.295 114.768 594.751 114.894 594.287 115.146C593.823 115.398 593.465 115.759 593.213 116.23C592.961 116.701 592.835 117.261 592.835 117.911H588.749C588.749 116.578 589.05 115.421 589.653 114.44C590.257 113.459 591.102 112.7 592.189 112.163C593.276 111.626 594.529 111.358 595.947 111.358C597.406 111.358 598.675 111.616 599.756 112.134C600.843 112.644 601.688 113.353 602.291 114.261C602.894 115.17 603.196 116.21 603.196 117.384C603.196 118.152 603.044 118.911 602.739 119.661C602.44 120.41 601.907 121.241 601.138 122.156C600.369 123.064 599.285 124.155 597.886 125.428L594.913 128.341V128.48H603.464V132H588.947ZM614.569 132.447C612.858 132.441 611.387 132.02 610.154 131.185C608.927 130.349 607.983 129.14 607.32 127.555C606.664 125.971 606.339 124.065 606.346 121.838C606.346 119.617 606.674 117.725 607.33 116.161C607.993 114.596 608.937 113.406 610.164 112.591C611.397 111.769 612.865 111.358 614.569 111.358C616.272 111.358 617.737 111.769 618.963 112.591C620.196 113.413 621.144 114.606 621.807 116.17C622.47 117.728 622.798 119.617 622.792 121.838C622.792 124.072 622.46 125.981 621.797 127.565C621.141 129.15 620.2 130.359 618.973 131.195C617.747 132.03 616.279 132.447 614.569 132.447ZM614.569 128.878C615.735 128.878 616.667 128.291 617.363 127.118C618.059 125.945 618.403 124.185 618.397 121.838C618.397 120.294 618.238 119.008 617.919 117.98C617.608 116.953 617.164 116.18 616.587 115.663C616.017 115.146 615.344 114.888 614.569 114.888C613.408 114.888 612.48 115.468 611.784 116.628C611.088 117.788 610.737 119.525 610.73 121.838C610.73 123.402 610.886 124.708 611.198 125.756C611.516 126.796 611.963 127.579 612.54 128.102C613.117 128.619 613.793 128.878 614.569 128.878ZM625.862 132V128.898L633.11 122.186C633.727 121.589 634.244 121.053 634.661 120.575C635.085 120.098 635.407 119.631 635.626 119.173C635.844 118.709 635.954 118.209 635.954 117.672C635.954 117.075 635.818 116.562 635.546 116.131C635.274 115.693 634.903 115.358 634.433 115.126C633.962 114.888 633.428 114.768 632.832 114.768C632.209 114.768 631.665 114.894 631.201 115.146C630.737 115.398 630.379 115.759 630.127 116.23C629.875 116.701 629.749 117.261 629.749 117.911H625.663C625.663 116.578 625.964 115.421 626.567 114.44C627.171 113.459 628.016 112.7 629.103 112.163C630.19 111.626 631.443 111.358 632.862 111.358C634.32 111.358 635.589 111.616 636.67 112.134C637.757 112.644 638.602 113.353 639.205 114.261C639.808 115.17 640.11 116.21 640.11 117.384C640.11 118.152 639.958 118.911 639.653 119.661C639.354 120.41 638.821 121.241 638.052 122.156C637.283 123.064 636.199 124.155 634.8 125.428L631.827 128.341V128.48H640.379V132H625.862ZM650.936 132.278C649.53 132.278 648.278 132.02 647.177 131.503C646.083 130.986 645.215 130.273 644.572 129.365C643.929 128.457 643.594 127.416 643.568 126.243H647.744C647.79 127.032 648.122 127.671 648.738 128.162C649.355 128.652 650.087 128.898 650.936 128.898C651.612 128.898 652.208 128.749 652.725 128.45C653.249 128.145 653.657 127.724 653.949 127.188C654.247 126.644 654.396 126.021 654.396 125.318C654.396 124.602 654.243 123.973 653.939 123.429C653.64 122.885 653.226 122.461 652.696 122.156C652.165 121.851 651.559 121.696 650.876 121.689C650.279 121.689 649.699 121.812 649.136 122.057C648.579 122.302 648.145 122.637 647.833 123.061L644.005 122.375L644.97 111.636H657.419V115.156H648.52L647.993 120.257H648.112C648.47 119.753 649.01 119.336 649.733 119.004C650.455 118.673 651.264 118.507 652.159 118.507C653.385 118.507 654.479 118.795 655.44 119.372C656.401 119.949 657.16 120.741 657.717 121.749C658.274 122.75 658.549 123.903 658.542 125.209C658.549 126.581 658.231 127.801 657.588 128.868C656.951 129.929 656.06 130.764 654.913 131.374C653.773 131.977 652.447 132.278 650.936 132.278Z" fill="#111827"/>
<g id="Group_4">
<g id="Expand">
<path id="Vector_19" d="M302.917 281.833C323.857 281.833 340.833 264.857 340.833 243.917C340.833 222.976 323.857 206 302.917 206C281.976 206 265 222.976 265 243.917C265 264.857 281.976 281.833 302.917 281.833Z" fill="#FFF7ED" stroke="#FED7AA" stroke-width="2.36979"/>
<path id="Vector_20" d="M299.251 234.018L308.73 243.497L299.251 252.977" stroke="#FB923C" stroke-width="4.26562" stroke-linecap="round" stroke-linejoin="round"/>
</g>
<path id="Exam" d="M357.276 256V229.818H374.918V234.382H362.811V240.621H374.01V245.185H362.811V251.436H374.969V256H357.276ZM383.767 236.364L387.373 243.229L391.067 236.364H396.654L390.965 246.182L396.807 256H391.246L387.373 249.212L383.563 256H377.938L383.767 246.182L378.142 236.364H383.767ZM405.382 256.371C404.129 256.371 403.013 256.153 402.033 255.719C401.053 255.276 400.277 254.624 399.706 253.763C399.143 252.893 398.862 251.811 398.862 250.516C398.862 249.425 399.063 248.509 399.463 247.767C399.864 247.026 400.409 246.429 401.099 245.977C401.79 245.526 402.574 245.185 403.452 244.955C404.338 244.724 405.267 244.562 406.239 244.469C407.381 244.349 408.301 244.239 409 244.136C409.699 244.026 410.206 243.864 410.521 243.651C410.837 243.437 410.994 243.122 410.994 242.705V242.628C410.994 241.818 410.739 241.192 410.227 240.749C409.724 240.305 409.009 240.084 408.08 240.084C407.099 240.084 406.32 240.301 405.74 240.736C405.161 241.162 404.777 241.699 404.589 242.347L399.553 241.938C399.808 240.744 400.311 239.713 401.061 238.844C401.811 237.966 402.778 237.293 403.963 236.824C405.156 236.347 406.537 236.108 408.105 236.108C409.196 236.108 410.24 236.236 411.237 236.491C412.243 236.747 413.134 237.143 413.909 237.68C414.693 238.217 415.311 238.908 415.763 239.751C416.214 240.587 416.44 241.588 416.44 242.756V256H411.276V253.277H411.122C410.807 253.891 410.385 254.432 409.857 254.901C409.328 255.361 408.693 255.723 407.952 255.987C407.21 256.243 406.354 256.371 405.382 256.371ZM406.942 252.612C407.743 252.612 408.45 252.455 409.064 252.139C409.678 251.815 410.159 251.381 410.509 250.835C410.858 250.29 411.033 249.672 411.033 248.982V246.898C410.862 247.009 410.628 247.111 410.33 247.205C410.04 247.29 409.712 247.371 409.345 247.447C408.979 247.516 408.612 247.58 408.246 247.639C407.879 247.69 407.547 247.737 407.249 247.78C406.609 247.874 406.051 248.023 405.574 248.227C405.097 248.432 404.726 248.709 404.462 249.058C404.197 249.399 404.065 249.825 404.065 250.337C404.065 251.078 404.334 251.645 404.871 252.037C405.416 252.42 406.107 252.612 406.942 252.612ZM420.665 256V236.364H425.856V239.828H426.086C426.495 238.678 427.177 237.77 428.131 237.105C429.086 236.44 430.228 236.108 431.558 236.108C432.904 236.108 434.05 236.445 434.996 237.118C435.942 237.783 436.573 238.686 436.888 239.828H437.093C437.494 238.703 438.218 237.804 439.266 237.131C440.323 236.449 441.572 236.108 443.012 236.108C444.844 236.108 446.332 236.692 447.474 237.859C448.624 239.018 449.2 240.663 449.2 242.794V256H443.766V243.868C443.766 242.777 443.477 241.959 442.897 241.413C442.317 240.868 441.593 240.595 440.724 240.595C439.735 240.595 438.964 240.911 438.41 241.541C437.856 242.163 437.579 242.986 437.579 244.009V256H432.299V243.753C432.299 242.79 432.022 242.023 431.468 241.452C430.923 240.881 430.202 240.595 429.308 240.595C428.702 240.595 428.157 240.749 427.671 241.055C427.194 241.354 426.815 241.776 426.533 242.321C426.252 242.858 426.112 243.489 426.112 244.213V256H420.665Z" fill="#111827"/>
<g id="Group_5">
<path id="Exam - 21.11.2025" d="M443.335 355V339.642H453.683V342.32H446.582V345.979H453.151V348.656H446.582V352.323H453.713V355H443.335ZM458.874 343.482L460.989 347.509L463.156 343.482H466.433L463.096 349.241L466.523 355H463.261L460.989 351.018L458.754 355H455.455L458.874 349.241L455.575 343.482H458.874ZM471.553 355.217C470.818 355.217 470.163 355.09 469.588 354.835C469.013 354.575 468.558 354.193 468.223 353.688C467.893 353.178 467.728 352.543 467.728 351.783C467.728 351.143 467.846 350.606 468.081 350.171C468.316 349.736 468.636 349.386 469.041 349.121C469.446 348.856 469.906 348.656 470.421 348.521C470.94 348.386 471.485 348.291 472.055 348.236C472.725 348.166 473.265 348.101 473.675 348.041C474.085 347.976 474.382 347.881 474.567 347.756C474.752 347.631 474.845 347.446 474.845 347.201V347.156C474.845 346.681 474.695 346.314 474.395 346.054C474.1 345.794 473.68 345.664 473.135 345.664C472.56 345.664 472.103 345.791 471.763 346.046C471.423 346.296 471.198 346.611 471.088 346.991L468.133 346.751C468.283 346.051 468.578 345.447 469.018 344.937C469.458 344.422 470.026 344.027 470.72 343.752C471.42 343.472 472.23 343.332 473.15 343.332C473.79 343.332 474.402 343.407 474.987 343.557C475.577 343.707 476.1 343.939 476.555 344.254C477.014 344.569 477.377 344.974 477.642 345.469C477.907 345.959 478.039 346.546 478.039 347.231V355H475.01V353.403H474.92C474.735 353.763 474.487 354.08 474.177 354.355C473.867 354.625 473.495 354.838 473.06 354.993C472.625 355.142 472.123 355.217 471.553 355.217ZM472.468 353.013C472.938 353.013 473.353 352.92 473.712 352.735C474.072 352.545 474.355 352.29 474.56 351.97C474.765 351.651 474.867 351.288 474.867 350.883V349.661C474.767 349.726 474.63 349.786 474.455 349.841C474.285 349.891 474.092 349.938 473.877 349.983C473.663 350.023 473.448 350.061 473.233 350.096C473.018 350.126 472.823 350.153 472.648 350.178C472.273 350.233 471.945 350.321 471.665 350.441C471.385 350.561 471.168 350.723 471.013 350.928C470.858 351.128 470.78 351.378 470.78 351.678C470.78 352.113 470.938 352.445 471.253 352.675C471.573 352.9 471.978 353.013 472.468 353.013ZM480.518 355V343.482H483.562V345.514H483.697C483.937 344.839 484.337 344.307 484.897 343.917C485.457 343.527 486.127 343.332 486.907 343.332C487.697 343.332 488.369 343.529 488.924 343.924C489.479 344.314 489.849 344.844 490.034 345.514H490.154C490.389 344.854 490.814 344.327 491.428 343.932C492.048 343.532 492.781 343.332 493.626 343.332C494.7 343.332 495.573 343.674 496.243 344.359C496.918 345.039 497.255 346.004 497.255 347.254V355H494.068V347.884C494.068 347.244 493.898 346.764 493.558 346.444C493.218 346.124 492.793 345.964 492.283 345.964C491.703 345.964 491.251 346.149 490.926 346.519C490.601 346.884 490.439 347.366 490.439 347.966V355H487.342V347.816C487.342 347.251 487.179 346.801 486.854 346.466C486.534 346.131 486.112 345.964 485.587 345.964C485.232 345.964 484.912 346.054 484.627 346.234C484.347 346.409 484.125 346.656 483.96 346.976C483.795 347.291 483.712 347.661 483.712 348.086V355H480.518ZM511.842 346.054V348.589H504.838V346.054H511.842ZM519.422 355V352.66L524.888 347.599C525.353 347.149 525.743 346.744 526.058 346.384C526.378 346.024 526.62 345.671 526.785 345.327C526.95 344.977 527.033 344.599 527.033 344.194C527.033 343.744 526.93 343.357 526.725 343.032C526.52 342.702 526.24 342.449 525.886 342.275C525.531 342.095 525.128 342.005 524.678 342.005C524.208 342.005 523.798 342.1 523.448 342.29C523.098 342.479 522.828 342.752 522.639 343.107C522.449 343.462 522.354 343.884 522.354 344.374H519.272C519.272 343.369 519.499 342.497 519.954 341.757C520.409 341.017 521.046 340.445 521.866 340.04C522.686 339.635 523.631 339.432 524.701 339.432C525.801 339.432 526.758 339.627 527.573 340.017C528.393 340.402 529.03 340.937 529.485 341.622C529.94 342.307 530.167 343.092 530.167 343.977C530.167 344.557 530.052 345.129 529.822 345.694C529.597 346.259 529.195 346.886 528.615 347.576C528.035 348.261 527.218 349.083 526.163 350.043L523.921 352.24V352.345H530.37V355H519.422ZM539.404 339.642V355H536.157V342.724H536.067L532.55 344.929V342.05L536.352 339.642H539.404ZM544.126 355.195C543.631 355.195 543.207 355.02 542.852 354.67C542.502 354.315 542.327 353.89 542.327 353.395C542.327 352.905 542.502 352.485 542.852 352.135C543.207 351.786 543.631 351.611 544.126 351.611C544.606 351.611 545.026 351.786 545.386 352.135C545.746 352.485 545.926 352.905 545.926 353.395C545.926 353.725 545.841 354.028 545.671 354.303C545.506 354.573 545.289 354.79 545.019 354.955C544.749 355.115 544.451 355.195 544.126 355.195ZM553.282 339.642V355H550.035V342.724H549.945L546.429 344.929V342.05L550.23 339.642H553.282ZM563.614 339.642V355H560.367V342.724H560.277L556.76 344.929V342.05L560.562 339.642H563.614ZM568.336 355.195C567.841 355.195 567.416 355.02 567.062 354.67C566.712 354.315 566.537 353.89 566.537 353.395C566.537 352.905 566.712 352.485 567.062 352.135C567.416 351.786 567.841 351.611 568.336 351.611C568.816 351.611 569.236 351.786 569.596 352.135C569.956 352.485 570.136 352.905 570.136 353.395C570.136 353.725 570.051 354.028 569.881 354.303C569.716 354.573 569.499 354.79 569.229 354.955C568.959 355.115 568.661 355.195 568.336 355.195ZM572.729 355V352.66L578.195 347.599C578.66 347.149 579.05 346.744 579.365 346.384C579.685 346.024 579.928 345.671 580.093 345.327C580.258 344.977 580.34 344.599 580.34 344.194C580.34 343.744 580.238 343.357 580.033 343.032C579.828 342.702 579.548 342.449 579.193 342.275C578.838 342.095 578.435 342.005 577.985 342.005C577.515 342.005 577.106 342.1 576.756 342.29C576.406 342.479 576.136 342.752 575.946 343.107C575.756 343.462 575.661 343.884 575.661 344.374H572.579C572.579 343.369 572.806 342.497 573.261 341.757C573.716 341.017 574.353 340.445 575.173 340.04C575.993 339.635 576.938 339.432 578.008 339.432C579.108 339.432 580.065 339.627 580.88 340.017C581.7 340.402 582.337 340.937 582.792 341.622C583.247 342.307 583.475 343.092 583.475 343.977C583.475 344.557 583.36 345.129 583.13 345.694C582.905 346.259 582.502 346.886 581.922 347.576C581.342 348.261 580.525 349.083 579.47 350.043L577.228 352.24V352.345H583.677V355H572.729ZM592.051 355.337C590.762 355.332 589.652 355.015 588.722 354.385C587.797 353.755 587.085 352.843 586.585 351.648C586.09 350.453 585.845 349.016 585.85 347.336C585.85 345.661 586.097 344.234 586.592 343.054C587.092 341.875 587.804 340.977 588.729 340.362C589.659 339.742 590.767 339.432 592.051 339.432C593.336 339.432 594.441 339.742 595.366 340.362C596.296 340.982 597.011 341.882 597.51 343.062C598.01 344.237 598.258 345.661 598.253 347.336C598.253 349.021 598.003 350.461 597.503 351.656C597.008 352.85 596.298 353.763 595.373 354.393C594.448 355.022 593.341 355.337 592.051 355.337ZM592.051 352.645C592.931 352.645 593.634 352.203 594.158 351.318C594.683 350.433 594.943 349.106 594.938 347.336C594.938 346.171 594.818 345.202 594.578 344.427C594.343 343.652 594.009 343.069 593.574 342.679C593.144 342.29 592.636 342.095 592.051 342.095C591.176 342.095 590.477 342.532 589.952 343.407C589.427 344.282 589.162 345.591 589.157 347.336C589.157 348.516 589.274 349.501 589.509 350.291C589.749 351.076 590.087 351.666 590.522 352.06C590.956 352.45 591.466 352.645 592.051 352.645ZM600.568 355V352.66L606.035 347.599C606.5 347.149 606.89 346.744 607.205 346.384C607.524 346.024 607.767 345.671 607.932 345.327C608.097 344.977 608.179 344.599 608.179 344.194C608.179 343.744 608.077 343.357 607.872 343.032C607.667 342.702 607.387 342.449 607.032 342.275C606.677 342.095 606.275 342.005 605.825 342.005C605.355 342.005 604.945 342.1 604.595 342.29C604.245 342.479 603.975 342.752 603.785 343.107C603.595 343.462 603.5 343.884 603.5 344.374H600.418C600.418 343.369 600.646 342.497 601.101 341.757C601.555 341.017 602.193 340.445 603.013 340.04C603.833 339.635 604.777 339.432 605.847 339.432C606.947 339.432 607.904 339.627 608.719 340.017C609.539 340.402 610.177 340.937 610.632 341.622C611.086 342.307 611.314 343.092 611.314 343.977C611.314 344.557 611.199 345.129 610.969 345.694C610.744 346.259 610.342 346.886 609.762 347.576C609.182 348.261 608.364 349.083 607.31 350.043L605.067 352.24V352.345H611.516V355H600.568ZM619.478 355.21C618.418 355.21 617.474 355.015 616.644 354.625C615.819 354.235 615.164 353.698 614.679 353.013C614.194 352.328 613.942 351.543 613.922 350.658H617.071C617.106 351.253 617.356 351.736 617.821 352.105C618.286 352.475 618.838 352.66 619.478 352.66C619.988 352.66 620.438 352.548 620.828 352.323C621.223 352.093 621.53 351.776 621.75 351.371C621.975 350.961 622.088 350.491 622.088 349.961C622.088 349.421 621.973 348.946 621.743 348.536C621.518 348.126 621.205 347.806 620.806 347.576C620.406 347.346 619.948 347.229 619.433 347.224C618.983 347.224 618.546 347.316 618.121 347.501C617.701 347.686 617.374 347.939 617.139 348.259L614.252 347.741L614.979 339.642H624.367V342.297H617.656L617.259 346.144H617.349C617.619 345.764 618.026 345.449 618.571 345.199C619.116 344.949 619.726 344.824 620.401 344.824C621.325 344.824 622.15 345.042 622.875 345.477C623.6 345.911 624.172 346.509 624.592 347.269C625.012 348.024 625.22 348.893 625.215 349.878C625.22 350.913 624.98 351.833 624.495 352.638C624.015 353.438 623.343 354.068 622.478 354.528C621.618 354.983 620.618 355.21 619.478 355.21Z" fill="#111827"/>
</g>
</g>
</g>
<path id="Vector_21" d="M220 70H0V791H220V70Z" fill="#F5F5F5"/>
<g id="Group_6">
<path id="Vector_22" d="M13 85L25 97" stroke="#111827" stroke-width="1.6"/>
<path id="Vector_23" d="M25 85L13 97" stroke="#111827" stroke-width="1.6"/>
</g>
<g id="Group_7">
<path id="Vector_24" d="M206.7 83.4C207.639 83.4 208.4 82.6389 208.4 81.7C208.4 80.7611 207.639 80 206.7 80C205.761 80 205 80.7611 205 81.7C205 82.6389 205.761 83.4 206.7 83.4Z" fill="#6B7280"/>
<path id="Vector_25" d="M206.7 90.4C207.639 90.4 208.4 89.6389 208.4 88.7C208.4 87.7611 207.639 87 206.7 87C205.761 87 205 87.7611 205 88.7C205 89.6389 205.761 90.4 206.7 90.4Z" fill="#6B7280"/>
<path id="Vector_26" d="M206.7 97.4C207.639 97.4 208.4 96.6389 208.4 95.7C208.4 94.7611 207.639 94 206.7 94C205.761 94 205 94.7611 205 95.7C205 96.6389 205.761 97.4 206.7 97.4Z" fill="#6B7280"/>
</g>
<g id="Group_8">
<path id="Vector_27" d="M41 121.951L48.9024 129.854L41 137.756" stroke="#111827" stroke-width="2.10732" stroke-linecap="round" stroke-linejoin="round"/>
<path id="Exam_2" d="M63.2388 136V122.59H72.2749V124.927H66.074V128.123H71.81V130.46H66.074V133.662H72.3011V136H63.2388ZM76.8078 125.942L78.6543 129.459L80.5466 125.942H83.4081L80.4943 130.971L83.4867 136H80.6383L78.6543 132.523L76.703 136H73.8219L76.8078 130.971L73.9267 125.942H76.8078ZM87.8787 136.19C87.237 136.19 86.6652 136.079 86.1631 135.856C85.6611 135.629 85.2639 135.295 84.9714 134.854C84.6833 134.409 84.5393 133.854 84.5393 133.191C84.5393 132.632 84.6418 132.163 84.847 131.783C85.0522 131.403 85.3316 131.098 85.6851 130.866C86.0387 130.635 86.4403 130.46 86.89 130.343C87.344 130.225 87.8198 130.142 88.3174 130.094C88.9024 130.033 89.3738 129.976 89.7318 129.924C90.0897 129.867 90.3495 129.784 90.511 129.675C90.6725 129.566 90.7533 129.404 90.7533 129.19V129.151C90.7533 128.736 90.6223 128.415 90.3604 128.188C90.1028 127.961 89.7361 127.848 89.2603 127.848C88.7583 127.848 88.3589 127.959 88.0621 128.182C87.7652 128.4 87.5688 128.675 87.4727 129.007L84.8928 128.797C85.0238 128.186 85.2814 127.658 85.6655 127.213C86.0496 126.763 86.5451 126.418 87.1519 126.178C87.763 125.934 88.4702 125.811 89.2734 125.811C89.8322 125.811 90.3669 125.877 90.8777 126.008C91.3928 126.139 91.8489 126.342 92.2462 126.617C92.6478 126.892 92.9643 127.245 93.1956 127.678C93.427 128.105 93.5427 128.618 93.5427 129.216V136H90.8973V134.605H90.8187C90.6572 134.92 90.4411 135.197 90.1705 135.437C89.8998 135.673 89.5746 135.858 89.1948 135.993C88.8151 136.124 88.3764 136.19 87.8787 136.19ZM88.6776 134.265C89.0879 134.265 89.4502 134.184 89.7645 134.023C90.0788 133.857 90.3255 133.634 90.5044 133.355C90.6834 133.075 90.7729 132.759 90.7729 132.405V131.338C90.6856 131.395 90.5656 131.447 90.4128 131.495C90.2643 131.539 90.0963 131.58 89.9086 131.619C89.7209 131.654 89.5332 131.687 89.3455 131.718C89.1577 131.744 88.9875 131.768 88.8347 131.79C88.5073 131.838 88.2214 131.914 87.9769 132.019C87.7325 132.124 87.5426 132.265 87.4073 132.444C87.2719 132.619 87.2043 132.837 87.2043 133.099C87.2043 133.479 87.3418 133.769 87.6168 133.97C87.8962 134.167 88.2498 134.265 88.6776 134.265ZM95.7068 136V125.942H98.3652V127.717H98.4831C98.6926 127.128 99.0419 126.663 99.5308 126.322C100.02 125.982 100.605 125.811 101.286 125.811C101.975 125.811 102.562 125.984 103.047 126.329C103.532 126.669 103.855 127.132 104.016 127.717H104.121C104.326 127.141 104.697 126.68 105.234 126.335C105.775 125.986 106.415 125.811 107.153 125.811C108.091 125.811 108.853 126.11 109.438 126.708C110.027 127.302 110.322 128.145 110.322 129.236V136H107.539V129.786C107.539 129.227 107.391 128.808 107.094 128.529C106.797 128.249 106.426 128.11 105.981 128.11C105.474 128.11 105.079 128.271 104.795 128.594C104.512 128.913 104.37 129.334 104.37 129.858V136H101.665V129.727C101.665 129.234 101.524 128.841 101.24 128.548C100.96 128.256 100.592 128.11 100.133 128.11C99.8233 128.11 99.5439 128.188 99.2951 128.345C99.0506 128.498 98.8563 128.714 98.7123 128.994C98.5682 129.269 98.4962 129.592 98.4962 129.963V136H95.7068Z" fill="#111827"/>
</g>
<g id="Quiz icon">
<rect id="Rectangle 7" x="358" y="322" width="69" height="51" rx="8" stroke="#FF0095" stroke-width="6"/>
<line id="Line 3" x1="368" y1="337" x2="396" y2="337" stroke="#FF0095" stroke-width="4"/>
<line id="Line 6" x1="407.004" y1="330.638" x2="419.004" y2="339.484" stroke="#FF0095" stroke-width="3.38462"/>
<line id="Line 7" x1="418.81" y1="330.287" x2="407.099" y2="340.287" stroke="#FF0095" stroke-width="3.38462"/>
<line id="Line 8" x1="418.917" y1="344.311" x2="409.317" y2="351.024" stroke="#FF0095" stroke-width="3.2"/>
<line id="Line 10" x1="418.917" y1="355.311" x2="409.317" y2="362.024" stroke="#FF0095" stroke-width="3.2"/>
<line id="Line 9" x1="407.321" y1="345.298" x2="409.721" y2="348.811" stroke="#FF0095" stroke-width="3.2"/>
<line id="Line 11" x1="407.321" y1="356.298" x2="409.721" y2="359.811" stroke="#FF0095" stroke-width="3.2"/>
<line id="Line 4" x1="368" y1="348" x2="396" y2="348" stroke="#FF0095" stroke-width="4"/>
<line id="Line 5" x1="368" y1="359" x2="396" y2="359" stroke="#FF0095" stroke-width="4"/>
</g>
<rect id="Rectangle 8" x="250.5" y="191.5" width="1035" height="300" rx="43.5" stroke="#CACACA" stroke-width="3"/>
<path id="circle-2" d="M495.958 419.917C613.572 419.917 708.917 387.663 708.917 347.875C708.917 308.088 613.572 275.833 495.958 275.833C378.345 275.833 283 308.088 283 347.875C283 387.663 378.345 419.917 495.958 419.917Z" stroke="#00C800" stroke-width="8.69954"/>
<path id="arrow-2" d="M728.652 327.556C727.596 329.958 728.687 332.76 731.088 333.816L770.221 351.026C772.623 352.082 775.425 350.991 776.481 348.59C777.538 346.188 776.447 343.385 774.045 342.329L739.26 327.032L754.557 292.247C755.614 289.846 754.523 287.043 752.121 285.987C749.72 284.931 746.917 286.022 745.861 288.423L728.652 327.556ZM937.225 250L935.503 245.573L731.278 325.042L733 329.468L734.723 333.895L938.948 254.427L937.225 250Z" fill="#00C800"/>
<g id="Step 2">
<rect x="36" y="584" width="171" height="171" rx="85.5" fill="black" fill-opacity="0.6"/>
<path id="1" d="M130.648 704H116.152V664.352C116.152 663.264 116.152 661.92 116.152 660.32C116.216 658.72 116.28 657.056 116.344 655.328C116.408 653.6 116.472 652.064 116.536 650.72C116.216 651.104 115.512 651.808 114.424 652.832C113.4 653.792 112.44 654.656 111.544 655.424L103.672 661.76L96.664 653.024L118.744 635.456H130.648V704Z" fill="white"/>
</g>
</g>
<rect x="0.5" y="0.5" width="1317" height="789.8" rx="73.89" stroke="black" stroke-opacity="0.54"/>
</g>
<defs>
<clipPath id="clip0_45_510">
<rect width="1318" height="790.8" rx="74.39" fill="white"/>
</clipPath>
</defs>
</svg>
