<svg width="1318" height="791" viewBox="0 0 1318 791" fill="none" xmlns="http://www.w3.org/2000/svg">
<g id="Enter Exam">
<g clip-path="url(#clip0_41_355)">
<g id="Dashboard">
<path id="Vector" d="M1339.59 0H-22V791H1339.59V0Z" fill="white"/>
<path id="Vector_2" d="M1339.59 0H-22V70.0365H1339.59V0Z" fill="#272B31"/>
<path id="Dashboard_2" d="M261.715 38H257.997V27.5133H261.746C262.8 27.5133 263.708 27.7232 264.47 28.1431C265.231 28.5595 265.816 29.1586 266.226 29.9404C266.639 30.7221 266.846 31.6574 266.846 32.7464C266.846 33.8388 266.639 34.7775 266.226 35.5627C265.816 36.3478 265.228 36.9503 264.459 37.3702C263.695 37.7901 262.78 38 261.715 38ZM260.215 36.1003H261.623C262.278 36.1003 262.829 35.9842 263.277 35.7521C263.727 35.5166 264.065 35.153 264.29 34.6614C264.519 34.1665 264.634 33.5281 264.634 32.7464C264.634 31.9715 264.519 31.3383 264.29 30.8467C264.065 30.3551 263.729 29.9933 263.282 29.7611C262.835 29.529 262.283 29.413 261.628 29.413H260.215V36.1003ZM270.69 38.1485C270.188 38.1485 269.741 38.0614 269.348 37.8873C268.956 37.7098 268.645 37.4487 268.416 37.1039C268.191 36.7557 268.078 36.3222 268.078 35.8033C268.078 35.3664 268.159 34.9994 268.319 34.7024C268.479 34.4054 268.698 34.1665 268.974 33.9855C269.251 33.8046 269.565 33.6681 269.917 33.5759C270.272 33.4837 270.644 33.4189 271.033 33.3813C271.49 33.3335 271.859 33.2892 272.139 33.2482C272.419 33.2038 272.622 33.139 272.748 33.0536C272.875 32.9683 272.938 32.842 272.938 32.6747V32.644C272.938 32.3197 272.835 32.0688 272.63 31.8913C272.429 31.7138 272.142 31.625 271.77 31.625C271.378 31.625 271.065 31.7121 270.833 31.8861C270.601 32.0568 270.447 32.2719 270.372 32.5313L268.355 32.3675C268.457 31.8896 268.659 31.4765 268.959 31.1283C269.259 30.7767 269.647 30.507 270.121 30.3193C270.599 30.1281 271.152 30.0325 271.78 30.0325C272.217 30.0325 272.636 30.0837 273.035 30.1861C273.438 30.2886 273.794 30.4473 274.105 30.6624C274.419 30.8774 274.667 31.1539 274.848 31.4919C275.029 31.8264 275.119 32.2275 275.119 32.6952V38H273.05V36.9093H272.989C272.863 37.1551 272.694 37.3719 272.482 37.5596C272.27 37.744 272.016 37.8891 271.719 37.9949C271.422 38.0973 271.079 38.1485 270.69 38.1485ZM271.314 36.6431C271.635 36.6431 271.919 36.5799 272.164 36.4536C272.41 36.3239 272.603 36.1498 272.743 35.9313C272.883 35.7129 272.953 35.4654 272.953 35.1889V34.3542C272.885 34.3986 272.791 34.4396 272.671 34.4771C272.555 34.5112 272.424 34.5437 272.277 34.5744C272.13 34.6017 271.984 34.6273 271.837 34.6512C271.69 34.6717 271.557 34.6905 271.437 34.7075C271.181 34.7451 270.958 34.8048 270.767 34.8867C270.575 34.9687 270.427 35.0796 270.321 35.2196C270.215 35.3561 270.162 35.5268 270.162 35.7316C270.162 36.0286 270.27 36.2556 270.485 36.4127C270.703 36.5663 270.98 36.6431 271.314 36.6431ZM283.355 32.3777L281.358 32.5006C281.324 32.3299 281.251 32.1763 281.138 32.0398C281.025 31.8998 280.877 31.7889 280.693 31.7069C280.512 31.6216 280.295 31.5789 280.042 31.5789C279.704 31.5789 279.419 31.6506 279.187 31.794C278.955 31.9339 278.839 32.1217 278.839 32.3572C278.839 32.545 278.914 32.7037 279.064 32.8334C279.215 32.9632 279.472 33.0673 279.838 33.1458L281.261 33.4325C282.026 33.5896 282.596 33.8422 282.971 34.1904C283.347 34.5386 283.534 34.996 283.534 35.5627C283.534 36.0781 283.383 36.5304 283.079 36.9196C282.778 37.3087 282.365 37.6126 281.84 37.831C281.317 38.0461 280.715 38.1536 280.032 38.1536C278.991 38.1536 278.161 37.9368 277.544 37.5033C276.929 37.0664 276.569 36.4724 276.463 35.7214L278.609 35.6087C278.673 35.9262 278.83 36.1686 279.08 36.3358C279.329 36.4997 279.648 36.5816 280.037 36.5816C280.42 36.5816 280.727 36.5082 280.959 36.3614C281.194 36.2112 281.314 36.0184 281.317 35.7828C281.314 35.5848 281.23 35.4227 281.066 35.2964C280.903 35.1667 280.65 35.0677 280.309 34.9994L278.947 34.728C278.178 34.5744 277.607 34.3081 277.231 33.9292C276.859 33.5503 276.673 33.0673 276.673 32.4801C276.673 31.9749 276.81 31.5397 277.083 31.1744C277.359 30.8091 277.747 30.5275 278.245 30.3295C278.747 30.1315 279.334 30.0325 280.006 30.0325C281 30.0325 281.782 30.2425 282.352 30.6624C282.925 31.0822 283.26 31.654 283.355 32.3777ZM287.089 33.453V38H284.908V27.5133H287.028V31.5226H287.12C287.298 31.0583 287.584 30.6948 287.98 30.4319C288.376 30.1657 288.873 30.0325 289.47 30.0325C290.017 30.0325 290.493 30.152 290.899 30.391C291.309 30.6265 291.626 30.9662 291.851 31.4099C292.08 31.8503 292.193 32.3777 292.189 32.9922V38H290.008V33.3813C290.011 32.8966 289.889 32.5194 289.639 32.2497C289.394 31.98 289.049 31.8452 288.605 31.8452C288.308 31.8452 288.045 31.9083 287.816 32.0346C287.591 32.1609 287.414 32.3453 287.284 32.5877C287.158 32.8266 287.093 33.1151 287.089 33.453ZM293.947 38V27.5133H296.128V31.456H296.195C296.29 31.2444 296.429 31.0293 296.61 30.8108C296.794 30.589 297.033 30.4046 297.327 30.2578C297.623 30.1076 297.992 30.0325 298.433 30.0325C299.006 30.0325 299.535 30.1827 300.02 30.4831C300.505 30.7801 300.892 31.229 301.182 31.8298C301.472 32.4272 301.617 33.1765 301.617 34.0777C301.617 34.955 301.476 35.6958 301.192 36.3C300.913 36.9008 300.53 37.3565 300.045 37.6672C299.564 37.9744 299.025 38.128 298.427 38.128C298.004 38.128 297.644 38.058 297.347 37.9181C297.053 37.7781 296.813 37.6023 296.625 37.3907C296.437 37.1756 296.294 36.9588 296.195 36.7404H296.098V38H293.947ZM296.082 34.0675C296.082 34.5351 296.147 34.9431 296.277 35.2913C296.407 35.6395 296.594 35.9108 296.84 36.1054C297.086 36.2966 297.385 36.3922 297.736 36.3922C298.091 36.3922 298.392 36.2949 298.637 36.1003C298.883 35.9023 299.069 35.6292 299.195 35.281C299.325 34.9294 299.39 34.5249 299.39 34.0675C299.39 33.6135 299.327 33.2141 299.201 32.8693C299.074 32.5245 298.888 32.2548 298.642 32.0602C298.397 31.8657 298.095 31.7684 297.736 31.7684C297.381 31.7684 297.081 31.8623 296.835 32.05C296.593 32.2378 296.407 32.504 296.277 32.8488C296.147 33.1936 296.082 33.5998 296.082 34.0675ZM306.627 38.1536C305.831 38.1536 305.143 37.9846 304.563 37.6467C303.986 37.3053 303.541 36.8308 303.227 36.2232C302.913 35.6121 302.755 34.9038 302.755 34.0982C302.755 33.2857 302.913 32.5757 303.227 31.9681C303.541 31.357 303.986 30.8825 304.563 30.5446C305.143 30.2032 305.831 30.0325 306.627 30.0325C307.422 30.0325 308.108 30.2032 308.685 30.5446C309.265 30.8825 309.713 31.357 310.027 31.9681C310.341 32.5757 310.498 33.2857 310.498 34.0982C310.498 34.9038 310.341 35.6121 310.027 36.2232C309.713 36.8308 309.265 37.3053 308.685 37.6467C308.108 37.9846 307.422 38.1536 306.627 38.1536ZM306.637 36.4639C306.999 36.4639 307.301 36.3614 307.543 36.1566C307.786 35.9484 307.968 35.6651 308.091 35.3066C308.217 34.9482 308.28 34.5403 308.28 34.0828C308.28 33.6254 308.217 33.2175 308.091 32.859C307.968 32.5006 307.786 32.2173 307.543 32.009C307.301 31.8008 306.999 31.6967 306.637 31.6967C306.272 31.6967 305.964 31.8008 305.715 32.009C305.469 32.2173 305.283 32.5006 305.157 32.859C305.034 33.2175 304.973 33.6254 304.973 34.0828C304.973 34.5403 305.034 34.9482 305.157 35.3066C305.283 35.6651 305.469 35.9484 305.715 36.1566C305.964 36.3614 306.272 36.4639 306.637 36.4639ZM314.159 38.1485C313.657 38.1485 313.21 38.0614 312.817 37.8873C312.425 37.7098 312.114 37.4487 311.885 37.1039C311.66 36.7557 311.547 36.3222 311.547 35.8033C311.547 35.3664 311.628 34.9994 311.788 34.7024C311.948 34.4054 312.167 34.1665 312.443 33.9855C312.72 33.8046 313.034 33.6681 313.386 33.5759C313.741 33.4837 314.113 33.4189 314.502 33.3813C314.959 33.3335 315.328 33.2892 315.608 33.2482C315.888 33.2038 316.091 33.139 316.217 33.0536C316.344 32.9683 316.407 32.842 316.407 32.6747V32.644C316.407 32.3197 316.304 32.0688 316.099 31.8913C315.898 31.7138 315.611 31.625 315.239 31.625C314.847 31.625 314.534 31.7121 314.302 31.8861C314.07 32.0568 313.916 32.2719 313.841 32.5313L311.824 32.3675C311.926 31.8896 312.128 31.4765 312.428 31.1283C312.728 30.7767 313.116 30.507 313.59 30.3193C314.068 30.1281 314.621 30.0325 315.249 30.0325C315.686 30.0325 316.105 30.0837 316.504 30.1861C316.907 30.2886 317.264 30.4473 317.574 30.6624C317.888 30.8774 318.136 31.1539 318.317 31.4919C318.498 31.8264 318.588 32.2275 318.588 32.6952V38H316.519V36.9093H316.458C316.332 37.1551 316.163 37.3719 315.951 37.5596C315.739 37.744 315.485 37.8891 315.188 37.9949C314.891 38.0973 314.548 38.1485 314.159 38.1485ZM314.784 36.6431C315.104 36.6431 315.388 36.5799 315.634 36.4536C315.879 36.3239 316.072 36.1498 316.212 35.9313C316.352 35.7129 316.422 35.4654 316.422 35.1889V34.3542C316.354 34.3986 316.26 34.4396 316.14 34.4771C316.024 34.5112 315.893 34.5437 315.746 34.5744C315.599 34.6017 315.453 34.6273 315.306 34.6512C315.159 34.6717 315.026 34.6905 314.906 34.7075C314.65 34.7451 314.427 34.8048 314.236 34.8867C314.044 34.9687 313.896 35.0796 313.79 35.2196C313.684 35.3561 313.631 35.5268 313.631 35.7316C313.631 36.0286 313.739 36.2556 313.954 36.4127C314.172 36.5663 314.449 36.6431 314.784 36.6431ZM320.28 38V30.1349H322.395V31.5072H322.477C322.62 31.0191 322.861 30.6504 323.199 30.4012C323.537 30.1486 323.926 30.0223 324.366 30.0223C324.476 30.0223 324.593 30.0291 324.72 30.0428C324.846 30.0564 324.957 30.0752 325.053 30.0991V32.0346C324.95 32.0039 324.809 31.9766 324.628 31.9527C324.447 31.9288 324.281 31.9169 324.131 31.9169C323.81 31.9169 323.523 31.9869 323.271 32.1268C323.021 32.2634 322.824 32.4545 322.677 32.7003C322.533 32.9461 322.462 33.2294 322.462 33.5503V38H320.28ZM328.712 38.128C328.115 38.128 327.574 37.9744 327.089 37.6672C326.608 37.3565 326.226 36.9008 325.942 36.3C325.662 35.6958 325.522 34.955 325.522 34.0777C325.522 33.1765 325.668 32.4272 325.958 31.8298C326.248 31.229 326.634 30.7801 327.115 30.4831C327.6 30.1827 328.13 30.0325 328.707 30.0325C329.148 30.0325 329.515 30.1076 329.808 30.2578C330.105 30.4046 330.344 30.589 330.525 30.8108C330.709 31.0293 330.849 31.2444 330.945 31.456H331.012V27.5133H333.188V38H331.037V36.7404H330.945C330.843 36.9588 330.698 37.1756 330.51 37.3907C330.325 37.6023 330.085 37.7781 329.788 37.9181C329.494 38.058 329.136 38.128 328.712 38.128ZM329.404 36.3922C329.755 36.3922 330.052 36.2966 330.295 36.1054C330.541 35.9108 330.728 35.6395 330.858 35.2913C330.991 34.9431 331.058 34.5351 331.058 34.0675C331.058 33.5998 330.993 33.1936 330.863 32.8488C330.733 32.504 330.546 32.2378 330.3 32.05C330.054 31.8623 329.755 31.7684 329.404 31.7684C329.045 31.7684 328.743 31.8657 328.497 32.0602C328.252 32.2548 328.066 32.5245 327.939 32.8693C327.813 33.2141 327.75 33.6135 327.75 34.0675C327.75 34.5249 327.813 34.9294 327.939 35.281C328.069 35.6292 328.255 35.9023 328.497 36.1003C328.743 36.2949 329.045 36.3922 329.404 36.3922Z" fill="white"/>
<path id="Vector_3" d="M334.791 44.1614H257.545C256.692 44.1614 256 44.8531 256 45.7063C256 46.5595 256.692 47.2512 257.545 47.2512H334.791C335.644 47.2512 336.336 46.5595 336.336 45.7063C336.336 44.8531 335.644 44.1614 334.791 44.1614Z" fill="white"/>
<path id="My Courses" d="M351.051 27.5133H352.567L356.131 36.2181H356.254L359.817 27.5133H361.333V38H360.145V30.0325H360.043L356.766 38H355.619L352.341 30.0325H352.239V38H351.051V27.5133ZM364.494 40.9494C364.289 40.9494 364.106 40.9323 363.946 40.8982C363.785 40.8675 363.674 40.8367 363.613 40.806L363.92 39.741C364.214 39.8161 364.473 39.8434 364.698 39.8229C364.924 39.8024 365.123 39.7017 365.298 39.5208C365.475 39.3433 365.637 39.0548 365.784 38.6554L366.009 38.041L363.101 30.1349H364.412L366.583 36.4024H366.665L368.836 30.1349H370.147L366.808 39.147C366.658 39.5532 366.472 39.8895 366.25 40.1557C366.028 40.4254 365.77 40.6251 365.477 40.7548C365.187 40.8845 364.859 40.9494 364.494 40.9494ZM384.4 30.7904H383.13C383.055 30.4251 382.923 30.1042 382.735 29.8277C382.551 29.5512 382.326 29.3191 382.059 29.1313C381.797 28.9402 381.505 28.7968 381.184 28.7012C380.863 28.6056 380.528 28.5578 380.18 28.5578C379.545 28.5578 378.97 28.7183 378.455 29.0392C377.943 29.36 377.535 29.8328 377.231 30.4575C376.93 31.0822 376.78 31.8486 376.78 32.7566C376.78 33.6647 376.93 34.431 377.231 35.0557C377.535 35.6804 377.943 36.1532 378.455 36.4741C378.97 36.795 379.545 36.9554 380.18 36.9554C380.528 36.9554 380.863 36.9076 381.184 36.812C381.505 36.7165 381.797 36.5748 382.059 36.387C382.326 36.1959 382.551 35.962 382.735 35.6855C382.923 35.4056 383.055 35.0847 383.13 34.7229H384.4C384.304 35.2588 384.13 35.7385 383.877 36.1617C383.625 36.585 383.311 36.9452 382.935 37.2422C382.56 37.5357 382.138 37.7593 381.67 37.913C381.206 38.0666 380.709 38.1434 380.18 38.1434C379.286 38.1434 378.49 37.9249 377.794 37.488C377.098 37.051 376.55 36.4297 376.15 35.6241C375.751 34.8185 375.551 33.8627 375.551 32.7566C375.551 31.6506 375.751 30.6948 376.15 29.8892C376.55 29.0835 377.098 28.4623 377.794 28.0253C378.49 27.5884 379.286 27.3699 380.18 27.3699C380.709 27.3699 381.206 27.4467 381.67 27.6003C382.138 27.7539 382.56 27.9792 382.935 28.2762C383.311 28.5698 383.625 28.9282 383.877 29.3515C384.13 29.7714 384.304 30.251 384.4 30.7904ZM389.483 38.1639C388.773 38.1639 388.15 37.9949 387.614 37.6569C387.081 37.319 386.665 36.8462 386.365 36.2386C386.068 35.6309 385.919 34.9209 385.919 34.1084C385.919 33.2892 386.068 32.574 386.365 31.963C386.665 31.3519 387.081 30.8774 387.614 30.5395C388.15 30.2015 388.773 30.0325 389.483 30.0325C390.193 30.0325 390.814 30.2015 391.347 30.5395C391.883 30.8774 392.299 31.3519 392.596 31.963C392.897 32.574 393.047 33.2892 393.047 34.1084C393.047 34.9209 392.897 35.6309 392.596 36.2386C392.299 36.8462 391.883 37.319 391.347 37.6569C390.814 37.9949 390.193 38.1639 389.483 38.1639ZM389.483 37.0783C390.022 37.0783 390.466 36.9401 390.814 36.6636C391.162 36.387 391.42 36.0235 391.587 35.5729C391.755 35.1223 391.838 34.6341 391.838 34.1084C391.838 33.5827 391.755 33.0929 391.587 32.6389C391.42 32.1848 391.162 31.8179 390.814 31.538C390.466 31.258 390.022 31.1181 389.483 31.1181C388.944 31.1181 388.5 31.258 388.152 31.538C387.803 31.8179 387.546 32.1848 387.378 32.6389C387.211 33.0929 387.127 33.5827 387.127 34.1084C387.127 34.6341 387.211 35.1223 387.378 35.5729C387.546 36.0235 387.803 36.387 388.152 36.6636C388.5 36.9401 388.944 37.0783 389.483 37.0783ZM399.848 34.7843V30.1349H401.056V38H399.848V36.6687H399.766C399.582 37.0681 399.295 37.4077 398.906 37.6877C398.517 37.9642 398.025 38.1024 397.431 38.1024C396.94 38.1024 396.503 37.9949 396.12 37.7798C395.738 37.5613 395.438 37.2336 395.219 36.7967C395.001 36.3563 394.891 35.8016 394.891 35.1325V30.1349H396.1V35.0506C396.1 35.6241 396.26 36.0815 396.581 36.4229C396.905 36.7643 397.319 36.9349 397.82 36.9349C398.121 36.9349 398.426 36.8581 398.737 36.7045C399.051 36.5509 399.314 36.3154 399.525 35.9979C399.74 35.6804 399.848 35.2759 399.848 34.7843ZM403.27 38V30.1349H404.437V31.3229H404.519C404.663 30.9337 404.922 30.618 405.297 30.3756C405.673 30.1332 406.096 30.0121 406.567 30.0121C406.656 30.0121 406.767 30.0138 406.9 30.0172C407.033 30.0206 407.134 30.0257 407.202 30.0325V31.2614C407.161 31.2512 407.067 31.2358 406.921 31.2154C406.777 31.1915 406.625 31.1795 406.465 31.1795C406.083 31.1795 405.741 31.2597 405.441 31.4202C405.144 31.5772 404.908 31.7957 404.734 32.0756C404.564 32.3521 404.478 32.6679 404.478 33.0229V38H403.27ZM414.206 31.8964L413.12 32.2036C413.052 32.0227 412.951 31.8469 412.818 31.6762C412.688 31.5021 412.511 31.3587 412.286 31.2461C412.06 31.1334 411.772 31.0771 411.42 31.0771C410.939 31.0771 410.538 31.1881 410.217 31.4099C409.9 31.6284 409.741 31.9066 409.741 32.2446C409.741 32.545 409.85 32.7822 410.068 32.9563C410.287 33.1304 410.628 33.2755 411.093 33.3916L412.26 33.6783C412.963 33.849 413.487 34.1101 413.832 34.4617C414.177 34.8099 414.349 35.2588 414.349 35.8084C414.349 36.259 414.22 36.6618 413.96 37.0169C413.704 37.3719 413.346 37.6518 412.885 37.8566C412.424 38.0614 411.888 38.1639 411.277 38.1639C410.475 38.1639 409.811 37.9898 409.285 37.6416C408.759 37.2934 408.427 36.7847 408.287 36.1157L409.434 35.8289C409.543 36.2522 409.749 36.5697 410.053 36.7813C410.36 36.993 410.761 37.0988 411.256 37.0988C411.82 37.0988 412.267 36.9793 412.598 36.7404C412.933 36.498 413.1 36.2078 413.1 35.8699C413.1 35.5968 413.004 35.3681 412.813 35.1837C412.622 34.996 412.328 34.856 411.932 34.7639L410.622 34.4566C409.901 34.2859 409.372 34.0214 409.034 33.663C408.7 33.3011 408.532 32.8488 408.532 32.306C408.532 31.8623 408.657 31.4697 408.906 31.1283C409.159 30.787 409.502 30.519 409.935 30.3244C410.372 30.1298 410.867 30.0325 411.42 30.0325C412.199 30.0325 412.81 30.2032 413.253 30.5446C413.701 30.8859 414.018 31.3365 414.206 31.8964ZM419.466 38.1639C418.708 38.1639 418.054 37.9966 417.505 37.662C416.959 37.3241 416.537 36.853 416.24 36.2488C415.946 35.6412 415.8 34.9345 415.8 34.1289C415.8 33.3233 415.946 32.6133 416.24 31.9988C416.537 31.3809 416.95 30.8996 417.479 30.5548C418.012 30.2066 418.633 30.0325 419.343 30.0325C419.753 30.0325 420.157 30.1008 420.557 30.2374C420.956 30.3739 421.319 30.5958 421.647 30.903C421.975 31.2068 422.236 31.6096 422.431 32.1114C422.625 32.6133 422.722 33.2311 422.722 33.9651V34.4771H416.66V33.4325H421.494C421.494 32.9888 421.405 32.5928 421.227 32.2446C421.053 31.8964 420.804 31.6216 420.48 31.4202C420.159 31.2188 419.78 31.1181 419.343 31.1181C418.862 31.1181 418.445 31.2376 418.094 31.4765C417.745 31.7121 417.477 32.0193 417.29 32.3982C417.102 32.7771 417.008 33.1833 417.008 33.6169V34.3133C417.008 34.9072 417.11 35.4107 417.315 35.8238C417.523 36.2334 417.812 36.5458 418.181 36.7608C418.549 36.9725 418.978 37.0783 419.466 37.0783C419.783 37.0783 420.07 37.0339 420.326 36.9452C420.586 36.853 420.809 36.7165 420.997 36.5355C421.185 36.3512 421.33 36.1225 421.432 35.8494L422.6 36.1771C422.477 36.5731 422.27 36.9213 421.98 37.2217C421.69 37.5187 421.331 37.7508 420.905 37.9181C420.478 38.0819 419.998 38.1639 419.466 38.1639ZM430.132 31.8964L429.046 32.2036C428.978 32.0227 428.877 31.8469 428.744 31.6762C428.614 31.5021 428.437 31.3587 428.212 31.2461C427.986 31.1334 427.698 31.0771 427.346 31.0771C426.865 31.0771 426.464 31.1881 426.143 31.4099C425.825 31.6284 425.667 31.9066 425.667 32.2446C425.667 32.545 425.776 32.7822 425.994 32.9563C426.213 33.1304 426.554 33.2755 427.019 33.3916L428.186 33.6783C428.889 33.849 429.413 34.1101 429.758 34.4617C430.103 34.8099 430.275 35.2588 430.275 35.8084C430.275 36.259 430.145 36.6618 429.886 37.0169C429.63 37.3719 429.272 37.6518 428.811 37.8566C428.35 38.0614 427.814 38.1639 427.203 38.1639C426.401 38.1639 425.737 37.9898 425.211 37.6416C424.685 37.2934 424.353 36.7847 424.213 36.1157L425.36 35.8289C425.469 36.2522 425.675 36.5697 425.979 36.7813C426.286 36.993 426.687 37.0988 427.182 37.0988C427.746 37.0988 428.193 36.9793 428.524 36.7404C428.859 36.498 429.026 36.2078 429.026 35.8699C429.026 35.5968 428.93 35.3681 428.739 35.1837C428.548 34.996 428.254 34.856 427.858 34.7639L426.547 34.4566C425.827 34.2859 425.298 34.0214 424.96 33.663C424.626 33.3011 424.458 32.8488 424.458 32.306C424.458 31.8623 424.583 31.4697 424.832 31.1283C425.085 30.787 425.428 30.519 425.861 30.3244C426.298 30.1298 426.793 30.0325 427.346 30.0325C428.125 30.0325 428.736 30.2032 429.179 30.5446C429.627 30.8859 429.944 31.3365 430.132 31.8964Z" fill="white"/>
<path id="Vector_4" d="M447.602 31.1624L441.47 37.3893L435.243 31.2572" stroke="white" stroke-width="1.54492" stroke-linecap="round" stroke-linejoin="round"/>
<g id="Group">
<path id="Vector_5" d="M1130.18 27.3894C1129.09 27.3894 1128.04 27.8235 1127.27 28.5961C1126.49 29.3687 1126.06 30.4166 1126.06 31.5092V35.114L1124 37.6889H1136.36L1134.3 35.114V31.5092C1134.3 30.4166 1133.87 29.3687 1133.09 28.5961C1132.32 27.8235 1131.27 27.3894 1130.18 27.3894Z" stroke="#F9FAFB" stroke-width="1.64792"/>
<path id="Vector_6" d="M1130.18 39.7489C1130.73 39.7489 1131.25 39.5318 1131.64 39.1455C1132.02 38.7592 1132.24 38.2353 1132.24 37.689H1128.12C1128.12 38.2353 1128.34 38.7592 1128.72 39.1455C1129.11 39.5318 1129.63 39.7489 1130.18 39.7489Z" stroke="#F9FAFB" stroke-width="1.64792"/>
</g>
<path id="Vector_7" d="M1174.47 50.0483C1183 50.0483 1189.92 43.1315 1189.92 34.5991C1189.92 26.0668 1183 19.1499 1174.47 19.1499C1165.93 19.1499 1159.02 26.0668 1159.02 34.5991C1159.02 43.1315 1165.93 50.0483 1174.47 50.0483Z" fill="#F3F4F6"/>
<path id="IP" d="M1171.95 30.0114V39H1170.05V30.0114H1171.95ZM1173.51 39V30.0114H1177.06C1177.74 30.0114 1178.32 30.1416 1178.8 30.402C1179.28 30.6595 1179.65 31.0179 1179.9 31.4773C1180.15 31.9337 1180.28 32.4604 1180.28 33.0573C1180.28 33.6542 1180.15 34.1809 1179.89 34.6374C1179.64 35.0938 1179.26 35.4493 1178.77 35.7039C1178.29 35.9584 1177.7 36.0857 1177.01 36.0857H1174.75V34.5627H1176.7C1177.07 34.5627 1177.37 34.4998 1177.61 34.374C1177.85 34.2453 1178.03 34.0682 1178.14 33.8429C1178.26 33.6147 1178.32 33.3528 1178.32 33.0573C1178.32 32.7589 1178.26 32.4985 1178.14 32.2761C1178.03 32.0508 1177.85 31.8767 1177.61 31.7538C1177.37 31.628 1177.06 31.5651 1176.69 31.5651H1175.41V39H1173.51Z" fill="#111827"/>
<path id="Vector_8" d="M1203.31 16.0601H1202.28V53.1382H1203.31V16.0601Z" fill="#4B5563"/>
<path id="Edit mode" d="M1226.02 26V17.0114H1231.45V17.9769H1227.11V21.0141H1231.17V21.9797H1227.11V25.0344H1231.52V26H1226.02ZM1235.81 26.1404C1235.25 26.1404 1234.76 25.9985 1234.33 25.7147C1233.9 25.428 1233.56 25.0242 1233.32 24.5034C1233.07 23.9796 1232.95 23.3608 1232.95 22.6468C1232.95 21.9387 1233.07 21.3243 1233.32 20.8034C1233.56 20.2826 1233.9 19.8803 1234.33 19.5965C1234.76 19.3127 1235.26 19.1707 1235.83 19.1707C1236.27 19.1707 1236.62 19.2439 1236.87 19.3902C1237.13 19.5336 1237.33 19.6974 1237.46 19.8818C1237.6 20.0632 1237.71 20.2124 1237.78 20.3294H1237.87V17.0114H1238.9V26H1237.9V24.9642H1237.78C1237.71 25.0871 1237.6 25.2422 1237.46 25.4294C1237.32 25.6138 1237.12 25.7791 1236.86 25.9254C1236.59 26.0688 1236.25 26.1404 1235.81 26.1404ZM1235.96 25.21C1236.37 25.21 1236.72 25.1017 1237.01 24.8852C1237.3 24.6657 1237.51 24.3629 1237.66 23.9767C1237.81 23.5875 1237.89 23.1384 1237.89 22.6293C1237.89 22.126 1237.81 21.6856 1237.67 21.3082C1237.52 20.9278 1237.3 20.6323 1237.02 20.4216C1236.73 20.208 1236.38 20.1012 1235.96 20.1012C1235.52 20.1012 1235.15 20.2139 1234.86 20.4392C1234.57 20.6615 1234.35 20.9644 1234.2 21.3477C1234.06 21.7281 1233.99 22.1553 1233.99 22.6293C1233.99 23.1091 1234.06 23.5451 1234.21 23.9372C1234.36 24.3263 1234.58 24.6365 1234.87 24.8676C1235.16 25.0959 1235.52 25.21 1235.96 25.21ZM1240.95 26V19.2585H1241.98V26H1240.95ZM1241.47 18.1349C1241.27 18.1349 1241.1 18.0662 1240.95 17.9287C1240.81 17.7911 1240.73 17.6258 1240.73 17.4327C1240.73 17.2396 1240.81 17.0743 1240.95 16.9368C1241.1 16.7992 1241.27 16.7305 1241.47 16.7305C1241.67 16.7305 1241.85 16.7992 1241.99 16.9368C1242.14 17.0743 1242.21 17.2396 1242.21 17.4327C1242.21 17.6258 1242.14 17.7911 1241.99 17.9287C1241.85 18.0662 1241.67 18.1349 1241.47 18.1349ZM1246.81 19.2585V20.1363H1243.32V19.2585H1246.81ZM1244.33 17.6434H1245.37V24.0688C1245.37 24.3614 1245.41 24.5809 1245.5 24.7272C1245.59 24.8706 1245.7 24.9671 1245.83 25.0169C1245.97 25.0637 1246.11 25.0871 1246.27 25.0871C1246.38 25.0871 1246.47 25.0812 1246.55 25.0695C1246.62 25.0549 1246.68 25.0432 1246.72 25.0344L1246.93 25.9649C1246.86 25.9912 1246.77 26.0176 1246.64 26.0439C1246.51 26.0731 1246.35 26.0878 1246.16 26.0878C1245.87 26.0878 1245.58 26.0249 1245.3 25.8991C1245.02 25.7732 1244.79 25.5816 1244.61 25.3241C1244.43 25.0666 1244.33 24.7418 1244.33 24.3497V17.6434ZM1251.84 26V19.2585H1252.85V20.3119H1252.93C1253.07 19.952 1253.3 19.6725 1253.61 19.4736C1253.93 19.2717 1254.3 19.1707 1254.74 19.1707C1255.19 19.1707 1255.56 19.2717 1255.85 19.4736C1256.15 19.6725 1256.38 19.952 1256.55 20.3119H1256.62C1256.79 19.9637 1257.05 19.6872 1257.4 19.4824C1257.74 19.2746 1258.16 19.1707 1258.64 19.1707C1259.24 19.1707 1259.73 19.3595 1260.12 19.7369C1260.5 20.1114 1260.69 20.6952 1260.69 21.4881V26H1259.66V21.4881C1259.66 20.9907 1259.52 20.6352 1259.25 20.4216C1258.98 20.208 1258.66 20.1012 1258.29 20.1012C1257.81 20.1012 1257.45 20.2446 1257.19 20.5313C1256.93 20.8151 1256.8 21.175 1256.8 21.611V26H1255.74V21.3828C1255.74 20.9995 1255.62 20.6908 1255.37 20.4567C1255.12 20.2197 1254.8 20.1012 1254.41 20.1012C1254.14 20.1012 1253.89 20.1729 1253.65 20.3163C1253.42 20.4596 1253.23 20.6586 1253.09 20.9132C1252.95 21.1648 1252.88 21.4559 1252.88 21.7866V26H1251.84ZM1265.33 26.1404C1264.72 26.1404 1264.18 25.9956 1263.72 25.7059C1263.27 25.4163 1262.91 25.011 1262.65 24.4902C1262.4 23.9694 1262.27 23.3608 1262.27 22.6644C1262.27 21.9621 1262.4 21.3491 1262.65 20.8254C1262.91 20.3016 1263.27 19.8949 1263.72 19.6053C1264.18 19.3156 1264.72 19.1707 1265.33 19.1707C1265.93 19.1707 1266.47 19.3156 1266.92 19.6053C1267.38 19.8949 1267.74 20.3016 1267.99 20.8254C1268.25 21.3491 1268.38 21.9621 1268.38 22.6644C1268.38 23.3608 1268.25 23.9694 1267.99 24.4902C1267.74 25.011 1267.38 25.4163 1266.92 25.7059C1266.47 25.9956 1265.93 26.1404 1265.33 26.1404ZM1265.33 25.21C1265.79 25.21 1266.17 25.0915 1266.47 24.8545C1266.76 24.6175 1266.99 24.3059 1267.13 23.9196C1267.27 23.5334 1267.34 23.115 1267.34 22.6644C1267.34 22.2138 1267.27 21.7939 1267.13 21.4047C1266.99 21.0156 1266.76 20.701 1266.47 20.4611C1266.17 20.2212 1265.79 20.1012 1265.33 20.1012C1264.86 20.1012 1264.48 20.2212 1264.18 20.4611C1263.89 20.701 1263.66 21.0156 1263.52 21.4047C1263.38 21.7939 1263.31 22.2138 1263.31 22.6644C1263.31 23.115 1263.38 23.5334 1263.52 23.9196C1263.66 24.3059 1263.89 24.6175 1264.18 24.8545C1264.48 25.0915 1264.86 25.21 1265.33 25.21ZM1272.51 26.1404C1271.94 26.1404 1271.45 25.9985 1271.02 25.7147C1270.59 25.428 1270.25 25.0242 1270.01 24.5034C1269.77 23.9796 1269.65 23.3608 1269.65 22.6468C1269.65 21.9387 1269.77 21.3243 1270.01 20.8034C1270.25 20.2826 1270.59 19.8803 1271.02 19.5965C1271.46 19.3127 1271.96 19.1707 1272.52 19.1707C1272.96 19.1707 1273.31 19.2439 1273.56 19.3902C1273.82 19.5336 1274.02 19.6974 1274.15 19.8818C1274.29 20.0632 1274.4 20.2124 1274.47 20.3294H1274.56V17.0114H1275.6V26H1274.6V24.9642H1274.47C1274.4 25.0871 1274.29 25.2422 1274.15 25.4294C1274.01 25.6138 1273.81 25.7791 1273.55 25.9254C1273.29 26.0688 1272.94 26.1404 1272.51 26.1404ZM1272.65 25.21C1273.06 25.21 1273.41 25.1017 1273.7 24.8852C1273.99 24.6657 1274.21 24.3629 1274.35 23.9767C1274.5 23.5875 1274.58 23.1384 1274.58 22.6293C1274.58 22.126 1274.51 21.6856 1274.36 21.3082C1274.21 20.9278 1274 20.6323 1273.71 20.4216C1273.42 20.208 1273.07 20.1012 1272.65 20.1012C1272.21 20.1012 1271.84 20.2139 1271.55 20.4392C1271.26 20.6615 1271.04 20.9644 1270.9 21.3477C1270.75 21.7281 1270.68 22.1553 1270.68 22.6293C1270.68 23.1091 1270.75 23.5451 1270.9 23.9372C1271.05 24.3263 1271.27 24.6365 1271.56 24.8676C1271.85 25.0959 1272.21 25.21 1272.65 25.21ZM1280.46 26.1404C1279.81 26.1404 1279.25 25.9971 1278.78 25.7103C1278.31 25.4207 1277.95 25.0169 1277.7 24.499C1277.45 23.9781 1277.32 23.3725 1277.32 22.6819C1277.32 21.9914 1277.45 21.3828 1277.7 20.8561C1277.95 20.3265 1278.31 19.9139 1278.76 19.6184C1279.22 19.32 1279.75 19.1707 1280.36 19.1707C1280.71 19.1707 1281.06 19.2293 1281.4 19.3463C1281.74 19.4633 1282.05 19.6535 1282.33 19.9169C1282.61 20.1773 1282.84 20.5225 1283.01 20.9527C1283.17 21.3828 1283.26 21.9124 1283.26 22.5415V22.9804H1278.06V22.085H1282.2C1282.2 21.7046 1282.13 21.3652 1281.97 21.0668C1281.82 20.7683 1281.61 20.5328 1281.33 20.3602C1281.06 20.1875 1280.73 20.1012 1280.36 20.1012C1279.95 20.1012 1279.59 20.2036 1279.29 20.4084C1278.99 20.6103 1278.76 20.8737 1278.6 21.1985C1278.44 21.5232 1278.36 21.8714 1278.36 22.243V22.8399C1278.36 23.3491 1278.45 23.7806 1278.62 24.1347C1278.8 24.4858 1279.05 24.7535 1279.36 24.9379C1279.68 25.1193 1280.05 25.21 1280.46 25.21C1280.74 25.21 1280.98 25.1719 1281.2 25.0959C1281.42 25.0169 1281.62 24.8998 1281.78 24.7448C1281.94 24.5867 1282.06 24.3907 1282.15 24.1566L1283.15 24.4375C1283.04 24.7769 1282.87 25.0754 1282.62 25.3329C1282.37 25.5874 1282.06 25.7864 1281.7 25.9298C1281.33 26.0702 1280.92 26.1404 1280.46 26.1404Z" fill="white"/>
<g id="Group_2">
<path id="Vector_9" d="M1275.4 32.5391H1236.26C1230.01 32.5391 1224.93 37.6114 1224.93 43.8685C1224.93 50.1256 1230.01 55.1979 1236.26 55.1979H1275.4C1281.66 55.1979 1286.73 50.1256 1286.73 43.8685C1286.73 37.6114 1281.66 32.5391 1275.4 32.5391Z" fill="#4B5563"/>
<path id="Vector_10" d="M1274.37 53.1382C1279.49 53.1382 1283.64 48.9881 1283.64 43.8687C1283.64 38.7492 1279.49 34.5991 1274.37 34.5991C1269.25 34.5991 1265.1 38.7492 1265.1 43.8687C1265.1 48.9881 1269.25 53.1382 1274.37 53.1382Z" fill="white"/>
</g>
<path id="Dashboard_3" d="M213.846 135.115H206.412V114.141H213.908C216.018 114.141 217.834 114.561 219.356 115.401C220.879 116.234 222.049 117.432 222.869 118.995C223.695 120.559 224.108 122.429 224.108 124.607C224.108 126.792 223.695 128.67 222.869 130.24C222.049 131.81 220.872 133.015 219.336 133.855C217.806 134.695 215.977 135.115 213.846 135.115ZM210.846 131.315H213.662C214.973 131.315 216.076 131.083 216.97 130.619C217.871 130.148 218.547 129.421 218.998 128.437C219.455 127.447 219.684 126.171 219.684 124.607C219.684 123.057 219.455 121.791 218.998 120.808C218.547 119.825 217.875 119.101 216.98 118.637C216.086 118.173 214.983 117.94 213.672 117.94H210.846V131.315ZM231.796 135.411C230.793 135.411 229.898 135.237 229.113 134.889C228.328 134.534 227.707 134.012 227.249 133.322C226.799 132.626 226.573 131.759 226.573 130.721C226.573 129.847 226.734 129.113 227.055 128.519C227.376 127.925 227.813 127.447 228.366 127.086C228.919 126.724 229.547 126.451 230.25 126.266C230.96 126.082 231.704 125.952 232.482 125.877C233.397 125.782 234.135 125.693 234.694 125.611C235.254 125.522 235.661 125.392 235.913 125.222C236.166 125.051 236.292 124.798 236.292 124.464V124.402C236.292 123.754 236.087 123.252 235.678 122.897C235.275 122.542 234.701 122.365 233.957 122.365C233.172 122.365 232.547 122.539 232.083 122.887C231.619 123.228 231.312 123.658 231.161 124.177L227.126 123.849C227.331 122.894 227.734 122.068 228.335 121.371C228.936 120.668 229.711 120.129 230.66 119.753C231.615 119.371 232.721 119.18 233.978 119.18C234.852 119.18 235.688 119.282 236.487 119.487C237.292 119.692 238.006 120.009 238.627 120.439C239.255 120.869 239.75 121.422 240.112 122.098C240.474 122.767 240.655 123.57 240.655 124.505V135.115H236.517V132.933H236.394C236.142 133.425 235.804 133.858 235.381 134.234C234.957 134.602 234.449 134.893 233.855 135.104C233.261 135.309 232.575 135.411 231.796 135.411ZM233.046 132.401C233.687 132.401 234.254 132.274 234.746 132.022C235.237 131.762 235.623 131.414 235.903 130.977C236.183 130.54 236.323 130.045 236.323 129.492V127.823C236.186 127.912 235.998 127.994 235.76 128.069C235.527 128.137 235.265 128.202 234.971 128.263C234.677 128.318 234.384 128.369 234.09 128.417C233.797 128.458 233.53 128.495 233.291 128.53C232.779 128.605 232.332 128.724 231.95 128.888C231.568 129.052 231.271 129.274 231.059 129.554C230.847 129.827 230.741 130.168 230.741 130.578C230.741 131.172 230.957 131.626 231.387 131.94C231.824 132.247 232.377 132.401 233.046 132.401ZM257.127 123.87L253.133 124.116C253.065 123.774 252.918 123.467 252.693 123.194C252.468 122.914 252.171 122.692 251.802 122.528C251.44 122.358 251.007 122.272 250.501 122.272C249.825 122.272 249.255 122.416 248.791 122.702C248.327 122.982 248.095 123.358 248.095 123.829C248.095 124.204 248.245 124.522 248.545 124.781C248.846 125.041 249.361 125.249 250.092 125.406L252.939 125.98C254.468 126.294 255.608 126.799 256.359 127.495C257.11 128.192 257.486 129.106 257.486 130.24C257.486 131.271 257.182 132.175 256.574 132.954C255.973 133.732 255.147 134.34 254.096 134.777C253.051 135.207 251.846 135.422 250.481 135.422C248.399 135.422 246.74 134.988 245.504 134.121C244.275 133.247 243.555 132.059 243.343 130.557L247.634 130.332C247.764 130.967 248.078 131.452 248.576 131.786C249.074 132.114 249.713 132.278 250.491 132.278C251.256 132.278 251.87 132.131 252.335 131.837C252.806 131.537 253.045 131.151 253.051 130.68C253.045 130.284 252.877 129.96 252.55 129.707C252.222 129.448 251.717 129.25 251.034 129.113L248.31 128.571C246.774 128.263 245.63 127.731 244.879 126.973C244.135 126.215 243.763 125.249 243.763 124.075C243.763 123.064 244.036 122.194 244.582 121.463C245.135 120.733 245.91 120.17 246.907 119.774C247.91 119.378 249.085 119.18 250.43 119.18C252.416 119.18 253.98 119.599 255.12 120.439C256.267 121.279 256.936 122.423 257.127 123.87ZM264.596 126.021V135.115H260.233V114.141H264.473V122.16H264.657C265.012 121.231 265.585 120.504 266.377 119.978C267.169 119.446 268.163 119.18 269.358 119.18C270.45 119.18 271.402 119.419 272.215 119.896C273.034 120.368 273.669 121.047 274.12 121.934C274.577 122.815 274.802 123.87 274.796 125.099V135.115H270.433V125.877C270.44 124.908 270.194 124.153 269.696 123.614C269.204 123.075 268.514 122.805 267.627 122.805C267.033 122.805 266.507 122.931 266.05 123.184C265.599 123.436 265.244 123.805 264.985 124.29C264.732 124.768 264.602 125.345 264.596 126.021ZM278.311 135.115V114.141H282.673V122.027H282.807C282.998 121.603 283.274 121.173 283.636 120.736C284.005 120.292 284.483 119.924 285.07 119.63C285.664 119.33 286.401 119.18 287.282 119.18C288.429 119.18 289.487 119.48 290.457 120.081C291.426 120.675 292.201 121.573 292.781 122.774C293.362 123.969 293.652 125.468 293.652 127.27C293.652 129.025 293.368 130.506 292.802 131.715C292.242 132.916 291.477 133.828 290.508 134.449C289.545 135.063 288.466 135.371 287.272 135.371C286.425 135.371 285.705 135.231 285.111 134.951C284.524 134.671 284.042 134.319 283.667 133.896C283.291 133.466 283.005 133.032 282.807 132.595H282.612V135.115H278.311ZM282.581 127.249C282.581 128.185 282.711 129.001 282.97 129.697C283.23 130.393 283.605 130.936 284.097 131.325C284.588 131.708 285.186 131.899 285.889 131.899C286.599 131.899 287.2 131.704 287.691 131.315C288.183 130.919 288.555 130.373 288.808 129.677C289.067 128.973 289.197 128.164 289.197 127.249C289.197 126.341 289.071 125.543 288.818 124.853C288.565 124.164 288.193 123.624 287.702 123.235C287.21 122.846 286.606 122.651 285.889 122.651C285.179 122.651 284.578 122.839 284.087 123.215C283.602 123.59 283.23 124.123 282.97 124.812C282.711 125.502 282.581 126.314 282.581 127.249ZM303.67 135.422C302.079 135.422 300.703 135.084 299.543 134.408C298.389 133.725 297.498 132.776 296.87 131.561C296.242 130.339 295.928 128.922 295.928 127.311C295.928 125.686 296.242 124.266 296.87 123.051C297.498 121.829 298.389 120.88 299.543 120.204C300.703 119.521 302.079 119.18 303.67 119.18C305.261 119.18 306.633 119.521 307.787 120.204C308.947 120.88 309.842 121.829 310.47 123.051C311.098 124.266 311.412 125.686 311.412 127.311C311.412 128.922 311.098 130.339 310.47 131.561C309.842 132.776 308.947 133.725 307.787 134.408C306.633 135.084 305.261 135.422 303.67 135.422ZM303.69 132.042C304.414 132.042 305.018 131.837 305.503 131.428C305.988 131.011 306.353 130.445 306.599 129.728C306.851 129.011 306.978 128.195 306.978 127.28C306.978 126.365 306.851 125.549 306.599 124.833C306.353 124.116 305.988 123.549 305.503 123.133C305.018 122.716 304.414 122.508 303.69 122.508C302.96 122.508 302.345 122.716 301.847 123.133C301.355 123.549 300.983 124.116 300.731 124.833C300.485 125.549 300.362 126.365 300.362 127.28C300.362 128.195 300.485 129.011 300.731 129.728C300.983 130.445 301.355 131.011 301.847 131.428C302.345 131.837 302.96 132.042 303.69 132.042ZM318.734 135.411C317.731 135.411 316.836 135.237 316.051 134.889C315.266 134.534 314.645 134.012 314.187 133.322C313.737 132.626 313.511 131.759 313.511 130.721C313.511 129.847 313.672 129.113 313.993 128.519C314.314 127.925 314.751 127.447 315.304 127.086C315.857 126.724 316.485 126.451 317.188 126.266C317.898 126.082 318.642 125.952 319.42 125.877C320.335 125.782 321.073 125.693 321.633 125.611C322.192 125.522 322.599 125.392 322.851 125.222C323.104 125.051 323.23 124.798 323.23 124.464V124.402C323.23 123.754 323.025 123.252 322.616 122.897C322.213 122.542 321.639 122.365 320.895 122.365C320.11 122.365 319.485 122.539 319.021 122.887C318.557 123.228 318.25 123.658 318.099 124.177L314.064 123.849C314.269 122.894 314.672 122.068 315.273 121.371C315.874 120.668 316.649 120.129 317.598 119.753C318.553 119.371 319.659 119.18 320.916 119.18C321.79 119.18 322.626 119.282 323.425 119.487C324.23 119.692 324.944 120.009 325.565 120.439C326.193 120.869 326.688 121.422 327.05 122.098C327.412 122.767 327.593 123.57 327.593 124.505V135.115H323.455V132.933H323.333C323.08 133.425 322.742 133.858 322.319 134.234C321.895 134.602 321.387 134.893 320.793 135.104C320.199 135.309 319.513 135.411 318.734 135.411ZM319.984 132.401C320.626 132.401 321.192 132.274 321.684 132.022C322.175 131.762 322.561 131.414 322.841 130.977C323.121 130.54 323.261 130.045 323.261 129.492V127.823C323.124 127.912 322.937 127.994 322.698 128.069C322.465 128.137 322.203 128.202 321.909 128.263C321.615 128.318 321.322 128.369 321.028 128.417C320.735 128.458 320.468 128.495 320.23 128.53C319.717 128.605 319.27 128.724 318.888 128.888C318.506 129.052 318.209 129.274 317.997 129.554C317.785 129.827 317.68 130.168 317.68 130.578C317.68 131.172 317.895 131.626 318.325 131.94C318.762 132.247 319.315 132.401 319.984 132.401ZM330.977 135.115V119.384H335.207V122.129H335.371C335.658 121.153 336.139 120.415 336.815 119.917C337.491 119.412 338.269 119.159 339.15 119.159C339.368 119.159 339.604 119.173 339.856 119.2C340.109 119.227 340.331 119.265 340.522 119.313V123.184C340.317 123.122 340.034 123.068 339.672 123.02C339.31 122.972 338.979 122.948 338.679 122.948C338.037 122.948 337.463 123.088 336.958 123.368C336.46 123.641 336.064 124.024 335.77 124.515C335.483 125.007 335.34 125.573 335.34 126.215V135.115H330.977ZM347.842 135.371C346.647 135.371 345.565 135.063 344.595 134.449C343.633 133.828 342.868 132.916 342.301 131.715C341.742 130.506 341.462 129.025 341.462 127.27C341.462 125.468 341.752 123.969 342.332 122.774C342.912 121.573 343.684 120.675 344.647 120.081C345.616 119.48 346.678 119.18 347.831 119.18C348.712 119.18 349.446 119.33 350.033 119.63C350.627 119.924 351.105 120.292 351.467 120.736C351.836 121.173 352.116 121.603 352.307 122.027H352.44V114.141H356.792V135.115H352.491V132.595H352.307C352.102 133.032 351.812 133.466 351.436 133.896C351.068 134.319 350.586 134.671 349.992 134.951C349.405 135.231 348.688 135.371 347.842 135.371ZM349.224 131.899C349.927 131.899 350.521 131.708 351.006 131.325C351.498 130.936 351.873 130.393 352.133 129.697C352.399 129.001 352.532 128.185 352.532 127.249C352.532 126.314 352.402 125.502 352.143 124.812C351.883 124.123 351.508 123.59 351.016 123.215C350.525 122.839 349.927 122.651 349.224 122.651C348.507 122.651 347.903 122.846 347.412 123.235C346.92 123.624 346.548 124.164 346.295 124.853C346.043 125.543 345.916 126.341 345.916 127.249C345.916 128.164 346.043 128.973 346.295 129.677C346.555 130.373 346.927 130.919 347.412 131.315C347.903 131.704 348.507 131.899 349.224 131.899Z" fill="#111827"/>
<path id="Vector_11" d="M1104.76 175.091H210.768C207.355 175.091 204.589 177.858 204.589 181.271V539.693C204.589 543.106 207.355 545.872 210.768 545.872H1104.76C1108.18 545.872 1110.94 543.106 1110.94 539.693V181.271C1110.94 177.858 1108.18 175.091 1104.76 175.091Z" fill="white" stroke="#E5E7EB" stroke-width="1.02995"/>
<path id="Course overview" d="M248.555 206.987H245.672C245.619 206.614 245.511 206.283 245.349 205.993C245.187 205.699 244.978 205.449 244.724 205.243C244.469 205.036 244.175 204.878 243.841 204.769C243.512 204.659 243.155 204.604 242.768 204.604C242.071 204.604 241.463 204.778 240.945 205.124C240.427 205.467 240.025 205.967 239.74 206.625C239.455 207.279 239.312 208.074 239.312 209.009C239.312 209.97 239.455 210.777 239.74 211.431C240.03 212.085 240.433 212.579 240.951 212.913C241.469 213.246 242.068 213.413 242.749 213.413C243.13 213.413 243.484 213.362 243.809 213.261C244.138 213.161 244.43 213.013 244.684 212.82C244.939 212.623 245.149 212.384 245.316 212.103C245.487 211.822 245.606 211.501 245.672 211.142L248.555 211.155C248.481 211.774 248.294 212.37 247.996 212.945C247.702 213.516 247.304 214.027 246.804 214.479C246.308 214.927 245.716 215.283 245.027 215.546C244.342 215.805 243.567 215.934 242.703 215.934C241.5 215.934 240.425 215.662 239.477 215.118C238.533 214.574 237.787 213.786 237.238 212.755C236.694 211.723 236.422 210.474 236.422 209.009C236.422 207.538 236.698 206.287 237.251 205.256C237.804 204.225 238.555 203.439 239.503 202.899C240.451 202.355 241.518 202.083 242.703 202.083C243.484 202.083 244.208 202.192 244.875 202.412C245.547 202.631 246.141 202.952 246.659 203.373C247.177 203.79 247.598 204.301 247.923 204.907C248.252 205.513 248.463 206.206 248.555 206.987ZM255.116 215.948C254.093 215.948 253.209 215.73 252.463 215.296C251.721 214.857 251.148 214.247 250.744 213.466C250.34 212.68 250.139 211.769 250.139 210.733C250.139 209.689 250.34 208.776 250.744 207.995C251.148 207.209 251.721 206.599 252.463 206.164C253.209 205.726 254.093 205.506 255.116 205.506C256.138 205.506 257.021 205.726 257.762 206.164C258.508 206.599 259.083 207.209 259.487 207.995C259.891 208.776 260.093 209.689 260.093 210.733C260.093 211.769 259.891 212.68 259.487 213.466C259.083 214.247 258.508 214.857 257.762 215.296C257.021 215.73 256.138 215.948 255.116 215.948ZM255.129 213.775C255.594 213.775 255.983 213.643 256.294 213.38C256.606 213.112 256.841 212.748 256.999 212.287C257.161 211.826 257.242 211.302 257.242 210.714C257.242 210.126 257.161 209.601 256.999 209.14C256.841 208.679 256.606 208.315 256.294 208.047C255.983 207.78 255.594 207.646 255.129 207.646C254.659 207.646 254.264 207.78 253.944 208.047C253.628 208.315 253.389 208.679 253.226 209.14C253.068 209.601 252.989 210.126 252.989 210.714C252.989 211.302 253.068 211.826 253.226 212.287C253.389 212.748 253.628 213.112 253.944 213.38C254.264 213.643 254.659 213.775 255.129 213.775ZM268.401 211.444V205.638H271.206V215.75H268.513V213.913H268.408C268.179 214.506 267.8 214.982 267.269 215.342C266.742 215.702 266.099 215.882 265.34 215.882C264.664 215.882 264.069 215.728 263.556 215.421C263.042 215.114 262.641 214.677 262.351 214.111C262.066 213.545 261.921 212.866 261.916 212.076V205.638H264.721V211.576C264.725 212.173 264.886 212.645 265.202 212.992C265.518 213.338 265.941 213.512 266.472 213.512C266.81 213.512 267.126 213.435 267.42 213.281C267.714 213.123 267.951 212.891 268.131 212.583C268.316 212.276 268.406 211.896 268.401 211.444ZM273.449 215.75V205.638H276.168V207.402H276.273C276.458 206.775 276.767 206.301 277.202 205.98C277.636 205.655 278.136 205.493 278.703 205.493C278.843 205.493 278.994 205.502 279.157 205.519C279.319 205.537 279.462 205.561 279.585 205.592V208.08C279.453 208.041 279.271 208.006 279.038 207.975C278.806 207.944 278.593 207.929 278.4 207.929C277.987 207.929 277.619 208.019 277.294 208.199C276.973 208.374 276.719 208.62 276.53 208.936C276.346 209.252 276.254 209.616 276.254 210.029V215.75H273.449ZM289.449 208.521L286.881 208.679C286.837 208.46 286.743 208.262 286.598 208.087C286.453 207.907 286.262 207.764 286.025 207.659C285.792 207.549 285.514 207.494 285.189 207.494C284.754 207.494 284.388 207.586 284.09 207.771C283.791 207.951 283.642 208.192 283.642 208.495C283.642 208.736 283.738 208.94 283.932 209.107C284.125 209.274 284.456 209.408 284.926 209.509L286.756 209.878C287.739 210.079 288.472 210.404 288.955 210.852C289.438 211.3 289.679 211.888 289.679 212.616C289.679 213.279 289.484 213.861 289.093 214.361C288.707 214.861 288.176 215.252 287.5 215.533C286.828 215.809 286.054 215.948 285.176 215.948C283.837 215.948 282.771 215.669 281.976 215.111C281.186 214.55 280.723 213.786 280.587 212.82L283.346 212.676C283.429 213.084 283.631 213.395 283.951 213.61C284.272 213.821 284.682 213.926 285.182 213.926C285.674 213.926 286.069 213.832 286.367 213.643C286.67 213.45 286.824 213.202 286.828 212.899C286.824 212.645 286.716 212.436 286.506 212.274C286.295 212.107 285.97 211.98 285.531 211.892L283.78 211.543C282.793 211.346 282.057 211.003 281.575 210.516C281.096 210.029 280.857 209.408 280.857 208.653C280.857 208.003 281.033 207.444 281.384 206.974C281.739 206.505 282.237 206.143 282.878 205.888C283.523 205.633 284.278 205.506 285.143 205.506C286.42 205.506 287.425 205.776 288.158 206.316C288.895 206.856 289.326 207.591 289.449 208.521ZM296.053 215.948C295.013 215.948 294.118 215.737 293.367 215.315C292.621 214.89 292.046 214.288 291.642 213.512C291.239 212.73 291.037 211.806 291.037 210.74C291.037 209.7 291.239 208.787 291.642 208.001C292.046 207.216 292.615 206.603 293.348 206.164C294.085 205.726 294.95 205.506 295.941 205.506C296.609 205.506 297.23 205.614 297.805 205.829C298.384 206.039 298.889 206.358 299.319 206.783C299.753 207.209 300.091 207.744 300.333 208.39C300.574 209.03 300.695 209.781 300.695 210.641V211.411H292.156V209.673H298.055C298.055 209.27 297.967 208.912 297.791 208.6C297.616 208.289 297.372 208.045 297.061 207.87C296.753 207.69 296.396 207.6 295.988 207.6C295.562 207.6 295.184 207.698 294.855 207.896C294.53 208.089 294.276 208.35 294.091 208.679C293.907 209.004 293.813 209.366 293.808 209.766V211.418C293.808 211.918 293.901 212.351 294.085 212.715C294.274 213.079 294.539 213.36 294.882 213.558C295.224 213.755 295.63 213.854 296.099 213.854C296.411 213.854 296.696 213.81 296.955 213.722C297.214 213.635 297.436 213.503 297.62 213.327C297.805 213.152 297.945 212.937 298.042 212.682L300.635 212.853C300.504 213.477 300.234 214.021 299.826 214.486C299.422 214.947 298.9 215.307 298.259 215.566C297.622 215.82 296.887 215.948 296.053 215.948ZM311.385 215.948C310.362 215.948 309.478 215.73 308.731 215.296C307.99 214.857 307.417 214.247 307.013 213.466C306.609 212.68 306.408 211.769 306.408 210.733C306.408 209.689 306.609 208.776 307.013 207.995C307.417 207.209 307.99 206.599 308.731 206.164C309.478 205.726 310.362 205.506 311.385 205.506C312.407 205.506 313.289 205.726 314.031 206.164C314.777 206.599 315.352 207.209 315.756 207.995C316.16 208.776 316.362 209.689 316.362 210.733C316.362 211.769 316.16 212.68 315.756 213.466C315.352 214.247 314.777 214.857 314.031 215.296C313.289 215.73 312.407 215.948 311.385 215.948ZM311.398 213.775C311.863 213.775 312.251 213.643 312.563 213.38C312.875 213.112 313.11 212.748 313.268 212.287C313.43 211.826 313.511 211.302 313.511 210.714C313.511 210.126 313.43 209.601 313.268 209.14C313.11 208.679 312.875 208.315 312.563 208.047C312.251 207.78 311.863 207.646 311.398 207.646C310.928 207.646 310.533 207.78 310.213 208.047C309.897 208.315 309.658 208.679 309.495 209.14C309.337 209.601 309.258 210.126 309.258 210.714C309.258 211.302 309.337 211.826 309.495 212.287C309.658 212.748 309.897 213.112 310.213 213.38C310.533 213.643 310.928 213.775 311.398 213.775ZM327.287 205.638L323.752 215.75H320.592L317.056 205.638H320.019L322.119 212.873H322.224L324.318 205.638H327.287ZM333.005 215.948C331.965 215.948 331.069 215.737 330.319 215.315C329.573 214.89 328.998 214.288 328.594 213.512C328.19 212.73 327.988 211.806 327.988 210.74C327.988 209.7 328.19 208.787 328.594 208.001C328.998 207.216 329.566 206.603 330.299 206.164C331.036 205.726 331.901 205.506 332.893 205.506C333.56 205.506 334.181 205.614 334.756 205.829C335.335 206.039 335.84 206.358 336.27 206.783C336.705 207.209 337.043 207.744 337.284 208.39C337.525 209.03 337.646 209.781 337.646 210.641V211.411H329.107V209.673H335.006C335.006 209.27 334.918 208.912 334.743 208.6C334.567 208.289 334.324 208.045 334.012 207.87C333.705 207.69 333.347 207.6 332.939 207.6C332.513 207.6 332.136 207.698 331.807 207.896C331.482 208.089 331.227 208.35 331.043 208.679C330.859 209.004 330.764 209.366 330.76 209.766V211.418C330.76 211.918 330.852 212.351 331.036 212.715C331.225 213.079 331.491 213.36 331.833 213.558C332.175 213.755 332.581 213.854 333.051 213.854C333.362 213.854 333.648 213.81 333.907 213.722C334.166 213.635 334.387 213.503 334.572 213.327C334.756 213.152 334.896 212.937 334.993 212.682L337.587 212.853C337.455 213.477 337.185 214.021 336.777 214.486C336.373 214.947 335.851 215.307 335.21 215.566C334.574 215.82 333.839 215.948 333.005 215.948ZM339.476 215.75V205.638H342.195V207.402H342.301C342.485 206.775 342.794 206.301 343.229 205.98C343.663 205.655 344.164 205.493 344.73 205.493C344.87 205.493 345.022 205.502 345.184 205.519C345.347 205.537 345.489 205.561 345.612 205.592V208.08C345.48 208.041 345.298 208.006 345.066 207.975C344.833 207.944 344.62 207.929 344.427 207.929C344.015 207.929 343.646 208.019 343.321 208.199C343.001 208.374 342.746 208.62 342.557 208.936C342.373 209.252 342.281 209.616 342.281 210.029V215.75H339.476ZM356.797 205.638L353.262 215.75H350.102L346.567 205.638H349.529L351.629 212.873H351.735L353.828 205.638H356.797ZM358.233 215.75V205.638H361.037V215.75H358.233ZM359.642 204.334C359.225 204.334 358.867 204.196 358.568 203.919C358.274 203.639 358.127 203.303 358.127 202.912C358.127 202.526 358.274 202.195 358.568 201.918C358.867 201.637 359.225 201.497 359.642 201.497C360.058 201.497 360.414 201.637 360.708 201.918C361.006 202.195 361.156 202.526 361.156 202.912C361.156 203.303 361.006 203.639 360.708 203.919C360.414 204.196 360.058 204.334 359.642 204.334ZM367.892 215.948C366.852 215.948 365.957 215.737 365.206 215.315C364.46 214.89 363.885 214.288 363.481 213.512C363.078 212.73 362.876 211.806 362.876 210.74C362.876 209.7 363.078 208.787 363.481 208.001C363.885 207.216 364.453 206.603 365.186 206.164C365.924 205.726 366.788 205.506 367.78 205.506C368.447 205.506 369.068 205.614 369.643 205.829C370.223 206.039 370.728 206.358 371.158 206.783C371.592 207.209 371.93 207.744 372.172 208.39C372.413 209.03 372.534 209.781 372.534 210.641V211.411H363.995V209.673H369.894C369.894 209.27 369.806 208.912 369.63 208.6C369.455 208.289 369.211 208.045 368.9 207.87C368.592 207.69 368.235 207.6 367.826 207.6C367.401 207.6 367.023 207.698 366.694 207.896C366.369 208.089 366.115 208.35 365.93 208.679C365.746 209.004 365.652 209.366 365.647 209.766V211.418C365.647 211.918 365.739 212.351 365.924 212.715C366.113 213.079 366.378 213.36 366.72 213.558C367.063 213.755 367.469 213.854 367.938 213.854C368.25 213.854 368.535 213.81 368.794 213.722C369.053 213.635 369.275 213.503 369.459 213.327C369.643 213.152 369.784 212.937 369.88 212.682L372.474 212.853C372.343 213.477 372.073 214.021 371.665 214.486C371.261 214.947 370.738 215.307 370.098 215.566C369.461 215.82 368.726 215.948 367.892 215.948ZM376.286 215.75L373.534 205.638H376.372L377.939 212.432H378.031L379.663 205.638H382.448L384.107 212.392H384.193L385.733 205.638H388.564L385.819 215.75H382.85L381.112 209.39H380.987L379.249 215.75H376.286Z" fill="#111827"/>
<g id="Group_3">
<path id="Vector_12" d="M303.464 234.828H239.607C237.332 234.828 235.487 236.673 235.487 238.948V263.667C235.487 265.942 237.332 267.786 239.607 267.786H303.464C305.739 267.786 307.583 265.942 307.583 263.667V238.948C307.583 236.673 305.739 234.828 303.464 234.828Z" fill="#F9FAFB" stroke="#D1D5DB" stroke-width="1.02995"/>
<path id="All" d="M257.786 256.038H256.455L260.305 245.551H261.616L265.467 256.038H264.135L261.002 247.21H260.92L257.786 256.038ZM258.278 251.941H263.644V253.068H258.278V251.941ZM268.145 245.551V256.038H266.936V245.551H268.145ZM271.566 245.551V256.038H270.358V245.551H271.566Z" fill="#374151"/>
<path id="Vector_13" d="M289.044 248.218L294.194 253.367L289.044 258.517" stroke="#6B7280" stroke-width="1.44193" stroke-linecap="round" stroke-linejoin="round"/>
</g>
<g id="Group_4">
<path id="Vector_14" d="M542.411 234.828H324.062C321.787 234.828 319.943 236.673 319.943 238.948V263.667C319.943 265.942 321.787 267.786 324.062 267.786H542.411C544.687 267.786 546.531 265.942 546.531 263.667V238.948C546.531 236.673 544.687 234.828 542.411 234.828Z" fill="white" stroke="#D1D5DB" stroke-width="1.02995"/>
<path id="Search" d="M336.747 248.764C336.69 248.283 336.458 247.909 336.052 247.642C335.647 247.376 335.149 247.243 334.559 247.243C334.128 247.243 333.751 247.313 333.428 247.452C333.108 247.592 332.857 247.783 332.677 248.027C332.499 248.271 332.41 248.549 332.41 248.859C332.41 249.119 332.472 249.343 332.596 249.53C332.723 249.714 332.884 249.867 333.081 249.991C333.277 250.112 333.483 250.211 333.699 250.291C333.914 250.367 334.113 250.429 334.293 250.476L335.282 250.742C335.536 250.809 335.818 250.901 336.129 251.018C336.442 251.135 336.742 251.295 337.027 251.498C337.316 251.698 337.553 251.955 337.74 252.269C337.927 252.582 338.021 252.968 338.021 253.424C338.021 253.95 337.883 254.426 337.607 254.85C337.335 255.275 336.935 255.613 336.409 255.863C335.886 256.114 335.251 256.239 334.502 256.239C333.805 256.239 333.201 256.126 332.691 255.901C332.184 255.676 331.784 255.362 331.493 254.96C331.204 254.557 331.041 254.09 331.003 253.557H332.22C332.252 253.925 332.375 254.229 332.591 254.47C332.81 254.708 333.086 254.885 333.418 255.003C333.754 255.117 334.116 255.174 334.502 255.174C334.953 255.174 335.357 255.101 335.715 254.955C336.073 254.806 336.357 254.6 336.566 254.337C336.775 254.071 336.88 253.76 336.88 253.405C336.88 253.082 336.789 252.819 336.609 252.616C336.428 252.413 336.19 252.248 335.896 252.121C335.601 251.994 335.282 251.883 334.94 251.788L333.742 251.446C332.981 251.227 332.379 250.915 331.935 250.509C331.491 250.104 331.269 249.573 331.269 248.917C331.269 248.371 331.417 247.896 331.711 247.49C332.009 247.081 332.409 246.764 332.91 246.539C333.414 246.311 333.976 246.197 334.598 246.197C335.225 246.197 335.783 246.309 336.271 246.534C336.759 246.756 337.146 247.061 337.431 247.447C337.72 247.834 337.872 248.273 337.888 248.764H336.747ZM342.87 256.22C342.166 256.22 341.559 256.064 341.049 255.754C340.541 255.44 340.15 255.003 339.874 254.442C339.601 253.877 339.465 253.221 339.465 252.473C339.465 251.725 339.601 251.066 339.874 250.495C340.15 249.921 340.533 249.474 341.025 249.154C341.519 248.831 342.096 248.669 342.755 248.669C343.136 248.669 343.511 248.733 343.882 248.859C344.253 248.986 344.591 249.192 344.895 249.478C345.199 249.76 345.442 250.134 345.623 250.6C345.803 251.066 345.894 251.639 345.894 252.321V252.796H340.264V251.826H344.752C344.752 251.414 344.67 251.047 344.505 250.723C344.344 250.4 344.112 250.145 343.811 249.958C343.513 249.771 343.161 249.677 342.755 249.677C342.309 249.677 341.922 249.788 341.595 250.01C341.272 250.229 341.023 250.514 340.849 250.866C340.674 251.218 340.587 251.595 340.587 251.998V252.644C340.587 253.196 340.682 253.663 340.873 254.047C341.066 254.427 341.334 254.717 341.676 254.917C342.018 255.114 342.416 255.212 342.87 255.212C343.164 255.212 343.431 255.171 343.668 255.088C343.909 255.003 344.117 254.876 344.291 254.708C344.466 254.537 344.6 254.324 344.695 254.071L345.779 254.375C345.665 254.743 345.474 255.066 345.204 255.345C344.935 255.621 344.602 255.836 344.206 255.992C343.809 256.144 343.364 256.22 342.87 256.22ZM349.75 256.239C349.287 256.239 348.867 256.152 348.49 255.977C348.112 255.8 347.813 255.545 347.591 255.212C347.369 254.876 347.258 254.47 347.258 253.995C347.258 253.576 347.341 253.237 347.505 252.977C347.67 252.714 347.891 252.508 348.166 252.359C348.442 252.21 348.746 252.099 349.079 252.026C349.415 251.95 349.753 251.89 350.092 251.845C350.536 251.788 350.896 251.746 351.171 251.717C351.45 251.685 351.653 251.633 351.78 251.56C351.91 251.487 351.975 251.36 351.975 251.18V251.142C351.975 250.673 351.846 250.308 351.59 250.048C351.336 249.788 350.951 249.658 350.434 249.658C349.899 249.658 349.479 249.776 349.174 250.01C348.87 250.245 348.656 250.495 348.532 250.761L347.467 250.381C347.658 249.937 347.911 249.592 348.228 249.344C348.548 249.094 348.897 248.92 349.274 248.821C349.655 248.72 350.029 248.669 350.396 248.669C350.631 248.669 350.9 248.698 351.205 248.755C351.512 248.809 351.808 248.921 352.094 249.092C352.382 249.264 352.622 249.522 352.812 249.867C353.002 250.213 353.097 250.676 353.097 251.256V256.068H351.975V255.079H351.918C351.842 255.237 351.715 255.407 351.537 255.587C351.36 255.768 351.124 255.922 350.829 256.049C350.534 256.175 350.174 256.239 349.75 256.239ZM349.921 255.231C350.365 255.231 350.739 255.144 351.043 254.969C351.35 254.795 351.582 254.57 351.737 254.294C351.896 254.018 351.975 253.728 351.975 253.424V252.397C351.927 252.454 351.823 252.506 351.661 252.554C351.503 252.598 351.319 252.638 351.11 252.673C350.903 252.704 350.702 252.733 350.506 252.758C350.312 252.781 350.155 252.8 350.035 252.815C349.743 252.853 349.471 252.915 349.217 253.001C348.967 253.083 348.764 253.208 348.609 253.376C348.456 253.541 348.38 253.766 348.38 254.052C348.38 254.442 348.525 254.736 348.813 254.936C349.105 255.133 349.474 255.231 349.921 255.231ZM355.145 256.068V248.764H356.229V249.867H356.305C356.438 249.506 356.679 249.213 357.028 248.988C357.377 248.763 357.77 248.65 358.207 248.65C358.29 248.65 358.393 248.652 358.516 248.655C358.64 248.658 358.733 248.663 358.797 248.669V249.81C358.759 249.801 358.672 249.787 358.535 249.768C358.402 249.745 358.261 249.734 358.112 249.734C357.757 249.734 357.44 249.809 357.161 249.958C356.885 250.104 356.667 250.306 356.505 250.566C356.346 250.823 356.267 251.116 356.267 251.446V256.068H355.145ZM362.872 256.22C362.187 256.22 361.597 256.058 361.103 255.735C360.608 255.411 360.228 254.966 359.962 254.399C359.695 253.831 359.562 253.183 359.562 252.454C359.562 251.712 359.699 251.058 359.971 250.49C360.247 249.92 360.63 249.474 361.122 249.154C361.616 248.831 362.193 248.669 362.853 248.669C363.366 248.669 363.829 248.764 364.241 248.955C364.653 249.145 364.991 249.411 365.254 249.753C365.517 250.096 365.68 250.495 365.743 250.952H364.621C364.536 250.619 364.345 250.324 364.051 250.067C363.759 249.807 363.366 249.677 362.872 249.677C362.434 249.677 362.051 249.791 361.721 250.02C361.394 250.245 361.139 250.563 360.955 250.975C360.775 251.384 360.684 251.864 360.684 252.416C360.684 252.98 360.773 253.472 360.951 253.89C361.131 254.308 361.385 254.633 361.711 254.865C362.041 255.096 362.428 255.212 362.872 255.212C363.163 255.212 363.428 255.161 363.666 255.06C363.903 254.958 364.105 254.812 364.269 254.622C364.434 254.432 364.552 254.204 364.621 253.938H365.743C365.68 254.369 365.523 254.757 365.273 255.102C365.025 255.445 364.697 255.717 364.288 255.92C363.883 256.12 363.41 256.22 362.872 256.22ZM368.506 251.674V256.068H367.384V246.33H368.506V249.905H368.601C368.772 249.528 369.029 249.229 369.371 249.007C369.717 248.782 370.176 248.669 370.75 248.669C371.248 248.669 371.684 248.769 372.058 248.969C372.432 249.165 372.722 249.468 372.928 249.877C373.137 250.283 373.242 250.799 373.242 251.427V256.068H372.119V251.503C372.119 250.923 371.969 250.474 371.668 250.157C371.37 249.837 370.956 249.677 370.427 249.677C370.059 249.677 369.729 249.755 369.438 249.91C369.149 250.066 368.921 250.292 368.753 250.59C368.588 250.888 368.506 251.249 368.506 251.674Z" fill="#9CA3AF"/>
</g>
<g id="Group_5">
<path id="Vector_15" d="M731.922 234.828H565.07C562.795 234.828 560.95 236.673 560.95 238.948V263.667C560.95 265.942 562.795 267.786 565.07 267.786H731.922C734.197 267.786 736.042 265.942 736.042 263.667V238.948C736.042 236.673 734.197 234.828 731.922 234.828Z" fill="white" stroke="#D1D5DB" stroke-width="1.02995"/>
<path id="Sort by course name" d="M577.754 248.764C577.697 248.283 577.466 247.909 577.06 247.642C576.655 247.376 576.157 247.243 575.567 247.243C575.136 247.243 574.759 247.313 574.436 247.452C574.116 247.592 573.865 247.783 573.684 248.027C573.507 248.271 573.418 248.549 573.418 248.859C573.418 249.119 573.48 249.343 573.604 249.53C573.73 249.714 573.892 249.867 574.089 249.991C574.285 250.112 574.491 250.211 574.707 250.291C574.922 250.367 575.12 250.429 575.301 250.476L576.29 250.742C576.544 250.809 576.826 250.901 577.136 251.018C577.45 251.135 577.75 251.295 578.035 251.498C578.323 251.698 578.561 251.955 578.748 252.269C578.935 252.582 579.029 252.968 579.029 253.424C579.029 253.95 578.891 254.426 578.615 254.85C578.342 255.275 577.943 255.613 577.417 255.863C576.894 256.114 576.258 256.239 575.51 256.239C574.813 256.239 574.209 256.126 573.699 255.901C573.192 255.676 572.792 255.362 572.5 254.96C572.212 254.557 572.049 254.09 572.011 253.557H573.228C573.26 253.925 573.383 254.229 573.599 254.47C573.818 254.708 574.093 254.885 574.426 255.003C574.762 255.117 575.124 255.174 575.51 255.174C575.96 255.174 576.365 255.101 576.723 254.955C577.081 254.806 577.365 254.6 577.574 254.337C577.783 254.071 577.888 253.76 577.888 253.405C577.888 253.082 577.797 252.819 577.617 252.616C577.436 252.413 577.198 252.248 576.903 252.121C576.609 251.994 576.29 251.883 575.948 251.788L574.749 251.446C573.989 251.227 573.386 250.915 572.943 250.509C572.499 250.104 572.277 249.573 572.277 248.917C572.277 248.371 572.424 247.896 572.719 247.49C573.017 247.081 573.417 246.764 573.917 246.539C574.421 246.311 574.984 246.197 575.605 246.197C576.233 246.197 576.791 246.309 577.279 246.534C577.767 246.756 578.154 247.061 578.439 247.447C578.728 247.834 578.88 248.273 578.896 248.764H577.754ZM583.782 256.22C583.123 256.22 582.544 256.063 582.047 255.749C581.552 255.435 581.166 254.996 580.887 254.432C580.611 253.868 580.473 253.208 580.473 252.454C580.473 251.693 580.611 251.029 580.887 250.462C581.166 249.894 581.552 249.454 582.047 249.14C582.544 248.826 583.123 248.669 583.782 248.669C584.442 248.669 585.019 248.826 585.513 249.14C586.011 249.454 586.397 249.894 586.673 250.462C586.952 251.029 587.092 251.693 587.092 252.454C587.092 253.208 586.952 253.868 586.673 254.432C586.397 254.996 586.011 255.435 585.513 255.749C585.019 256.063 584.442 256.22 583.782 256.22ZM583.782 255.212C584.283 255.212 584.695 255.083 585.019 254.827C585.342 254.57 585.581 254.232 585.736 253.814C585.892 253.395 585.969 252.942 585.969 252.454C585.969 251.966 585.892 251.511 585.736 251.089C585.581 250.668 585.342 250.327 585.019 250.067C584.695 249.807 584.283 249.677 583.782 249.677C583.281 249.677 582.869 249.807 582.546 250.067C582.223 250.327 581.983 250.668 581.828 251.089C581.673 251.511 581.595 251.966 581.595 252.454C581.595 252.942 581.673 253.395 581.828 253.814C581.983 254.232 582.223 254.57 582.546 254.827C582.869 255.083 583.281 255.212 583.782 255.212ZM588.804 256.068V248.764H589.889V249.867H589.965C590.098 249.506 590.339 249.213 590.687 248.988C591.036 248.763 591.429 248.65 591.867 248.65C591.949 248.65 592.052 248.652 592.176 248.655C592.299 248.658 592.393 248.663 592.456 248.669V249.81C592.418 249.801 592.331 249.787 592.195 249.768C592.061 249.745 591.92 249.734 591.771 249.734C591.416 249.734 591.099 249.809 590.82 249.958C590.545 250.104 590.326 250.306 590.164 250.566C590.006 250.823 589.927 251.116 589.927 251.446V256.068H588.804ZM597.42 248.764V249.715H593.635V248.764H597.42ZM594.738 247.015H595.86V253.976C595.86 254.293 595.906 254.53 595.998 254.689C596.093 254.844 596.214 254.949 596.36 255.003C596.509 255.053 596.666 255.079 596.83 255.079C596.954 255.079 597.056 255.072 597.135 255.06C597.214 255.044 597.277 255.031 597.325 255.022L597.553 256.03C597.477 256.058 597.371 256.087 597.235 256.115C597.098 256.147 596.926 256.163 596.716 256.163C596.399 256.163 596.089 256.095 595.784 255.958C595.483 255.822 595.233 255.614 595.033 255.335C594.837 255.056 594.738 254.705 594.738 254.28V247.015ZM603.026 256.068V246.33H604.148V249.925H604.243C604.325 249.798 604.44 249.636 604.585 249.44C604.734 249.24 604.947 249.062 605.223 248.907C605.501 248.749 605.879 248.669 606.354 248.669C606.969 248.669 607.511 248.823 607.98 249.13C608.449 249.438 608.816 249.874 609.079 250.438C609.342 251.002 609.473 251.668 609.473 252.435C609.473 253.208 609.342 253.879 609.079 254.446C608.816 255.01 608.451 255.448 607.985 255.759C607.519 256.066 606.982 256.22 606.373 256.22C605.904 256.22 605.528 256.142 605.246 255.987C604.964 255.828 604.747 255.649 604.595 255.45C604.443 255.247 604.325 255.079 604.243 254.946H604.11V256.068H603.026ZM604.129 252.416C604.129 252.968 604.21 253.454 604.371 253.876C604.533 254.294 604.769 254.622 605.08 254.86C605.391 255.094 605.771 255.212 606.221 255.212C606.69 255.212 607.082 255.088 607.395 254.841C607.712 254.59 607.95 254.254 608.109 253.833C608.27 253.408 608.351 252.936 608.351 252.416C608.351 251.902 608.272 251.44 608.113 251.028C607.958 250.612 607.722 250.284 607.405 250.043C607.091 249.799 606.697 249.677 606.221 249.677C605.765 249.677 605.381 249.793 605.07 250.024C604.76 250.253 604.525 250.573 604.367 250.985C604.208 251.394 604.129 251.871 604.129 252.416ZM611.651 258.806C611.461 258.806 611.291 258.791 611.142 258.759C610.993 258.73 610.89 258.702 610.833 258.673L611.118 257.684C611.391 257.754 611.632 257.779 611.841 257.76C612.05 257.741 612.236 257.648 612.397 257.48C612.562 257.315 612.713 257.047 612.849 256.676L613.058 256.106L610.358 248.764H611.575L613.591 254.584H613.667L615.683 248.764H616.9L613.8 257.133C613.661 257.51 613.488 257.822 613.282 258.069C613.076 258.32 612.836 258.505 612.564 258.626C612.294 258.746 611.99 258.806 611.651 258.806ZM625.114 256.22C624.429 256.22 623.84 256.058 623.345 255.735C622.851 255.411 622.47 254.966 622.204 254.399C621.938 253.831 621.805 253.183 621.805 252.454C621.805 251.712 621.941 251.058 622.214 250.49C622.489 249.92 622.873 249.474 623.364 249.154C623.859 248.831 624.436 248.669 625.095 248.669C625.608 248.669 626.071 248.764 626.483 248.955C626.895 249.145 627.233 249.411 627.496 249.753C627.759 250.096 627.922 250.495 627.986 250.952H626.864C626.778 250.619 626.588 250.324 626.293 250.067C626.002 249.807 625.608 249.677 625.114 249.677C624.677 249.677 624.293 249.791 623.963 250.02C623.637 250.245 623.382 250.563 623.198 250.975C623.017 251.384 622.927 251.864 622.927 252.416C622.927 252.98 623.016 253.472 623.193 253.89C623.374 254.308 623.627 254.633 623.954 254.865C624.283 255.096 624.67 255.212 625.114 255.212C625.406 255.212 625.67 255.161 625.908 255.06C626.146 254.958 626.347 254.812 626.512 254.622C626.677 254.432 626.794 254.204 626.864 253.938H627.986C627.922 254.369 627.766 254.757 627.515 255.102C627.268 255.445 626.94 255.717 626.531 255.92C626.125 256.12 625.653 256.22 625.114 256.22ZM632.593 256.22C631.934 256.22 631.355 256.063 630.858 255.749C630.363 255.435 629.976 254.996 629.698 254.432C629.422 253.868 629.284 253.208 629.284 252.454C629.284 251.693 629.422 251.029 629.698 250.462C629.976 249.894 630.363 249.454 630.858 249.14C631.355 248.826 631.934 248.669 632.593 248.669C633.252 248.669 633.829 248.826 634.324 249.14C634.822 249.454 635.208 249.894 635.484 250.462C635.763 251.029 635.902 251.693 635.902 252.454C635.902 253.208 635.763 253.868 635.484 254.432C635.208 254.996 634.822 255.435 634.324 255.749C633.829 256.063 633.252 256.22 632.593 256.22ZM632.593 255.212C633.094 255.212 633.506 255.083 633.829 254.827C634.153 254.57 634.392 254.232 634.547 253.814C634.703 253.395 634.78 252.942 634.78 252.454C634.78 251.966 634.703 251.511 634.547 251.089C634.392 250.668 634.153 250.327 633.829 250.067C633.506 249.807 633.094 249.677 632.593 249.677C632.092 249.677 631.68 249.807 631.357 250.067C631.034 250.327 630.794 250.668 630.639 251.089C630.484 251.511 630.406 251.966 630.406 252.454C630.406 252.942 630.484 253.395 630.639 253.814C630.794 254.232 631.034 254.57 631.357 254.827C631.68 255.083 632.092 255.212 632.593 255.212ZM642.218 253.082V248.764H643.34V256.068H642.218V254.831H642.142C641.971 255.202 641.704 255.518 641.343 255.778C640.982 256.034 640.525 256.163 639.974 256.163C639.517 256.163 639.112 256.063 638.756 255.863C638.401 255.66 638.123 255.356 637.92 254.95C637.717 254.541 637.615 254.026 637.615 253.405V248.764H638.737V253.329C638.737 253.861 638.886 254.286 639.184 254.603C639.486 254.92 639.869 255.079 640.335 255.079C640.614 255.079 640.898 255.007 641.186 254.865C641.478 254.722 641.722 254.503 641.918 254.209C642.118 253.914 642.218 253.538 642.218 253.082ZM645.395 256.068V248.764H646.479V249.867H646.555C646.689 249.506 646.929 249.213 647.278 248.988C647.627 248.763 648.02 248.65 648.457 248.65C648.54 248.65 648.643 248.652 648.766 248.655C648.89 248.658 648.984 248.663 649.047 248.669V249.81C649.009 249.801 648.922 249.787 648.785 249.768C648.652 249.745 648.511 249.734 648.362 249.734C648.007 249.734 647.69 249.809 647.411 249.958C647.136 250.104 646.917 250.306 646.755 250.566C646.597 250.823 646.517 251.116 646.517 251.446V256.068H645.395ZM655.55 250.4L654.542 250.685C654.479 250.517 654.385 250.354 654.262 250.196C654.141 250.034 653.976 249.901 653.767 249.796C653.558 249.692 653.29 249.639 652.964 249.639C652.517 249.639 652.144 249.742 651.846 249.948C651.551 250.151 651.404 250.409 651.404 250.723C651.404 251.002 651.505 251.223 651.708 251.384C651.911 251.546 652.228 251.681 652.659 251.788L653.743 252.055C654.396 252.213 654.883 252.456 655.203 252.782C655.523 253.105 655.683 253.522 655.683 254.033C655.683 254.451 655.563 254.825 655.322 255.155C655.084 255.484 654.751 255.744 654.323 255.934C653.896 256.125 653.398 256.22 652.83 256.22C652.086 256.22 651.469 256.058 650.981 255.735C650.493 255.411 650.184 254.939 650.054 254.318L651.119 254.052C651.22 254.445 651.412 254.739 651.694 254.936C651.979 255.133 652.352 255.231 652.811 255.231C653.334 255.231 653.75 255.12 654.057 254.898C654.368 254.673 654.523 254.403 654.523 254.09C654.523 253.836 654.434 253.624 654.257 253.453C654.079 253.278 653.807 253.148 653.439 253.063L652.222 252.777C651.553 252.619 651.062 252.373 650.748 252.04C650.437 251.704 650.282 251.284 650.282 250.78C650.282 250.368 650.398 250.004 650.629 249.687C650.864 249.37 651.182 249.121 651.585 248.94C651.99 248.76 652.45 248.669 652.964 248.669C653.686 248.669 654.254 248.828 654.666 249.145C655.081 249.462 655.376 249.88 655.55 250.4ZM660.434 256.22C659.731 256.22 659.124 256.064 658.613 255.754C658.106 255.44 657.715 255.003 657.439 254.442C657.166 253.877 657.03 253.221 657.03 252.473C657.03 251.725 657.166 251.066 657.439 250.495C657.715 249.921 658.098 249.474 658.59 249.154C659.084 248.831 659.661 248.669 660.32 248.669C660.701 248.669 661.076 248.733 661.447 248.859C661.818 248.986 662.156 249.192 662.46 249.478C662.764 249.76 663.007 250.134 663.187 250.6C663.368 251.066 663.458 251.639 663.458 252.321V252.796H657.829V251.826H662.317C662.317 251.414 662.235 251.047 662.07 250.723C661.908 250.4 661.677 250.145 661.376 249.958C661.078 249.771 660.726 249.677 660.32 249.677C659.873 249.677 659.487 249.788 659.16 250.01C658.837 250.229 658.588 250.514 658.414 250.866C658.239 251.218 658.152 251.595 658.152 251.998V252.644C658.152 253.196 658.247 253.663 658.438 254.047C658.631 254.427 658.899 254.717 659.241 254.917C659.583 255.114 659.981 255.212 660.434 255.212C660.729 255.212 660.996 255.171 661.233 255.088C661.474 255.003 661.682 254.876 661.856 254.708C662.03 254.537 662.165 254.324 662.26 254.071L663.344 254.375C663.23 254.743 663.038 255.066 662.769 255.345C662.5 255.621 662.167 255.836 661.771 255.992C661.374 256.144 660.929 256.22 660.434 256.22ZM670.053 251.674V256.068H668.931V248.764H670.015V249.905H670.11C670.282 249.535 670.541 249.237 670.89 249.012C671.239 248.783 671.689 248.669 672.24 248.669C672.735 248.669 673.168 248.771 673.539 248.974C673.909 249.173 674.198 249.478 674.404 249.886C674.61 250.292 674.713 250.806 674.713 251.427V256.068H673.591V251.503C673.591 250.929 673.442 250.482 673.144 250.162C672.846 249.839 672.437 249.677 671.917 249.677C671.559 249.677 671.239 249.755 670.957 249.91C670.678 250.066 670.457 250.292 670.296 250.59C670.134 250.888 670.053 251.249 670.053 251.674ZM678.913 256.239C678.45 256.239 678.03 256.152 677.653 255.977C677.275 255.8 676.976 255.545 676.754 255.212C676.532 254.876 676.421 254.47 676.421 253.995C676.421 253.576 676.504 253.237 676.668 252.977C676.833 252.714 677.053 252.508 677.329 252.359C677.605 252.21 677.909 252.099 678.242 252.026C678.578 251.95 678.916 251.89 679.255 251.845C679.699 251.788 680.058 251.746 680.334 251.717C680.613 251.685 680.816 251.633 680.943 251.56C681.073 251.487 681.138 251.36 681.138 251.18V251.142C681.138 250.673 681.009 250.308 680.753 250.048C680.499 249.788 680.114 249.658 679.597 249.658C679.062 249.658 678.642 249.776 678.337 250.01C678.033 250.245 677.819 250.495 677.695 250.761L676.63 250.381C676.82 249.937 677.074 249.592 677.391 249.344C677.711 249.094 678.06 248.92 678.437 248.821C678.817 248.72 679.192 248.669 679.559 248.669C679.794 248.669 680.063 248.698 680.368 248.755C680.675 248.809 680.971 248.921 681.257 249.092C681.545 249.264 681.784 249.522 681.975 249.867C682.165 250.213 682.26 250.676 682.26 251.256V256.068H681.138V255.079H681.081C681.005 255.237 680.878 255.407 680.7 255.587C680.523 255.768 680.287 255.922 679.992 256.049C679.697 256.175 679.337 256.239 678.913 256.239ZM679.084 255.231C679.528 255.231 679.902 255.144 680.206 254.969C680.513 254.795 680.745 254.57 680.9 254.294C681.059 254.018 681.138 253.728 681.138 253.424V252.397C681.09 252.454 680.986 252.506 680.824 252.554C680.665 252.598 680.482 252.638 680.272 252.673C680.066 252.704 679.865 252.733 679.669 252.758C679.475 252.781 679.318 252.8 679.198 252.815C678.906 252.853 678.634 252.915 678.38 253.001C678.13 253.083 677.927 253.208 677.771 253.376C677.619 253.541 677.543 253.766 677.543 254.052C677.543 254.442 677.687 254.736 677.976 254.936C678.268 255.133 678.637 255.231 679.084 255.231ZM684.308 256.068V248.764H685.392V249.905H685.487C685.639 249.516 685.885 249.213 686.224 248.997C686.563 248.779 686.971 248.669 687.446 248.669C687.928 248.669 688.329 248.779 688.649 248.997C688.972 249.213 689.224 249.516 689.405 249.905H689.481C689.668 249.528 689.949 249.229 690.323 249.007C690.697 248.782 691.145 248.669 691.668 248.669C692.321 248.669 692.855 248.874 693.271 249.283C693.686 249.688 693.894 250.321 693.894 251.18V256.068H692.771V251.18C692.771 250.641 692.624 250.256 692.329 250.024C692.034 249.793 691.687 249.677 691.288 249.677C690.774 249.677 690.377 249.833 690.094 250.143C689.812 250.451 689.671 250.841 689.671 251.313V256.068H688.53V251.066C688.53 250.65 688.395 250.316 688.126 250.062C687.857 249.806 687.51 249.677 687.085 249.677C686.793 249.677 686.521 249.755 686.267 249.91C686.017 250.066 685.814 250.281 685.658 250.557C685.506 250.829 685.43 251.145 685.43 251.503V256.068H684.308ZM699.007 256.22C698.304 256.22 697.697 256.064 697.186 255.754C696.679 255.44 696.288 255.003 696.012 254.442C695.739 253.877 695.603 253.221 695.603 252.473C695.603 251.725 695.739 251.066 696.012 250.495C696.288 249.921 696.671 249.474 697.162 249.154C697.657 248.831 698.234 248.669 698.893 248.669C699.274 248.669 699.649 248.733 700.02 248.859C700.391 248.986 700.728 249.192 701.033 249.478C701.337 249.76 701.58 250.134 701.76 250.6C701.941 251.066 702.031 251.639 702.031 252.321V252.796H696.402V251.826H700.89C700.89 251.414 700.808 251.047 700.643 250.723C700.481 250.4 700.25 250.145 699.949 249.958C699.651 249.771 699.299 249.677 698.893 249.677C698.446 249.677 698.059 249.788 697.733 250.01C697.41 250.229 697.161 250.514 696.986 250.866C696.812 251.218 696.725 251.595 696.725 251.998V252.644C696.725 253.196 696.82 253.663 697.01 254.047C697.204 254.427 697.471 254.717 697.814 254.917C698.156 255.114 698.554 255.212 699.007 255.212C699.302 255.212 699.568 255.171 699.806 255.088C700.047 255.003 700.255 254.876 700.429 254.708C700.603 254.537 700.738 254.324 700.833 254.071L701.917 254.375C701.803 254.743 701.611 255.066 701.342 255.345C701.072 255.621 700.74 255.836 700.343 255.992C699.947 256.144 699.502 256.22 699.007 256.22Z" fill="#4B5563"/>
<path id="Vector_16" d="M711.323 248.218L716.473 253.367L711.323 258.517" stroke="#6B7280" stroke-width="1.44193" stroke-linecap="round" stroke-linejoin="round"/>
</g>
<g id="Group_6">
<path id="ExamName" d="M238.521 346.745V311.836H262.044V317.921H245.902V326.239H260.834V332.324H245.902V340.66H262.112V346.745H238.521ZM273.844 320.563L278.65 329.716L283.577 320.563H291.025L283.44 333.654L291.23 346.745H283.815L278.65 337.694L273.571 346.745H266.071L273.844 333.654L266.344 320.563H273.844ZM302.663 347.239C300.993 347.239 299.504 346.949 298.197 346.37C296.89 345.779 295.856 344.91 295.095 343.762C294.345 342.603 293.97 341.16 293.97 339.432C293.97 337.978 294.237 336.756 294.771 335.768C295.305 334.779 296.033 333.984 296.953 333.381C297.873 332.779 298.919 332.324 300.089 332.018C301.271 331.711 302.51 331.495 303.805 331.37C305.328 331.211 306.555 331.063 307.487 330.927C308.419 330.779 309.095 330.563 309.515 330.279C309.936 329.995 310.146 329.574 310.146 329.018V328.915C310.146 327.836 309.805 327.001 309.123 326.41C308.453 325.819 307.498 325.523 306.26 325.523C304.953 325.523 303.913 325.813 303.14 326.393C302.368 326.961 301.856 327.677 301.606 328.54L294.89 327.995C295.231 326.404 295.902 325.029 296.902 323.87C297.902 322.699 299.192 321.802 300.771 321.177C302.362 320.54 304.203 320.222 306.294 320.222C307.748 320.222 309.14 320.393 310.47 320.734C311.811 321.074 312.998 321.603 314.033 322.319C315.078 323.035 315.902 323.955 316.504 325.08C317.106 326.194 317.408 327.529 317.408 329.086V346.745H310.521V343.114H310.317C309.896 343.932 309.334 344.654 308.629 345.279C307.925 345.893 307.078 346.376 306.089 346.728C305.101 347.069 303.959 347.239 302.663 347.239ZM304.743 342.228C305.811 342.228 306.754 342.018 307.572 341.597C308.39 341.165 309.033 340.586 309.498 339.859C309.964 339.131 310.197 338.307 310.197 337.387V334.609C309.97 334.756 309.658 334.893 309.26 335.018C308.873 335.131 308.436 335.239 307.947 335.341C307.459 335.432 306.97 335.518 306.481 335.597C305.993 335.665 305.55 335.728 305.152 335.785C304.3 335.91 303.555 336.109 302.919 336.381C302.283 336.654 301.788 337.023 301.436 337.489C301.084 337.944 300.908 338.512 300.908 339.194C300.908 340.182 301.265 340.938 301.981 341.461C302.709 341.972 303.629 342.228 304.743 342.228ZM323.041 346.745V320.563H329.961V325.182H330.268C330.814 323.648 331.723 322.438 332.996 321.552C334.268 320.665 335.791 320.222 337.564 320.222C339.359 320.222 340.888 320.671 342.149 321.569C343.41 322.455 344.251 323.66 344.672 325.182H344.944C345.479 323.682 346.444 322.484 347.842 321.586C349.251 320.677 350.916 320.222 352.836 320.222C355.28 320.222 357.263 321.001 358.785 322.557C360.319 324.103 361.086 326.296 361.086 329.137V346.745H353.842V330.569C353.842 329.114 353.456 328.023 352.683 327.296C351.91 326.569 350.944 326.205 349.785 326.205C348.467 326.205 347.439 326.626 346.7 327.466C345.961 328.296 345.592 329.393 345.592 330.756V346.745H338.552V330.415C338.552 329.131 338.183 328.109 337.444 327.347C336.717 326.586 335.757 326.205 334.564 326.205C333.757 326.205 333.03 326.41 332.382 326.819C331.746 327.216 331.24 327.779 330.865 328.506C330.49 329.222 330.302 330.063 330.302 331.029V346.745H323.041ZM384.988 311.836L392.028 323.734H392.301L399.375 311.836H407.71L397.057 329.29L407.949 346.745H399.46L392.301 334.83H392.028L384.869 346.745H376.415L387.341 329.29L376.619 311.836H384.988ZM419.301 311.836L426.341 323.734H426.613L433.687 311.836H442.023L431.369 329.29L442.261 346.745H433.773L426.613 334.83H426.341L419.182 346.745H410.727L421.653 329.29L410.932 311.836H419.301ZM453.613 311.836L460.653 323.734H460.926L468 311.836H476.335L465.682 329.29L476.574 346.745H468.085L460.926 334.83H460.653L453.494 346.745H445.04L455.966 329.29L445.244 311.836H453.613ZM487.926 311.836L494.966 323.734H495.238L502.312 311.836H510.648L499.994 329.29L510.886 346.745H502.398L495.238 334.83H494.966L487.807 346.745H479.352L490.278 329.29L479.557 311.836H487.926ZM522.238 311.836L529.278 323.734H529.551L536.625 311.836H544.96L534.307 329.29L545.199 346.745H536.71L529.551 334.83H529.278L522.119 346.745H513.665L524.591 329.29L513.869 311.836H522.238ZM556.551 311.836L563.591 323.734H563.863L570.937 311.836H579.273L568.619 329.29L579.511 346.745H571.023L563.863 334.83H563.591L556.432 346.745H547.977L558.903 329.29L548.182 311.836H556.551ZM590.863 311.836L597.903 323.734H598.176L605.25 311.836H613.585L602.932 329.29L613.824 346.745H605.335L598.176 334.83H597.903L590.744 346.745H582.29L593.216 329.29L582.494 311.836H590.863ZM625.176 311.836L632.216 323.734H632.488L639.562 311.836H647.898L637.244 329.29L648.136 346.745H639.648L632.488 334.83H632.216L625.057 346.745H616.602L627.528 329.29L616.807 311.836H625.176ZM679.854 326.41V332.171H663.933V326.41H679.854ZM697.082 346.745V341.427L709.508 329.921C710.565 328.898 711.452 327.978 712.167 327.16C712.895 326.341 713.446 325.54 713.821 324.756C714.196 323.961 714.383 323.103 714.383 322.182C714.383 321.16 714.15 320.279 713.685 319.54C713.219 318.79 712.582 318.216 711.775 317.819C710.969 317.41 710.054 317.205 709.031 317.205C707.963 317.205 707.031 317.421 706.236 317.853C705.44 318.285 704.827 318.904 704.395 319.711C703.963 320.518 703.747 321.478 703.747 322.591H696.741C696.741 320.307 697.258 318.324 698.292 316.643C699.327 314.961 700.775 313.66 702.639 312.739C704.503 311.819 706.65 311.359 709.082 311.359C711.582 311.359 713.758 311.802 715.611 312.688C717.474 313.563 718.923 314.779 719.957 316.336C720.991 317.893 721.508 319.677 721.508 321.688C721.508 323.006 721.247 324.307 720.724 325.591C720.213 326.876 719.298 328.302 717.98 329.87C716.662 331.427 714.804 333.296 712.406 335.478L707.31 340.472V340.711H721.969V346.745H697.082ZM742.504 311.836V346.745H735.123V318.841H734.919L726.925 323.853V317.307L735.567 311.836H742.504ZM753.238 347.188C752.113 347.188 751.148 346.79 750.341 345.995C749.545 345.188 749.148 344.222 749.148 343.097C749.148 341.984 749.545 341.029 750.341 340.234C751.148 339.438 752.113 339.04 753.238 339.04C754.329 339.04 755.284 339.438 756.102 340.234C756.92 341.029 757.329 341.984 757.329 343.097C757.329 343.847 757.136 344.535 756.75 345.16C756.375 345.773 755.881 346.268 755.267 346.643C754.653 347.006 753.977 347.188 753.238 347.188ZM774.051 311.836V346.745H766.67V318.841H766.466L758.471 323.853V317.307L767.113 311.836H774.051ZM797.535 311.836V346.745H790.155V318.841H789.95L781.956 323.853V317.307L790.598 311.836H797.535ZM808.27 347.188C807.145 347.188 806.179 346.79 805.372 345.995C804.577 345.188 804.179 344.222 804.179 343.097C804.179 341.984 804.577 341.029 805.372 340.234C806.179 339.438 807.145 339.04 808.27 339.04C809.361 339.04 810.315 339.438 811.133 340.234C811.952 341.029 812.361 341.984 812.361 343.097C812.361 343.847 812.167 344.535 811.781 345.16C811.406 345.773 810.912 346.268 810.298 346.643C809.685 347.006 809.008 347.188 808.27 347.188ZM818.254 346.745V341.427L830.68 329.921C831.737 328.898 832.623 327.978 833.339 327.16C834.067 326.341 834.618 325.54 834.993 324.756C835.368 323.961 835.555 323.103 835.555 322.182C835.555 321.16 835.322 320.279 834.856 319.54C834.39 318.79 833.754 318.216 832.947 317.819C832.14 317.41 831.226 317.205 830.203 317.205C829.135 317.205 828.203 317.421 827.408 317.853C826.612 318.285 825.998 318.904 825.567 319.711C825.135 320.518 824.919 321.478 824.919 322.591H817.913C817.913 320.307 818.43 318.324 819.464 316.643C820.498 314.961 821.947 313.66 823.811 312.739C825.675 311.819 827.822 311.359 830.254 311.359C832.754 311.359 834.93 311.802 836.783 312.688C838.646 313.563 840.095 314.779 841.129 316.336C842.163 317.893 842.68 319.677 842.68 321.688C842.68 323.006 842.419 324.307 841.896 325.591C841.385 326.876 840.47 328.302 839.152 329.87C837.834 331.427 835.976 333.296 833.578 335.478L828.481 340.472V340.711H843.14V346.745H818.254ZM862.176 347.512C859.244 347.501 856.721 346.779 854.608 345.347C852.506 343.915 850.886 341.841 849.75 339.126C848.625 336.41 848.068 333.143 848.079 329.324C848.079 325.518 848.642 322.273 849.767 319.591C850.903 316.91 852.523 314.87 854.625 313.472C856.738 312.063 859.256 311.359 862.176 311.359C865.096 311.359 867.608 312.063 869.71 313.472C871.824 314.881 873.449 316.927 874.585 319.609C875.721 322.279 876.284 325.518 876.273 329.324C876.273 333.154 875.704 336.427 874.568 339.143C873.443 341.859 871.829 343.932 869.727 345.364C867.625 346.796 865.108 347.512 862.176 347.512ZM862.176 341.393C864.176 341.393 865.773 340.387 866.966 338.376C868.159 336.364 868.75 333.347 868.738 329.324C868.738 326.677 868.466 324.472 867.92 322.711C867.386 320.949 866.625 319.626 865.636 318.739C864.659 317.853 863.506 317.41 862.176 317.41C860.187 317.41 858.596 318.404 857.403 320.393C856.21 322.381 855.608 325.359 855.596 329.324C855.596 332.006 855.863 334.245 856.398 336.04C856.943 337.824 857.71 339.165 858.699 340.063C859.687 340.949 860.846 341.393 862.176 341.393ZM881.535 346.745V341.427L893.961 329.921C895.018 328.898 895.905 327.978 896.621 327.16C897.348 326.341 897.899 325.54 898.274 324.756C898.649 323.961 898.836 323.103 898.836 322.182C898.836 321.16 898.604 320.279 898.138 319.54C897.672 318.79 897.035 318.216 896.229 317.819C895.422 317.41 894.507 317.205 893.484 317.205C892.416 317.205 891.484 317.421 890.689 317.853C889.893 318.285 889.28 318.904 888.848 319.711C888.416 320.518 888.2 321.478 888.2 322.591H881.194C881.194 320.307 881.711 318.324 882.746 316.643C883.78 314.961 885.229 313.66 887.092 312.739C888.956 311.819 891.104 311.359 893.535 311.359C896.035 311.359 898.211 311.802 900.064 312.688C901.927 313.563 903.376 314.779 904.41 316.336C905.444 317.893 905.961 319.677 905.961 321.688C905.961 323.006 905.7 324.307 905.177 325.591C904.666 326.876 903.751 328.302 902.433 329.87C901.115 331.427 899.257 333.296 896.859 335.478L891.763 340.472V340.711H906.422V346.745H881.535ZM924.52 347.222C922.111 347.222 919.963 346.779 918.077 345.893C916.202 345.006 914.713 343.785 913.611 342.228C912.508 340.671 911.935 338.887 911.889 336.876H919.048C919.128 338.228 919.696 339.324 920.753 340.165C921.81 341.006 923.065 341.427 924.52 341.427C925.679 341.427 926.702 341.171 927.588 340.66C928.486 340.137 929.185 339.415 929.685 338.495C930.196 337.563 930.452 336.495 930.452 335.29C930.452 334.063 930.19 332.984 929.667 332.052C929.156 331.12 928.446 330.393 927.537 329.87C926.628 329.347 925.588 329.08 924.417 329.069C923.395 329.069 922.4 329.279 921.435 329.699C920.48 330.12 919.736 330.694 919.202 331.421L912.639 330.245L914.292 311.836H935.633V317.87H920.378L919.474 326.614H919.679C920.292 325.751 921.219 325.035 922.457 324.466C923.696 323.898 925.082 323.614 926.616 323.614C928.719 323.614 930.594 324.109 932.241 325.097C933.889 326.086 935.19 327.444 936.145 329.171C937.099 330.887 937.571 332.864 937.56 335.103C937.571 337.455 937.025 339.546 935.923 341.376C934.832 343.194 933.304 344.626 931.338 345.671C929.383 346.705 927.111 347.222 924.52 347.222Z" fill="#F97316"/>
<path id="Vector_17" d="M1086.86 358H232V359.03H1086.86V358Z" fill="#E5E7EB"/>
<g id="Group_7">
<path id="Vector_18" d="M1085.65 325.296C1086.56 325.296 1087.3 324.558 1087.3 323.648C1087.3 322.738 1086.56 322 1085.65 322C1084.74 322 1084 322.738 1084 323.648C1084 324.558 1084.74 325.296 1085.65 325.296Z" fill="#6B7280"/>
<path id="Vector_19" d="M1085.65 331.476C1086.56 331.476 1087.3 330.738 1087.3 329.828C1087.3 328.917 1086.56 328.18 1085.65 328.18C1084.74 328.18 1084 328.917 1084 329.828C1084 330.738 1084.74 331.476 1085.65 331.476Z" fill="#6B7280"/>
<path id="Vector_20" d="M1085.65 337.655C1086.56 337.655 1087.3 336.917 1087.3 336.007C1087.3 335.097 1086.56 334.359 1085.65 334.359C1084.74 334.359 1084 335.097 1084 336.007C1084 336.917 1084.74 337.655 1085.65 337.655Z" fill="#6B7280"/>
</g>
</g>
</g>
<g id="Logo 1">
<g id="Group_8">
<path id="Vector_21" d="M43.4706 22.6732H41.0151V20.3276H56.2459C57.8718 20.3276 58.5687 21.0214 58.5687 22.6401V25.283H56.08V23.4991C56.08 22.9375 55.7814 22.6732 55.2504 22.6732H46.1252V32.3196H56.1464V34.6651H46.1252V43.6839C46.1252 44.2455 46.4239 44.5098 46.9548 44.5098H56.3123C56.8432 44.5098 57.1418 44.2455 57.1418 43.6839V41.9H59.5973V44.5428C59.5973 46.1616 58.9005 46.8553 57.2746 46.8553H45.7934C44.1675 46.8553 43.4706 46.1616 43.4706 44.5428V22.6732Z" fill="white"/>
<path id="Vector_22" d="M67.1628 36.9776L63.0482 30.8991C62.5837 30.2714 62.0527 30.1062 61.2895 30.1062H60.4932V27.8928H61.8868C63.8114 27.8928 64.3091 28.1901 65.4374 29.9741L68.1915 34.2026C68.4901 34.6982 68.822 35.3259 68.822 35.3259H68.8883C68.8883 35.3259 69.2202 34.6982 69.4856 34.2026L72.2398 29.9741C73.368 28.2232 73.8325 27.8928 75.7903 27.8928H77.1508V30.1062H76.3876C75.5912 30.1062 75.0271 30.2053 74.5957 30.866L70.4479 36.9776L77.1176 46.8553H74.098L69.5188 39.8187C69.2202 39.3232 68.9215 38.7616 68.9215 38.7616H68.8552C68.8552 38.7616 68.5565 39.2901 68.2247 39.8187L63.546 46.8553H60.5595L67.1628 36.9776Z" fill="white"/>
<path id="Vector_23" d="M90.3243 35.1608H91.3861V34.9295C91.3861 30.9652 89.9593 29.5777 86.4419 29.5777C85.4796 29.5777 82.7255 29.842 82.7255 31.2295V32.4518H80.27V30.6349C80.27 27.992 84.816 27.4304 86.4751 27.4304C92.5143 27.4304 93.9412 30.6349 93.9412 34.7313V43.8161C93.9412 44.3777 94.2398 44.642 94.7707 44.642H96.3635V46.8554H93.7421C92.1161 46.8554 91.4525 46.1286 91.4525 44.576C91.4525 43.7501 91.4856 43.1885 91.4856 43.1885H91.4193C91.4525 43.1885 89.8597 47.3179 85.0814 47.3179C81.8959 47.3179 78.6108 45.4679 78.6108 41.7019C78.644 35.392 87.0392 35.1608 90.3243 35.1608ZM85.546 45.1376C89.1961 45.1376 91.3861 41.3715 91.3861 38.0679V37.209H90.2911C87.3047 37.209 81.2986 37.2751 81.2986 41.5367C81.2986 43.3206 82.7255 45.1376 85.546 45.1376Z" fill="white"/>
<path id="Vector_24" d="M99.7483 30.9322C99.7483 30.4036 99.4496 30.1063 98.9187 30.1063H97.3259V27.8929H99.9805C101.573 27.8929 102.303 28.5867 102.303 30.0072V30.8661C102.303 31.626 102.237 32.2206 102.237 32.2206H102.303C103.266 29.6438 106.252 27.4304 109.205 27.4304C112.723 27.4304 114.548 29.0492 115.112 32.1876H115.178C116.207 29.6108 118.961 27.4304 122.18 27.4304C126.792 27.4304 128.517 30.1063 128.517 34.7974V43.8161C128.517 44.3777 128.816 44.642 129.347 44.642H130.94V46.8554H128.252C126.626 46.8554 125.929 46.1617 125.929 44.5429V35.4251C125.929 32.3197 125.299 29.776 121.781 29.776C118.895 29.776 116.505 32.3527 115.742 35.1277C115.477 35.9536 115.41 36.8786 115.41 37.8697V46.8554H112.822V35.4251C112.822 32.551 112.391 29.776 108.807 29.776C105.688 29.776 103.398 32.4518 102.602 35.359C102.37 36.1518 102.303 37.0108 102.303 37.9027V46.8885H99.7151V30.9322H99.7483Z" fill="white"/>
<path id="Vector_25" d="M133.594 43.8491H136.514V46.8554H133.594V43.8491Z" fill="white"/>
<path id="Vector_26" d="M141.857 30.9321C141.857 30.4035 141.558 30.1062 141.027 30.1062H139.435V27.8928H142.122C143.748 27.8928 144.445 28.5866 144.445 30.2053V43.816C144.445 44.3776 144.744 44.6419 145.275 44.6419H146.867V46.8553H144.18C142.554 46.8553 141.857 46.1616 141.857 44.5428V30.9321ZM141.791 20.3276H144.279V23.5651H141.791V20.3276Z" fill="white"/>
<path id="Vector_27" d="M161.733 19.8652C165.516 19.8652 171.688 21.484 171.688 25.4813V27.6617H169.199V26.1751C169.199 23.6974 164.886 22.3099 161.8 22.3099C155.893 22.3099 151.347 26.9018 151.347 33.3438C151.347 39.6867 155.86 44.7742 161.932 44.7742C167.441 44.7742 170.659 41.0411 170.659 41.0411L172.186 42.9572C172.186 42.9572 168.502 47.2518 161.899 47.2518C154.101 47.2518 148.593 41.0742 148.593 33.3108C148.56 25.7456 154.234 19.8652 161.733 19.8652Z" fill="white"/>
<path id="Vector_28" d="M184.231 27.4304C189.805 27.4304 194.318 31.659 194.318 37.2751C194.318 43.0233 189.805 47.3179 184.264 47.3179C178.689 47.3179 174.177 43.0233 174.177 37.2751C174.21 31.659 178.723 27.4304 184.231 27.4304ZM184.297 45.0054C188.345 45.0054 191.697 41.6688 191.697 37.2751C191.697 32.9804 188.345 29.776 184.297 29.776C180.216 29.776 176.864 32.9804 176.864 37.2751C176.864 41.7018 180.183 45.0054 184.297 45.0054Z" fill="white"/>
<path id="Vector_29" d="M198.4 30.9321C198.4 30.4035 198.101 30.1062 197.57 30.1062H195.944V27.8928H198.599C200.192 27.8928 200.922 28.5205 200.922 30.0401V31.3285C200.922 32.1214 200.855 32.749 200.855 32.749H200.922C201.818 29.8749 203.941 27.6946 206.961 27.6946C207.492 27.6946 207.99 27.7937 207.99 27.7937V30.3374C207.99 30.3374 207.525 30.2714 207.027 30.2714C204.34 30.2714 202.315 32.3857 201.486 35.1937C201.121 36.416 200.955 37.6714 200.955 38.8937V46.8883H198.367V30.9321H198.4Z" fill="white"/>
<path id="Vector_30" d="M210.644 42.2303C210.644 42.2303 212.768 45.1044 216.517 45.1044C218.641 45.1044 220.532 44.0803 220.532 42.0982C220.532 37.9357 209.848 38.6955 209.848 32.5839C209.848 29.1482 212.801 27.4634 216.65 27.4634C218.575 27.4634 222.457 28.2232 222.457 30.8991V32.5178H220.035V31.6259C220.035 30.2384 217.977 29.7098 216.75 29.7098C214.095 29.7098 212.502 30.6018 212.502 32.4518C212.502 36.7134 223.187 35.7223 223.187 42.0321C223.187 45.2036 220.3 47.3509 216.517 47.3509C211.54 47.3509 209.184 44.0143 209.184 44.0143L210.644 42.2303Z" fill="white"/>
<path id="Vector_31" d="M227.468 30.9321C227.468 30.4035 227.169 30.1062 226.638 30.1062H225.045V27.8928H227.733C229.359 27.8928 230.056 28.5866 230.056 30.2053V43.816C230.056 44.3776 230.355 44.6419 230.886 44.6419H232.478V46.8553H229.791C228.165 46.8553 227.468 46.1616 227.468 44.5428V30.9321ZM227.401 20.3276H229.89V23.5651H227.401V20.3276Z" fill="white"/>
</g>
</g>
<path id="circle-1" d="M593 405C808.943 405 984 372.765 984 333C984 293.235 808.943 261 593 261C377.057 261 202 293.235 202 333C202 372.765 377.057 405 593 405Z" stroke="#00C800" stroke-width="8.69954"/>
<path id="arrow-1" d="M961.655 393.919C959.139 394.662 957.702 397.303 958.445 399.819L970.551 440.819C971.294 443.335 973.936 444.772 976.452 444.029C978.968 443.287 980.405 440.645 979.663 438.129L968.901 401.684L1005.35 390.923C1007.86 390.18 1009.3 387.538 1008.56 385.022C1007.81 382.506 1005.17 381.069 1002.65 381.812L961.655 393.919ZM1190 521.974L1192.27 517.802L965.27 394.302L963 398.474L960.73 402.647L1187.73 526.147L1190 521.974Z" fill="#00C800"/>
<g id="Step 2">
<rect x="36" y="586" width="171" height="171" rx="85.5" fill="black" fill-opacity="0.6"/>
<path id="1" d="M133.648 709H119.152V669.352C119.152 668.264 119.152 666.92 119.152 665.32C119.216 663.72 119.28 662.056 119.344 660.328C119.408 658.6 119.472 657.064 119.536 655.72C119.216 656.104 118.512 656.808 117.424 657.832C116.4 658.792 115.44 659.656 114.544 660.424L106.672 666.76L99.664 658.024L121.744 640.456H133.648V709Z" fill="white"/>
</g>
</g>
<rect x="0.5" y="0.5" width="1317" height="789.8" rx="73.89" stroke="black" stroke-opacity="0.54"/>
</g>
<defs>
<clipPath id="clip0_41_355">
<rect width="1318" height="790.8" rx="74.39" fill="white"/>
</clipPath>
</defs>
</svg>
