<svg width="1319" height="792" viewBox="0 0 1319 792" fill="none" xmlns="http://www.w3.org/2000/svg">
<g id="Computer Login">
<g clip-path="url(#clip0_22_142)">
<path id="Vector" d="M1274.71 0H43.9556C19.6796 0 0 19.6796 0 43.9556V747.244C0 771.52 19.6796 791.2 43.9556 791.2H1274.71C1298.99 791.2 1318.67 771.52 1318.67 747.244V43.9556C1318.67 19.6796 1298.99 0 1274.71 0Z" fill="#333333"/>
<g id="Login Picker">
<path id="Vector_2" d="M1153.83 318.678H164.833V439.556H1153.83V318.678Z" fill="#E5E7EB"/>
<path id="Vector_3" d="M659.333 318.678V439.556" stroke="#D1D5DB" stroke-width="2.19778"/>
<path id="Login USI" d="M205.679 395.139V366.368H209.163V392.048H222.537V395.139H205.679ZM236.248 395.588C234.3 395.588 232.591 395.125 231.121 394.198C229.66 393.27 228.517 391.973 227.693 390.306C226.878 388.639 226.471 386.691 226.471 384.462C226.471 382.214 226.878 380.252 227.693 378.576C228.517 376.9 229.66 375.598 231.121 374.671C232.591 373.743 234.3 373.28 236.248 373.28C238.196 373.28 239.901 373.743 241.362 374.671C242.832 375.598 243.975 376.9 244.79 378.576C245.614 380.252 246.026 382.214 246.026 384.462C246.026 386.691 245.614 388.639 244.79 390.306C243.975 391.973 242.832 393.27 241.362 394.198C239.901 395.125 238.196 395.588 236.248 395.588ZM236.248 392.61C237.728 392.61 238.946 392.231 239.901 391.472C240.856 390.714 241.563 389.716 242.022 388.48C242.481 387.244 242.711 385.905 242.711 384.462C242.711 383.02 242.481 381.676 242.022 380.43C241.563 379.185 240.856 378.178 239.901 377.41C238.946 376.642 237.728 376.258 236.248 376.258C234.769 376.258 233.551 376.642 232.596 377.41C231.641 378.178 230.933 379.185 230.475 380.43C230.016 381.676 229.786 383.02 229.786 384.462C229.786 385.905 230.016 387.244 230.475 388.48C230.933 389.716 231.641 390.714 232.596 391.472C233.551 392.231 234.769 392.61 236.248 392.61ZM259.797 403.68C258.195 403.68 256.819 403.474 255.667 403.062C254.515 402.659 253.555 402.126 252.787 401.461C252.028 400.805 251.424 400.103 250.975 399.353L253.616 397.499C253.915 397.892 254.295 398.342 254.753 398.848C255.212 399.363 255.84 399.808 256.636 400.182C257.441 400.566 258.495 400.758 259.797 400.758C261.539 400.758 262.976 400.337 264.11 399.494C265.243 398.651 265.81 397.33 265.81 395.532V391.149H265.529C265.285 391.543 264.939 392.03 264.489 392.61C264.049 393.182 263.412 393.692 262.578 394.141C261.754 394.582 260.64 394.802 259.235 394.802C257.493 394.802 255.929 394.39 254.543 393.566C253.166 392.741 252.075 391.543 251.27 389.969C250.473 388.396 250.075 386.485 250.075 384.237C250.075 382.027 250.464 380.103 251.241 378.464C252.019 376.815 253.1 375.542 254.487 374.642C255.873 373.734 257.474 373.28 259.291 373.28C260.696 373.28 261.81 373.514 262.635 373.982C263.468 374.441 264.105 374.966 264.545 375.556C264.995 376.136 265.341 376.614 265.585 376.989H265.922V373.561H269.125V395.757C269.125 397.611 268.703 399.119 267.861 400.281C267.027 401.451 265.903 402.308 264.489 402.851C263.084 403.404 261.52 403.68 259.797 403.68ZM259.684 391.824C261.014 391.824 262.138 391.519 263.056 390.91C263.974 390.302 264.672 389.426 265.149 388.283C265.627 387.141 265.866 385.773 265.866 384.181C265.866 382.627 265.632 381.255 265.163 380.065C264.695 378.876 264.002 377.944 263.084 377.269C262.166 376.595 261.033 376.258 259.684 376.258C258.28 376.258 257.109 376.614 256.172 377.326C255.245 378.037 254.547 378.993 254.079 380.192C253.62 381.39 253.391 382.72 253.391 384.181C253.391 385.68 253.625 387.005 254.093 388.157C254.571 389.3 255.273 390.199 256.2 390.854C257.137 391.5 258.298 391.824 259.684 391.824ZM275.194 395.139V373.561H278.509V395.139H275.194ZM276.88 369.964C276.233 369.964 275.676 369.744 275.208 369.304C274.749 368.864 274.519 368.335 274.519 367.717C274.519 367.099 274.749 366.569 275.208 366.129C275.676 365.689 276.233 365.469 276.88 365.469C277.526 365.469 278.078 365.689 278.537 366.129C279.006 366.569 279.24 367.099 279.24 367.717C279.24 368.335 279.006 368.864 278.537 369.304C278.078 369.744 277.526 369.964 276.88 369.964ZM287.897 382.158V395.139H284.582V373.561H287.785V376.932H288.066C288.571 375.837 289.339 374.956 290.369 374.291C291.4 373.617 292.73 373.28 294.359 373.28C295.82 373.28 297.099 373.579 298.194 374.179C299.29 374.769 300.142 375.668 300.751 376.876C301.36 378.075 301.664 379.592 301.664 381.428V395.139H298.349V381.653C298.349 379.957 297.909 378.637 297.028 377.691C296.148 376.736 294.94 376.258 293.404 376.258C292.346 376.258 291.4 376.487 290.566 376.946C289.742 377.405 289.091 378.075 288.613 378.955C288.136 379.836 287.897 380.903 287.897 382.158ZM338.179 366.368H341.663V385.417C341.663 387.384 341.2 389.14 340.272 390.686C339.355 392.222 338.058 393.434 336.381 394.324C334.705 395.204 332.738 395.645 330.481 395.645C328.224 395.645 326.257 395.204 324.581 394.324C322.904 393.434 321.602 392.222 320.675 390.686C319.757 389.14 319.298 387.384 319.298 385.417V366.368H322.782V385.137C322.782 386.541 323.091 387.792 323.71 388.887C324.328 389.974 325.208 390.831 326.351 391.458C327.503 392.076 328.879 392.385 330.481 392.385C332.082 392.385 333.459 392.076 334.611 391.458C335.763 390.831 336.643 389.974 337.252 388.887C337.87 387.792 338.179 386.541 338.179 385.137V366.368ZM364.355 373.561C364.186 372.137 363.503 371.032 362.304 370.245C361.105 369.459 359.635 369.065 357.893 369.065C356.619 369.065 355.504 369.271 354.549 369.683C353.603 370.095 352.863 370.662 352.329 371.383C351.805 372.104 351.543 372.924 351.543 373.842C351.543 374.61 351.725 375.27 352.091 375.823C352.465 376.366 352.943 376.82 353.524 377.185C354.104 377.541 354.713 377.836 355.35 378.07C355.987 378.295 356.572 378.478 357.106 378.618L360.028 379.405C360.777 379.602 361.611 379.873 362.529 380.22C363.456 380.566 364.341 381.039 365.184 381.639C366.036 382.229 366.738 382.987 367.291 383.914C367.843 384.842 368.12 385.979 368.12 387.328C368.12 388.883 367.712 390.288 366.898 391.543C366.092 392.798 364.912 393.795 363.357 394.535C361.812 395.275 359.934 395.645 357.724 395.645C355.664 395.645 353.879 395.312 352.372 394.647C350.873 393.982 349.693 393.055 348.831 391.866C347.979 390.676 347.497 389.295 347.384 387.721H350.981C351.074 388.808 351.44 389.707 352.077 390.419C352.723 391.121 353.538 391.646 354.521 391.992C355.514 392.329 356.581 392.498 357.724 392.498C359.054 392.498 360.248 392.282 361.306 391.852C362.365 391.411 363.203 390.803 363.821 390.025C364.439 389.239 364.748 388.321 364.748 387.272C364.748 386.317 364.481 385.539 363.947 384.94C363.414 384.34 362.711 383.853 361.84 383.479C360.969 383.104 360.028 382.776 359.016 382.495L355.476 381.484C353.229 380.838 351.449 379.915 350.138 378.716C348.827 377.518 348.171 375.949 348.171 374.01C348.171 372.399 348.607 370.995 349.478 369.796C350.358 368.588 351.538 367.651 353.018 366.986C354.507 366.312 356.169 365.975 358.005 365.975C359.859 365.975 361.508 366.307 362.95 366.972C364.392 367.628 365.535 368.527 366.378 369.669C367.23 370.812 367.68 372.109 367.726 373.561H364.355ZM377.332 366.368V395.139H373.848V366.368H377.332Z" fill="black"/>
<path id="Login External" d="M706.773 395.139V366.368H710.257V392.048H723.631V395.139H706.773ZM737.342 395.588C735.394 395.588 733.685 395.125 732.214 394.198C730.753 393.27 729.611 391.973 728.786 390.306C727.972 388.639 727.564 386.691 727.564 384.462C727.564 382.214 727.972 380.252 728.786 378.576C729.611 376.9 730.753 375.598 732.214 374.671C733.685 373.743 735.394 373.28 737.342 373.28C739.29 373.28 740.994 373.743 742.455 374.671C743.926 375.598 745.068 376.9 745.883 378.576C746.707 380.252 747.12 382.214 747.12 384.462C747.12 386.691 746.707 388.639 745.883 390.306C745.068 391.973 743.926 393.27 742.455 394.198C740.994 395.125 739.29 395.588 737.342 395.588ZM737.342 392.61C738.822 392.61 740.039 392.231 740.994 391.472C741.95 390.714 742.657 389.716 743.116 388.48C743.575 387.244 743.804 385.905 743.804 384.462C743.804 383.02 743.575 381.676 743.116 380.43C742.657 379.185 741.95 378.178 740.994 377.41C740.039 376.642 738.822 376.258 737.342 376.258C735.862 376.258 734.645 376.642 733.689 377.41C732.734 378.178 732.027 379.185 731.568 380.43C731.109 381.676 730.88 383.02 730.88 384.462C730.88 385.905 731.109 387.244 731.568 388.48C732.027 389.716 732.734 390.714 733.689 391.472C734.645 392.231 735.862 392.61 737.342 392.61ZM760.89 403.68C759.289 403.68 757.912 403.474 756.76 403.062C755.608 402.659 754.648 402.126 753.88 401.461C753.122 400.805 752.518 400.103 752.068 399.353L754.709 397.499C755.009 397.892 755.388 398.342 755.847 398.848C756.306 399.363 756.933 399.808 757.729 400.182C758.535 400.566 759.589 400.758 760.89 400.758C762.632 400.758 764.07 400.337 765.203 399.494C766.336 398.651 766.903 397.33 766.903 395.532V391.149H766.622C766.379 391.543 766.032 392.03 765.582 392.61C765.142 393.182 764.505 393.692 763.672 394.141C762.848 394.582 761.733 394.802 760.328 394.802C758.586 394.802 757.022 394.39 755.636 393.566C754.26 392.741 753.168 391.543 752.363 389.969C751.567 388.396 751.169 386.485 751.169 384.237C751.169 382.027 751.558 380.103 752.335 378.464C753.112 376.815 754.194 375.542 755.58 374.642C756.966 373.734 758.568 373.28 760.385 373.28C761.789 373.28 762.904 373.514 763.728 373.982C764.562 374.441 765.198 374.966 765.639 375.556C766.088 376.136 766.435 376.614 766.678 376.989H767.015V373.561H770.218V395.757C770.218 397.611 769.797 399.119 768.954 400.281C768.121 401.451 766.997 402.308 765.582 402.851C764.178 403.404 762.614 403.68 760.89 403.68ZM760.778 391.824C762.108 391.824 763.232 391.519 764.15 390.91C765.067 390.302 765.765 389.426 766.243 388.283C766.72 387.141 766.959 385.773 766.959 384.181C766.959 382.627 766.725 381.255 766.257 380.065C765.789 378.876 765.095 377.944 764.178 377.269C763.26 376.595 762.127 376.258 760.778 376.258C759.373 376.258 758.202 376.614 757.266 377.326C756.339 378.037 755.641 378.993 755.173 380.192C754.714 381.39 754.484 382.72 754.484 384.181C754.484 385.68 754.718 387.005 755.187 388.157C755.664 389.3 756.367 390.199 757.294 390.854C758.231 391.5 759.392 391.824 760.778 391.824ZM776.287 395.139V373.561H779.603V395.139H776.287ZM777.973 369.964C777.327 369.964 776.77 369.744 776.301 369.304C775.842 368.864 775.613 368.335 775.613 367.717C775.613 367.099 775.842 366.569 776.301 366.129C776.77 365.689 777.327 365.469 777.973 365.469C778.619 365.469 779.172 365.689 779.631 366.129C780.099 366.569 780.333 367.099 780.333 367.717C780.333 368.335 780.099 368.864 779.631 369.304C779.172 369.744 778.619 369.964 777.973 369.964ZM788.99 382.158V395.139H785.675V373.561H788.878V376.932H789.159C789.665 375.837 790.433 374.956 791.463 374.291C792.493 373.617 793.823 373.28 795.453 373.28C796.914 373.28 798.192 373.579 799.288 374.179C800.384 374.769 801.236 375.668 801.845 376.876C802.453 378.075 802.758 379.592 802.758 381.428V395.139H799.442V381.653C799.442 379.957 799.002 378.637 798.122 377.691C797.241 376.736 796.033 376.258 794.497 376.258C793.439 376.258 792.493 376.487 791.66 376.946C790.835 377.405 790.185 378.075 789.707 378.955C789.229 379.836 788.99 380.903 788.99 382.158ZM820.392 395.139V366.368H837.756V369.459H823.876V379.18H836.857V382.271H823.876V392.048H837.98V395.139H820.392ZM846.058 373.561L851.228 382.383L856.398 373.561H860.219L853.251 384.35L860.219 395.139H856.398L851.228 386.766L846.058 395.139H842.237L849.093 384.35L842.237 373.561H846.058ZM874.334 373.561V376.37H863.151V373.561H874.334ZM866.411 368.391H869.726V388.958C869.726 389.894 869.862 390.597 870.133 391.065C870.414 391.524 870.77 391.833 871.201 391.992C871.641 392.142 872.105 392.217 872.592 392.217C872.957 392.217 873.257 392.198 873.491 392.161C873.725 392.114 873.912 392.076 874.053 392.048L874.727 395.027C874.502 395.111 874.189 395.195 873.786 395.279C873.383 395.373 872.873 395.42 872.255 395.42C871.318 395.42 870.4 395.219 869.501 394.816C868.612 394.413 867.872 393.8 867.282 392.975C866.701 392.151 866.411 391.112 866.411 389.857V368.391ZM888.136 395.588C886.057 395.588 884.264 395.13 882.756 394.212C881.257 393.285 880.101 391.992 879.286 390.334C878.48 388.667 878.078 386.729 878.078 384.518C878.078 382.308 878.48 380.36 879.286 378.674C880.101 376.979 881.234 375.659 882.686 374.713C884.147 373.757 885.851 373.28 887.799 373.28C888.923 373.28 890.033 373.467 891.129 373.842C892.224 374.216 893.222 374.825 894.121 375.668C895.02 376.502 895.736 377.607 896.27 378.983C896.804 380.36 897.071 382.055 897.071 384.069V385.474H880.438V382.608H893.699C893.699 381.39 893.456 380.304 892.969 379.349C892.491 378.393 891.808 377.639 890.918 377.087C890.038 376.534 888.998 376.258 887.799 376.258C886.479 376.258 885.336 376.586 884.371 377.241C883.416 377.888 882.681 378.731 882.166 379.77C881.651 380.81 881.393 381.924 881.393 383.114V385.024C881.393 386.654 881.674 388.035 882.236 389.168C882.807 390.292 883.599 391.149 884.61 391.739C885.622 392.32 886.797 392.61 888.136 392.61C889.007 392.61 889.794 392.488 890.496 392.245C891.208 391.992 891.822 391.617 892.337 391.121C892.852 390.615 893.25 389.988 893.531 389.239L896.734 390.138C896.397 391.224 895.83 392.179 895.034 393.004C894.238 393.818 893.255 394.455 892.084 394.914C890.913 395.364 889.597 395.588 888.136 395.588ZM902.114 395.139V373.561H905.317V376.82H905.542C905.935 375.752 906.647 374.886 907.677 374.221C908.708 373.556 909.869 373.224 911.161 373.224C911.405 373.224 911.709 373.228 912.075 373.238C912.44 373.247 912.716 373.261 912.903 373.28V376.651C912.791 376.623 912.534 376.581 912.131 376.525C911.737 376.459 911.321 376.427 910.88 376.427C909.832 376.427 908.895 376.647 908.071 377.087C907.256 377.518 906.61 378.117 906.132 378.885C905.664 379.644 905.43 380.51 905.43 381.484V395.139H902.114ZM920.149 382.158V395.139H916.833V373.561H920.036V376.932H920.317C920.823 375.837 921.591 374.956 922.621 374.291C923.652 373.617 924.981 373.28 926.611 373.28C928.072 373.28 929.35 373.579 930.446 374.179C931.542 374.769 932.394 375.668 933.003 376.876C933.612 378.075 933.916 379.592 933.916 381.428V395.139H930.601V381.653C930.601 379.957 930.161 378.637 929.28 377.691C928.4 376.736 927.192 376.258 925.656 376.258C924.597 376.258 923.652 376.487 922.818 376.946C921.994 377.405 921.343 378.075 920.865 378.955C920.388 379.836 920.149 380.903 920.149 382.158ZM946.324 395.645C944.957 395.645 943.716 395.387 942.602 394.872C941.487 394.348 940.602 393.594 939.946 392.61C939.291 391.617 938.963 390.419 938.963 389.014C938.963 387.778 939.207 386.775 939.694 386.008C940.181 385.23 940.831 384.621 941.646 384.181C942.461 383.741 943.36 383.413 944.344 383.198C945.336 382.973 946.334 382.795 947.336 382.664C948.647 382.495 949.71 382.369 950.525 382.285C951.349 382.191 951.948 382.037 952.323 381.821C952.707 381.606 952.899 381.231 952.899 380.697V380.585C952.899 379.199 952.52 378.122 951.761 377.354C951.012 376.586 949.874 376.202 948.347 376.202C946.765 376.202 945.524 376.548 944.624 377.241C943.725 377.934 943.093 378.674 942.728 379.461L939.581 378.337C940.143 377.026 940.892 376.005 941.829 375.275C942.775 374.535 943.805 374.02 944.92 373.729C946.043 373.43 947.149 373.28 948.235 373.28C948.928 373.28 949.724 373.364 950.623 373.533C951.532 373.692 952.407 374.024 953.25 374.53C954.102 375.036 954.81 375.799 955.371 376.82C955.933 377.841 956.214 379.208 956.214 380.922V395.139H952.899V392.217H952.73C952.506 392.685 952.131 393.186 951.607 393.72C951.082 394.254 950.384 394.708 949.513 395.083C948.642 395.457 947.579 395.645 946.324 395.645ZM946.83 392.666C948.141 392.666 949.246 392.409 950.145 391.894C951.054 391.379 951.738 390.714 952.197 389.899C952.665 389.084 952.899 388.227 952.899 387.328V384.294C952.758 384.462 952.449 384.617 951.972 384.757C951.503 384.888 950.96 385.005 950.342 385.108C949.733 385.202 949.139 385.286 948.558 385.361C947.987 385.427 947.523 385.483 947.167 385.53C946.306 385.642 945.5 385.825 944.751 386.078C944.011 386.321 943.412 386.691 942.953 387.188C942.503 387.675 942.278 388.34 942.278 389.182C942.278 390.334 942.705 391.205 943.557 391.795C944.418 392.376 945.51 392.666 946.83 392.666ZM965.581 366.368V395.139H962.266V366.368H965.581Z" fill="black"/>
<path id="Vector_4" d="M1102.19 365.93L1124.16 382.413L1102.19 398.897" stroke="#111827" stroke-width="5.49444" stroke-linecap="round" stroke-linejoin="round"/>
<path id="Vector_5" d="M609.883 365.93L631.861 382.413L609.883 398.897" stroke="#111827" stroke-width="5.49444" stroke-linecap="round" stroke-linejoin="round"/>
<line id="Line 2" x1="692.3" y1="404.941" x2="1131.86" y2="404.941" stroke="black" stroke-width="1.09889"/>
<line id="Line 1" x1="193.404" y1="404.941" x2="641.751" y2="404.941" stroke="black" stroke-width="1.09889"/>
</g>
<g id="Step 1">
<rect x="36.3333" y="32.9667" width="187.91" height="187.91" rx="93.955" fill="black" fill-opacity="0.25"/>
<path id="1" d="M139.269 168H123.339V124.431C123.339 123.236 123.339 121.759 123.339 120.001C123.41 118.242 123.48 116.414 123.55 114.515C123.621 112.616 123.691 110.928 123.761 109.451C123.41 109.873 122.636 110.647 121.44 111.772C120.315 112.827 119.26 113.776 118.276 114.62L109.625 121.583L101.924 111.983L126.188 92.6778H139.269V168Z" fill="white"/>
</g>
<g id="Indicators">
<path id="Circle" d="M417.333 473C565.898 473 686.333 432.258 686.333 382C686.333 331.742 565.898 291 417.333 291C268.769 291 148.333 331.742 148.333 382C148.333 432.258 268.769 473 417.333 473Z" stroke="#00C800" stroke-width="10.9889"/>
<path id="Arrow" d="M550.386 275.797C550.827 279.081 553.846 281.387 557.13 280.947L610.652 273.774C613.936 273.334 616.242 270.314 615.802 267.03C615.361 263.746 612.342 261.44 609.058 261.88L561.483 268.256L555.107 220.682C554.667 217.397 551.648 215.092 548.363 215.532C545.079 215.972 542.773 218.991 543.213 222.276L550.386 275.797ZM724.333 55L719.565 51.3585L551.565 271.359L556.333 275L561.102 278.641L729.102 58.6415L724.333 55Z" fill="#00C800"/>
</g>
</g>
</g>
<defs>
<clipPath id="clip0_22_142">
<rect width="1318.67" height="791.2" rx="74.39" fill="white"/>
</clipPath>
</defs>
</svg>
