<svg width="1318" height="791" viewBox="0 0 1318 791" fill="none" xmlns="http://www.w3.org/2000/svg">
<g clip-path="url(#clip0_23_216)">
<mask id="mask0_23_216" style="mask-type:luminance" maskUnits="userSpaceOnUse" x="0" y="0" width="1318" height="791">
<path d="M1274.07 0H43.9333C19.6696 0 0 19.6696 0 43.9333V746.867C0 771.13 19.6696 790.8 43.9333 790.8H1274.07C1298.33 790.8 1318 771.13 1318 746.867V43.9333C1318 19.6696 1298.33 0 1274.07 0Z" fill="white"/>
</mask>
<g mask="url(#mask0_23_216)">
<path d="M1318 0H0V790.8H1318V0Z" fill="white"/>
<path d="M417.367 0H0V790.8H417.367V0Z" fill="url(#paint0_linear_23_216)"/>
<path d="M989.854 87.49V76.307H991.208V81.2869H997.171V76.307H998.525V87.49H997.171V82.4882H991.208V87.49H989.854ZM1004.58 87.6647C1003.77 87.6647 1003.07 87.4863 1002.49 87.1296C1001.9 86.7692 1001.45 86.2668 1001.14 85.6225C1000.83 84.9745 1000.67 84.221 1000.67 83.3619C1000.67 82.5028 1000.83 81.7456 1001.14 81.0903C1001.45 80.4314 1001.9 79.9181 1002.46 79.5505C1003.03 79.1792 1003.69 78.9935 1004.45 78.9935C1004.88 78.9935 1005.32 79.0663 1005.74 79.2119C1006.17 79.3575 1006.56 79.5942 1006.9 79.9218C1007.25 80.2458 1007.53 80.6753 1007.74 81.2105C1007.95 81.7456 1008.05 82.4045 1008.05 83.1871V83.7332H1001.59V82.6193H1006.74C1006.74 82.146 1006.65 81.7237 1006.46 81.3524C1006.27 80.9811 1006.01 80.6881 1005.66 80.4733C1005.32 80.2585 1004.91 80.1511 1004.45 80.1511C1003.93 80.1511 1003.49 80.2785 1003.11 80.5334C1002.74 80.7845 1002.46 81.1122 1002.26 81.5162C1002.06 81.9203 1001.96 82.3535 1001.96 82.8158V83.5585C1001.96 84.1919 1002.07 84.7288 1002.28 85.1693C1002.51 85.6061 1002.81 85.9392 1003.21 86.1686C1003.6 86.3943 1004.06 86.5071 1004.58 86.5071C1004.92 86.5071 1005.22 86.4598 1005.5 86.3651C1005.77 86.2668 1006.01 86.1212 1006.21 85.9283C1006.41 85.7317 1006.57 85.4878 1006.68 85.1966L1007.92 85.5461C1007.79 85.9683 1007.57 86.3397 1007.26 86.66C1006.95 86.9767 1006.57 87.2242 1006.11 87.4026C1005.66 87.5774 1005.15 87.6647 1004.58 87.6647ZM1011.3 76.307V87.49H1010.01V76.307H1011.3ZM1013.66 90.6352V79.1027H1014.91V80.4351H1015.06C1015.15 80.2895 1015.28 80.1038 1015.45 79.8781C1015.62 79.6488 1015.87 79.4449 1016.18 79.2665C1016.5 79.0845 1016.94 78.9935 1017.48 78.9935C1018.19 78.9935 1018.81 79.1701 1019.35 79.5232C1019.89 79.8763 1020.31 80.3768 1020.61 81.0248C1020.91 81.6728 1021.06 82.4372 1021.06 83.3182C1021.06 84.2064 1020.91 84.9764 1020.61 85.628C1020.31 86.2759 1019.89 86.7783 1019.36 87.1351C1018.82 87.4882 1018.2 87.6647 1017.5 87.6647C1016.97 87.6647 1016.53 87.5755 1016.21 87.3972C1015.89 87.2151 1015.64 87.0095 1015.46 86.7801C1015.29 86.5472 1015.15 86.3542 1015.06 86.2013H1014.95V90.6352H1013.66ZM1014.93 83.2964C1014.93 83.9298 1015.02 84.4886 1015.21 84.9727C1015.39 85.4532 1015.66 85.83 1016.02 86.103C1016.38 86.3724 1016.81 86.5071 1017.33 86.5071C1017.87 86.5071 1018.32 86.3651 1018.68 86.0812C1019.04 85.7936 1019.32 85.4077 1019.5 84.9236C1019.68 84.4358 1019.78 83.8934 1019.78 83.2964C1019.78 82.7066 1019.69 82.1751 1019.5 81.7019C1019.32 81.225 1019.05 80.8482 1018.69 80.5716C1018.33 80.2913 1017.88 80.1511 1017.33 80.1511C1016.81 80.1511 1016.37 80.284 1016.01 80.5497C1015.65 80.8118 1015.38 81.1795 1015.2 81.6528C1015.02 82.1224 1014.93 82.6702 1014.93 83.2964Z" fill="#4B5563"/>
<path d="M1055.75 87.49V76.307H1062.5V77.5083H1057.11V81.2869H1062.15V82.4882H1057.11V86.2887H1062.59V87.49H1055.75ZM1073.81 76.307V87.49H1072.5L1066.41 78.7096H1066.3V87.49H1064.94V76.307H1066.25L1072.37 85.1092H1072.48V76.307H1073.81Z" fill="#4B5563"/>
<path d="M1078.56 75.785L1085.15 82.375L1078.56 88.965" stroke="#4B5563" stroke-width="1.6475" stroke-linecap="round" stroke-linejoin="round"/>
<g clip-path="url(#clip1_23_216)">
<path d="M666.688 0H452.513V150.472H666.688V0Z" fill="white"/>
<path d="M571.252 71.9291C575.12 71.9291 578.515 74.3945 578.515 79.1494C578.515 79.5016 578.515 79.9125 578.456 80.5289H567.414C567.651 82.4954 569.392 83.5813 571.341 83.5813C573.171 83.5813 574.5 82.7302 575.149 81.7322L578.161 83.9629C576.803 85.9294 574.411 87.2502 571.311 87.2502C566.912 87.2502 563.488 84.2271 563.488 79.5896C563.488 75.2457 566.765 71.9291 571.252 71.9291ZM567.562 77.7992H574.47C574.116 76.0675 572.64 75.2457 571.134 75.2457C569.629 75.2457 567.946 76.0088 567.562 77.7992Z" fill="#31749E"/>
<path d="M587.49 71.929C589.527 71.929 591.092 72.9563 591.741 73.8955V64.9142H595.786V86.9273H591.741V85.2836C591.092 86.2229 589.527 87.2501 587.49 87.2501C583.564 87.2501 580.552 83.7574 580.552 79.5896C580.552 75.4218 583.564 71.929 587.49 71.929ZM588.346 75.5979C586.132 75.5979 584.626 77.3002 584.626 79.5896C584.626 81.8789 586.132 83.5813 588.346 83.5813C590.561 83.5813 592.066 81.8789 592.066 79.5896C592.066 77.3002 590.561 75.5979 588.346 75.5979Z" fill="#31749E"/>
<path d="M599.536 72.252H603.58V80.0886C603.58 82.2899 604.348 83.5814 606.09 83.5814C607.832 83.5814 609.131 82.2606 609.131 79.4135V72.252H613.175V86.9273H609.131V85.2543C608.363 86.4284 606.975 87.2502 605.086 87.2502C601.514 87.2502 599.536 84.6673 599.536 80.7637V72.252Z" fill="#31749E"/>
<path d="M616.806 76.772H625.25V80.6463H616.806V76.772Z" fill="#31749E"/>
<path d="M629.265 66.0883H633.546V86.9273H629.265V66.0883Z" fill="#31749E"/>
<path d="M638.211 66.0883H645.119C651.142 66.0883 655.895 70.6963 655.895 76.5078C655.895 82.3192 651.142 86.9273 645.119 86.9273H638.211V66.0883ZM645.117 83.0237C648.984 83.0237 651.582 80.1179 651.582 76.5078C651.582 72.8976 648.984 69.9919 645.117 69.9919H642.489V83.0237H645.117Z" fill="#31749E"/>
<path d="M538.622 86.9714H542.905V79.3695C542.905 76.4124 544.379 75.0011 546.382 75.0011C548.161 75.0011 549.108 76.3293 549.108 78.5942V86.9714H553.418V77.8482C553.418 73.8124 551.165 71.1024 547.356 71.1024C545.326 71.1024 543.742 71.9315 542.905 73.1765V66.0149H538.622V86.9714ZM529.945 87.3872C533.06 87.3872 535.675 85.5625 536.925 82.8525L533.281 80.8884C532.698 82.3804 531.419 83.349 529.945 83.349C527.969 83.349 526.412 81.5244 526.412 79.2007C526.412 76.8771 527.969 75.1088 529.945 75.1088C531.419 75.1088 532.671 76.048 533.254 77.5424L536.898 75.5515C535.645 72.8977 533.032 71.0999 529.945 71.0999C525.578 71.0999 522.158 74.6391 522.158 79.2007C522.158 83.7624 525.578 87.3847 529.945 87.3847V87.3872ZM519.265 87.304C520.042 87.304 520.601 87.2771 521.1 87.1939V83.4615C520.849 83.4884 520.544 83.4884 520.266 83.4884C518.404 83.4884 517.597 82.7424 517.597 80.8346V75.1675H520.99V71.435H517.597V66.0174H513.314V71.435H510.866V75.1675H513.314V81.6931C513.314 85.5087 515.956 87.3065 519.265 87.3065V87.304ZM504.498 86.9714H508.809V71.4326H504.498V86.9714ZM471.044 87.4703C475.576 87.4703 478.747 84.8165 478.747 80.8615C478.747 77.5449 476.801 75.5246 473.492 74.3359L471.74 73.6999C469.349 72.8439 468.264 72.2348 468.264 70.8529C468.264 69.5541 469.71 68.8619 471.295 68.8619C472.769 68.8619 474.021 69.3878 475.049 70.3539L477.942 67.3675C476.218 65.626 473.91 64.7406 471.268 64.7406C466.93 64.7406 463.786 67.1743 463.786 71.2932C463.786 74.3065 465.649 76.3244 469.236 77.5693L471.128 78.2322C473.325 79.0051 474.242 79.8905 474.242 81.1355C474.242 82.4636 473.047 83.3465 471.211 83.3465C469.376 83.3465 467.513 82.378 466.318 80.6365L463.146 83.733C464.593 85.9172 467.54 87.4654 471.044 87.4654V87.4703ZM483.335 86.9714H487.619L490.455 78.1515L493.43 86.9714H497.684L502.828 71.4326H498.267L495.319 81.3849L492.094 71.4326H488.868L485.697 81.3849L482.723 71.4326H478.134L483.335 86.9714Z" fill="#1F2F61"/>
<path d="M506.668 69.8941C508.142 69.8941 509.365 68.6784 509.365 67.184C509.365 65.6896 508.142 64.5033 506.668 64.5033C505.195 64.5033 503.942 65.7189 503.942 67.184C503.942 68.6491 505.165 69.8941 506.668 69.8941Z" fill="#1F2F61"/>
<path d="M563.704 89.8746H549.105V93.744H563.704V89.8746Z" fill="#FBAA19"/>
</g>
<path d="M463.244 185.963V163.597H467.973V182.065H477.561V185.963H463.244ZM488.185 186.291C486.488 186.291 485.021 185.931 483.784 185.21C482.553 184.482 481.603 183.47 480.933 182.174C480.263 180.871 479.928 179.36 479.928 177.642C479.928 175.909 480.263 174.394 480.933 173.099C481.603 171.795 482.553 170.783 483.784 170.063C485.021 169.334 486.488 168.97 488.185 168.97C489.881 168.97 491.344 169.334 492.575 170.063C493.813 170.783 494.766 171.795 495.436 173.099C496.106 174.394 496.441 175.909 496.441 177.642C496.441 179.36 496.106 180.871 495.436 182.174C494.766 183.47 493.813 184.482 492.575 185.21C491.344 185.931 489.881 186.291 488.185 186.291ZM488.206 182.687C488.978 182.687 489.623 182.469 490.139 182.032C490.656 181.588 491.046 180.983 491.308 180.219C491.577 179.455 491.712 178.584 491.712 177.609C491.712 176.633 491.577 175.763 491.308 174.999C491.046 174.234 490.656 173.63 490.139 173.186C489.623 172.742 488.978 172.52 488.206 172.52C487.427 172.52 486.772 172.742 486.241 173.186C485.717 173.63 485.32 174.234 485.05 174.999C484.788 175.763 484.657 176.633 484.657 177.609C484.657 178.584 484.788 179.455 485.05 180.219C485.32 180.983 485.717 181.588 486.241 182.032C486.772 182.469 487.427 182.687 488.206 182.687ZM507.023 192.603C505.516 192.603 504.224 192.396 503.146 191.981C502.076 191.573 501.224 191.016 500.591 190.31C499.957 189.604 499.546 188.81 499.357 187.929L503.66 187.35C503.791 187.685 503.998 187.998 504.282 188.29C504.566 188.581 504.941 188.814 505.407 188.988C505.88 189.17 506.455 189.261 507.132 189.261C508.144 189.261 508.978 189.014 509.633 188.519C510.296 188.031 510.627 187.212 510.627 186.062V182.993H510.431C510.227 183.459 509.921 183.899 509.513 184.314C509.106 184.729 508.581 185.068 507.941 185.33C507.3 185.592 506.535 185.723 505.647 185.723C504.388 185.723 503.241 185.432 502.207 184.849C501.181 184.26 500.361 183.361 499.75 182.152C499.146 180.936 498.843 179.4 498.843 177.543C498.843 175.643 499.153 174.056 499.772 172.782C500.391 171.508 501.213 170.554 502.24 169.921C503.274 169.287 504.406 168.97 505.636 168.97C506.575 168.97 507.362 169.131 507.995 169.451C508.629 169.764 509.138 170.157 509.524 170.63C509.917 171.096 510.219 171.555 510.431 172.006H510.605V169.189H515.225V186.127C515.225 187.554 514.875 188.748 514.176 189.709C513.478 190.67 512.509 191.391 511.271 191.872C510.041 192.359 508.625 192.603 507.023 192.603ZM507.122 182.228C507.871 182.228 508.505 182.043 509.022 181.671C509.546 181.293 509.946 180.754 510.223 180.055C510.507 179.349 510.649 178.504 510.649 177.522C510.649 176.539 510.511 175.687 510.234 174.966C509.957 174.238 509.557 173.674 509.033 173.273C508.508 172.873 507.871 172.673 507.122 172.673C506.357 172.673 505.713 172.88 505.189 173.295C504.664 173.703 504.268 174.271 503.998 174.999C503.729 175.727 503.594 176.568 503.594 177.522C503.594 178.49 503.729 179.327 503.998 180.033C504.275 180.732 504.672 181.275 505.189 181.661C505.713 182.039 506.357 182.228 507.122 182.228ZM518.927 185.963V169.189H523.579V185.963H518.927ZM521.264 167.026C520.572 167.026 519.979 166.797 519.484 166.338C518.996 165.873 518.752 165.316 518.752 164.668C518.752 164.027 518.996 163.477 519.484 163.019C519.979 162.553 520.572 162.32 521.264 162.32C521.956 162.32 522.546 162.553 523.033 163.019C523.528 163.477 523.776 164.027 523.776 164.668C523.776 165.316 523.528 165.873 523.033 166.338C522.546 166.797 521.956 167.026 521.264 167.026ZM531.958 176.266V185.963H527.306V169.189H531.74V172.148H531.937C532.308 171.173 532.93 170.401 533.804 169.833C534.678 169.258 535.737 168.97 536.982 168.97C538.147 168.97 539.163 169.225 540.029 169.735C540.895 170.245 541.569 170.973 542.049 171.919C542.53 172.858 542.77 173.979 542.77 175.283V185.963H538.118V176.113C538.125 175.086 537.863 174.285 537.332 173.71C536.8 173.128 536.068 172.836 535.136 172.836C534.51 172.836 533.957 172.971 533.476 173.24C533.003 173.51 532.632 173.903 532.363 174.42C532.1 174.93 531.966 175.545 531.958 176.266Z" fill="#173B5F"/>
<path d="M462.133 235.962V226.376H468.592V228.047H464.16V230.331H468.26V232.002H464.16V234.291H468.611V235.962H462.133ZM474.645 231.234V232.816H470.274V231.234H474.645ZM476.344 235.962V228.773H478.244V230.041H478.329C478.478 229.62 478.728 229.287 479.077 229.044C479.427 228.801 479.845 228.679 480.332 228.679C480.825 228.679 481.244 228.802 481.591 229.049C481.937 229.292 482.168 229.623 482.283 230.041H482.358C482.505 229.629 482.77 229.3 483.154 229.053C483.541 228.804 483.998 228.679 484.525 228.679C485.196 228.679 485.741 228.893 486.159 229.32C486.58 229.745 486.791 230.347 486.791 231.127V235.962H484.801V231.52C484.801 231.121 484.695 230.821 484.483 230.621C484.271 230.422 484.006 230.322 483.688 230.322C483.326 230.322 483.043 230.437 482.84 230.668C482.638 230.896 482.536 231.197 482.536 231.571V235.962H480.603V231.478C480.603 231.125 480.502 230.844 480.299 230.635C480.099 230.426 479.836 230.322 479.508 230.322C479.286 230.322 479.087 230.378 478.909 230.49C478.734 230.599 478.595 230.754 478.492 230.954C478.389 231.15 478.338 231.381 478.338 231.646V235.962H476.344ZM490.416 236.097C489.957 236.097 489.548 236.018 489.189 235.859C488.831 235.696 488.547 235.458 488.338 235.143C488.132 234.824 488.029 234.428 488.029 233.954C488.029 233.554 488.102 233.219 488.249 232.947C488.395 232.676 488.595 232.458 488.848 232.292C489.1 232.127 489.388 232.002 489.709 231.918C490.033 231.834 490.374 231.774 490.729 231.74C491.147 231.696 491.484 231.656 491.74 231.618C491.996 231.578 492.182 231.518 492.297 231.44C492.413 231.362 492.47 231.247 492.47 231.094V231.066C492.47 230.77 492.377 230.54 492.19 230.378C492.005 230.216 491.743 230.135 491.403 230.135C491.044 230.135 490.759 230.214 490.547 230.373C490.335 230.529 490.194 230.726 490.125 230.963L488.281 230.813C488.375 230.376 488.559 229.999 488.834 229.681C489.108 229.359 489.462 229.113 489.896 228.941C490.333 228.766 490.838 228.679 491.413 228.679C491.812 228.679 492.194 228.726 492.559 228.819C492.927 228.913 493.254 229.058 493.537 229.255C493.825 229.451 494.051 229.704 494.216 230.013C494.381 230.319 494.464 230.685 494.464 231.113V235.962H492.573V234.965H492.517C492.402 235.189 492.247 235.388 492.054 235.559C491.86 235.728 491.628 235.86 491.356 235.957C491.085 236.051 490.771 236.097 490.416 236.097ZM490.987 234.721C491.28 234.721 491.539 234.664 491.764 234.548C491.988 234.43 492.165 234.27 492.292 234.071C492.42 233.871 492.484 233.645 492.484 233.392V232.629C492.422 232.67 492.336 232.707 492.227 232.742C492.121 232.773 492.001 232.802 491.867 232.83C491.732 232.855 491.598 232.879 491.464 232.901C491.33 232.919 491.208 232.937 491.099 232.952C490.865 232.986 490.661 233.041 490.486 233.116C490.311 233.191 490.175 233.292 490.079 233.42C489.982 233.545 489.934 233.701 489.934 233.888C489.934 234.16 490.032 234.367 490.228 234.511C490.428 234.651 490.681 234.721 490.987 234.721ZM496.011 235.962V228.773H498.005V235.962H496.011ZM497.013 227.846C496.716 227.846 496.462 227.748 496.25 227.551C496.041 227.351 495.936 227.113 495.936 226.835C495.936 226.56 496.041 226.325 496.25 226.128C496.462 225.928 496.716 225.829 497.013 225.829C497.309 225.829 497.562 225.928 497.771 226.128C497.983 226.325 498.089 226.56 498.089 226.835C498.089 227.113 497.983 227.351 497.771 227.551C497.562 227.748 497.309 227.846 497.013 227.846ZM501.596 226.376V235.962H499.602V226.376H501.596Z" fill="#4B5563"/>
<path d="M461.3 263.6H790.8" stroke="#E5E7EB" stroke-width="2.19667"/>
<path d="M462.311 250.739H463.416V258.453C463.416 258.896 463.339 259.279 463.186 259.604C463.036 259.928 462.809 260.18 462.503 260.357C462.2 260.535 461.818 260.624 461.356 260.624C461.319 260.624 461.281 260.624 461.244 260.624C461.206 260.624 461.169 260.624 461.132 260.624V259.595C461.169 259.595 461.203 259.595 461.235 259.595C461.266 259.595 461.3 259.595 461.337 259.595C461.674 259.595 461.921 259.495 462.077 259.295C462.233 259.098 462.311 258.818 462.311 258.453V250.739ZM462.854 249.541C462.639 249.541 462.453 249.468 462.297 249.321C462.144 249.174 462.068 248.998 462.068 248.792C462.068 248.586 462.144 248.41 462.297 248.263C462.453 248.117 462.639 248.043 462.854 248.043C463.069 248.043 463.253 248.117 463.406 248.263C463.562 248.41 463.64 248.586 463.64 248.792C463.64 248.998 463.562 249.174 463.406 249.321C463.253 249.468 463.069 249.541 462.854 249.541ZM466.543 248.343V257.928H465.439V248.343H466.543ZM471.581 258.078C470.888 258.078 470.29 257.925 469.788 257.619C469.289 257.311 468.903 256.88 468.632 256.328C468.364 255.772 468.229 255.126 468.229 254.39C468.229 253.654 468.364 253.005 468.632 252.443C468.903 251.878 469.281 251.438 469.765 251.123C470.251 250.805 470.819 250.646 471.468 250.646C471.843 250.646 472.212 250.708 472.577 250.833C472.943 250.958 473.275 251.16 473.574 251.441C473.874 251.719 474.113 252.087 474.29 252.546C474.468 253.005 474.557 253.569 474.557 254.24V254.708H469.016V253.753H473.434C473.434 253.348 473.353 252.986 473.191 252.668C473.031 252.349 472.804 252.098 472.507 251.914C472.214 251.73 471.868 251.638 471.468 251.638C471.028 251.638 470.648 251.747 470.326 251.966C470.008 252.181 469.763 252.462 469.591 252.808C469.42 253.154 469.334 253.526 469.334 253.922V254.558C469.334 255.101 469.428 255.562 469.615 255.939C469.805 256.314 470.069 256.599 470.406 256.796C470.743 256.989 471.134 257.086 471.581 257.086C471.871 257.086 472.133 257.045 472.367 256.964C472.604 256.88 472.808 256.755 472.98 256.59C473.152 256.421 473.284 256.212 473.378 255.963L474.445 256.262C474.333 256.624 474.144 256.942 473.879 257.217C473.613 257.488 473.286 257.701 472.896 257.853C472.506 258.003 472.067 258.078 471.581 258.078ZM476.868 250.739L478.591 253.679L480.313 250.739H481.586L479.265 254.334L481.586 257.928H480.313L478.591 255.139L476.868 257.928H475.595L477.879 254.334L475.595 250.739H476.868ZM483.967 258.003C483.736 258.003 483.538 257.921 483.373 257.755C483.207 257.59 483.125 257.392 483.125 257.161C483.125 256.93 483.207 256.732 483.373 256.566C483.538 256.401 483.736 256.318 483.967 256.318C484.198 256.318 484.396 256.401 484.562 256.566C484.727 256.732 484.81 256.93 484.81 257.161C484.81 257.314 484.771 257.454 484.693 257.582C484.618 257.71 484.516 257.813 484.388 257.891C484.264 257.966 484.123 258.003 483.967 258.003ZM489.918 250.739V251.675H486.193V250.739H489.918ZM487.279 249.017H488.383V255.869C488.383 256.181 488.428 256.415 488.519 256.571C488.613 256.724 488.731 256.827 488.875 256.88C489.021 256.93 489.176 256.955 489.338 256.955C489.46 256.955 489.56 256.949 489.638 256.936C489.716 256.92 489.778 256.908 489.825 256.899L490.049 257.891C489.975 257.919 489.87 257.947 489.736 257.975C489.602 258.006 489.432 258.022 489.226 258.022C488.914 258.022 488.608 257.955 488.308 257.821C488.012 257.687 487.765 257.482 487.569 257.208C487.375 256.933 487.279 256.587 487.279 256.169V249.017ZM493.695 258.097C493.24 258.097 492.826 258.011 492.455 257.839C492.084 257.665 491.789 257.414 491.571 257.086C491.352 256.755 491.243 256.356 491.243 255.888C491.243 255.476 491.324 255.142 491.486 254.886C491.649 254.627 491.865 254.424 492.137 254.278C492.408 254.131 492.708 254.022 493.035 253.95C493.366 253.875 493.699 253.816 494.032 253.772C494.469 253.716 494.823 253.674 495.095 253.646C495.369 253.615 495.569 253.563 495.694 253.491C495.822 253.42 495.886 253.295 495.886 253.117V253.079C495.886 252.618 495.759 252.259 495.507 252.003C495.257 251.747 494.878 251.619 494.369 251.619C493.842 251.619 493.429 251.735 493.129 251.966C492.83 252.196 492.619 252.443 492.497 252.705L491.449 252.331C491.636 251.894 491.886 251.554 492.198 251.31C492.513 251.064 492.856 250.892 493.227 250.795C493.602 250.696 493.97 250.646 494.332 250.646C494.563 250.646 494.828 250.674 495.128 250.73C495.43 250.783 495.722 250.894 496.003 251.062C496.287 251.231 496.522 251.485 496.71 251.825C496.897 252.165 496.99 252.621 496.99 253.192V257.928H495.886V256.955H495.83C495.755 257.111 495.63 257.278 495.455 257.456C495.281 257.633 495.048 257.785 494.758 257.91C494.468 258.034 494.114 258.097 493.695 258.097ZM493.864 257.105C494.301 257.105 494.669 257.019 494.968 256.847C495.271 256.676 495.499 256.454 495.652 256.183C495.808 255.911 495.886 255.626 495.886 255.326V254.315C495.839 254.371 495.736 254.423 495.577 254.47C495.421 254.513 495.24 254.552 495.034 254.587C494.831 254.618 494.633 254.646 494.44 254.671C494.249 254.693 494.095 254.711 493.976 254.727C493.689 254.764 493.421 254.825 493.171 254.909C492.925 254.991 492.725 255.114 492.572 255.279C492.422 255.441 492.347 255.663 492.347 255.944C492.347 256.328 492.489 256.618 492.773 256.814C493.06 257.008 493.424 257.105 493.864 257.105ZM499.461 260.624C499.273 260.624 499.106 260.609 498.96 260.577C498.813 260.549 498.712 260.521 498.655 260.493L498.936 259.52C499.205 259.588 499.442 259.613 499.648 259.595C499.854 259.576 500.036 259.484 500.195 259.318C500.358 259.156 500.506 258.893 500.64 258.527L500.846 257.966L498.187 250.739H499.386L501.37 256.468H501.445L503.429 250.739H504.628L501.576 258.977C501.439 259.348 501.269 259.655 501.066 259.899C500.863 260.145 500.627 260.328 500.359 260.446C500.094 260.565 499.794 260.624 499.461 260.624ZM507.19 248.343V257.928H506.086V248.343H507.19ZM512.134 258.078C511.485 258.078 510.915 257.924 510.426 257.615C509.939 257.306 509.558 256.874 509.283 256.318C509.012 255.763 508.876 255.114 508.876 254.371C508.876 253.622 509.012 252.969 509.283 252.41C509.558 251.852 509.939 251.418 510.426 251.109C510.915 250.8 511.485 250.646 512.134 250.646C512.783 250.646 513.351 250.8 513.838 251.109C514.327 251.418 514.708 251.852 514.98 252.41C515.254 252.969 515.391 253.622 515.391 254.371C515.391 255.114 515.254 255.763 514.98 256.318C514.708 256.874 514.327 257.306 513.838 257.615C513.351 257.924 512.783 258.078 512.134 258.078ZM512.134 257.086C512.627 257.086 513.032 256.96 513.351 256.707C513.669 256.454 513.905 256.122 514.057 255.71C514.21 255.298 514.287 254.852 514.287 254.371C514.287 253.891 514.21 253.443 514.057 253.028C513.905 252.613 513.669 252.278 513.351 252.022C513.032 251.766 512.627 251.638 512.134 251.638C511.641 251.638 511.235 251.766 510.917 252.022C510.599 252.278 510.363 252.613 510.21 253.028C510.057 253.443 509.981 253.891 509.981 254.371C509.981 254.852 510.057 255.298 510.21 255.71C510.363 256.122 510.599 256.454 510.917 256.707C511.235 256.96 511.641 257.086 512.134 257.086ZM517.078 257.928V250.739H518.145V251.825H518.22C518.351 251.469 518.588 251.181 518.931 250.959C519.274 250.738 519.661 250.627 520.092 250.627C520.173 250.627 520.274 250.628 520.396 250.632C520.518 250.635 520.61 250.639 520.672 250.646V251.769C520.635 251.76 520.549 251.746 520.415 251.727C520.284 251.705 520.145 251.694 519.998 251.694C519.649 251.694 519.337 251.767 519.062 251.914C518.791 252.058 518.575 252.257 518.416 252.513C518.26 252.766 518.182 253.054 518.182 253.379V257.928H517.078ZM527.504 260.456C526.549 260.456 525.705 260.325 524.972 260.063C524.239 259.804 523.623 259.421 523.123 258.916C522.624 258.41 522.247 257.791 521.991 257.058C521.735 256.325 521.607 255.485 521.607 254.54C521.607 253.625 521.736 252.808 521.995 252.087C522.258 251.366 522.637 250.755 523.133 250.252C523.632 249.747 524.237 249.362 524.949 249.096C525.663 248.831 526.471 248.699 527.373 248.699C528.25 248.699 529.018 248.842 529.676 249.129C530.337 249.413 530.89 249.798 531.333 250.285C531.779 250.769 532.113 251.313 532.334 251.919C532.559 252.524 532.671 253.148 532.671 253.791C532.671 254.243 532.65 254.702 532.606 255.167C532.562 255.632 532.47 256.059 532.33 256.449C532.189 256.836 531.972 257.148 531.679 257.385C531.389 257.623 530.996 257.741 530.5 257.741C530.281 257.741 530.041 257.707 529.779 257.638C529.517 257.57 529.284 257.456 529.082 257.296C528.879 257.137 528.759 256.924 528.721 256.655H528.665C528.59 256.836 528.475 257.008 528.319 257.17C528.166 257.332 527.965 257.462 527.715 257.559C527.468 257.655 527.167 257.697 526.812 257.685C526.406 257.669 526.049 257.579 525.74 257.414C525.431 257.245 525.172 257.017 524.963 256.73C524.757 256.44 524.601 256.105 524.495 255.724C524.392 255.34 524.34 254.927 524.34 254.484C524.34 254.062 524.403 253.677 524.528 253.328C524.652 252.978 524.826 252.672 525.047 252.41C525.272 252.148 525.534 251.939 525.833 251.783C526.136 251.624 526.462 251.526 526.812 251.488C527.124 251.457 527.408 251.471 527.663 251.53C527.919 251.586 528.13 251.672 528.295 251.788C528.461 251.9 528.565 252.025 528.609 252.162H528.665V251.638H529.657V255.869C529.657 256.131 529.731 256.362 529.877 256.562C530.024 256.761 530.238 256.861 530.518 256.861C530.837 256.861 531.08 256.752 531.249 256.534C531.42 256.315 531.537 255.978 531.6 255.523C531.665 255.067 531.698 254.484 531.698 253.772C531.698 253.354 531.64 252.942 531.525 252.537C531.412 252.128 531.241 251.746 531.01 251.39C530.782 251.034 530.493 250.721 530.144 250.449C529.795 250.178 529.384 249.965 528.913 249.813C528.445 249.657 527.913 249.579 527.317 249.579C526.584 249.579 525.927 249.692 525.347 249.92C524.769 250.145 524.278 250.474 523.872 250.908C523.47 251.338 523.162 251.863 522.95 252.48C522.741 253.095 522.637 253.794 522.637 254.577C522.637 255.373 522.741 256.08 522.95 256.697C523.162 257.315 523.474 257.836 523.886 258.261C524.301 258.685 524.815 259.006 525.426 259.225C526.038 259.446 526.743 259.557 527.542 259.557C527.885 259.557 528.223 259.524 528.557 259.459C528.891 259.393 529.186 259.322 529.442 259.244C529.698 259.166 529.882 259.108 529.994 259.07L530.256 259.932C530.063 260.013 529.81 260.094 529.498 260.175C529.189 260.256 528.858 260.323 528.506 260.376C528.156 260.429 527.823 260.456 527.504 260.456ZM526.961 256.73C527.379 256.73 527.718 256.646 527.977 256.477C528.236 256.309 528.425 256.055 528.543 255.715C528.662 255.374 528.721 254.945 528.721 254.427C528.721 253.903 528.656 253.494 528.525 253.201C528.394 252.908 528.2 252.702 527.944 252.583C527.688 252.465 527.373 252.405 526.999 252.405C526.643 252.405 526.339 252.499 526.086 252.686C525.836 252.87 525.645 253.117 525.51 253.426C525.379 253.732 525.314 254.065 525.314 254.427C525.314 254.827 525.367 255.203 525.473 255.555C525.579 255.905 525.752 256.189 525.993 256.407C526.233 256.623 526.556 256.73 526.961 256.73ZM537.339 258.078C536.646 258.078 536.049 257.925 535.546 257.619C535.047 257.311 534.662 256.88 534.39 256.328C534.122 255.772 533.988 255.126 533.988 254.39C533.988 253.654 534.122 253.005 534.39 252.443C534.662 251.878 535.039 251.438 535.523 251.123C536.01 250.805 536.578 250.646 537.227 250.646C537.601 250.646 537.971 250.708 538.336 250.833C538.701 250.958 539.033 251.16 539.333 251.441C539.632 251.719 539.871 252.087 540.049 252.546C540.227 253.005 540.316 253.569 540.316 254.24V254.708H534.774V253.753H539.192C539.192 253.348 539.111 252.986 538.949 252.668C538.79 252.349 538.562 252.098 538.266 251.914C537.972 251.73 537.626 251.638 537.227 251.638C536.787 251.638 536.406 251.747 536.085 251.966C535.766 252.181 535.521 252.462 535.35 252.808C535.178 253.154 535.092 253.526 535.092 253.922V254.558C535.092 255.101 535.186 255.562 535.373 255.939C535.564 256.314 535.827 256.599 536.164 256.796C536.501 256.989 536.893 257.086 537.339 257.086C537.629 257.086 537.891 257.045 538.125 256.964C538.362 256.88 538.567 256.755 538.738 256.59C538.91 256.421 539.043 256.212 539.136 255.963L540.203 256.262C540.091 256.624 539.902 256.942 539.637 257.217C539.372 257.488 539.044 257.701 538.654 257.853C538.264 258.003 537.826 258.078 537.339 258.078ZM542.627 250.739L544.349 253.679L546.071 250.739H547.344L545.023 254.334L547.344 257.928H546.071L544.349 255.139L542.627 257.928H541.354L543.638 254.334L541.354 250.739H542.627ZM551.036 258.097C550.581 258.097 550.167 258.011 549.796 257.839C549.425 257.665 549.13 257.414 548.911 257.086C548.693 256.755 548.584 256.356 548.584 255.888C548.584 255.476 548.665 255.142 548.827 254.886C548.989 254.627 549.206 254.424 549.478 254.278C549.749 254.131 550.049 254.022 550.376 253.95C550.707 253.875 551.039 253.816 551.373 253.772C551.81 253.716 552.164 253.674 552.436 253.646C552.71 253.615 552.91 253.563 553.035 253.491C553.163 253.42 553.227 253.295 553.227 253.117V253.079C553.227 252.618 553.1 252.259 552.847 252.003C552.598 251.747 552.219 251.619 551.71 251.619C551.183 251.619 550.769 251.735 550.47 251.966C550.17 252.196 549.96 252.443 549.838 252.705L548.79 252.331C548.977 251.894 549.226 251.554 549.538 251.31C549.854 251.064 550.197 250.892 550.568 250.795C550.943 250.696 551.311 250.646 551.673 250.646C551.904 250.646 552.169 250.674 552.468 250.73C552.771 250.783 553.063 250.894 553.344 251.062C553.628 251.231 553.863 251.485 554.05 251.825C554.238 252.165 554.331 252.621 554.331 253.192V257.928H553.227V256.955H553.17C553.096 257.111 552.971 257.278 552.796 257.456C552.621 257.633 552.389 257.785 552.099 257.91C551.808 258.034 551.454 258.097 551.036 258.097ZM551.205 257.105C551.641 257.105 552.01 257.019 552.309 256.847C552.612 256.676 552.84 256.454 552.993 256.183C553.149 255.911 553.227 255.626 553.227 255.326V254.315C553.18 254.371 553.077 254.423 552.918 254.47C552.762 254.513 552.581 254.552 552.375 254.587C552.172 254.618 551.974 254.646 551.78 254.671C551.59 254.693 551.436 254.711 551.317 254.727C551.03 254.764 550.762 254.825 550.512 254.909C550.265 254.991 550.066 255.114 549.913 255.279C549.763 255.441 549.688 255.663 549.688 255.944C549.688 256.328 549.83 256.618 550.114 256.814C550.401 257.008 550.765 257.105 551.205 257.105ZM556.347 257.928V250.739H557.414V251.863H557.508C557.658 251.479 557.9 251.181 558.233 250.969C558.567 250.753 558.968 250.646 559.436 250.646C559.911 250.646 560.305 250.753 560.62 250.969C560.939 251.181 561.187 251.479 561.365 251.863H561.439C561.624 251.491 561.9 251.196 562.268 250.978C562.636 250.756 563.078 250.646 563.592 250.646C564.235 250.646 564.761 250.847 565.17 251.249C565.579 251.649 565.783 252.271 565.783 253.117V257.928H564.678V253.117C564.678 252.586 564.533 252.207 564.243 251.98C563.953 251.752 563.611 251.638 563.218 251.638C562.713 251.638 562.321 251.791 562.043 252.097C561.766 252.399 561.627 252.783 561.627 253.248V257.928H560.503V253.005C560.503 252.596 560.371 252.267 560.106 252.017C559.84 251.764 559.499 251.638 559.081 251.638C558.794 251.638 558.525 251.714 558.276 251.867C558.029 252.02 557.829 252.232 557.676 252.504C557.527 252.772 557.452 253.083 557.452 253.435V257.928H556.347ZM567.803 260.624V250.739H568.87V251.881H569.001C569.082 251.756 569.194 251.597 569.338 251.404C569.484 251.207 569.693 251.033 569.965 250.88C570.239 250.724 570.611 250.646 571.079 250.646C571.684 250.646 572.218 250.797 572.679 251.1C573.141 251.402 573.502 251.831 573.761 252.387C574.02 252.942 574.149 253.597 574.149 254.353C574.149 255.114 574.02 255.774 573.761 256.332C573.502 256.888 573.143 257.318 572.684 257.624C572.225 257.927 571.697 258.078 571.098 258.078C570.636 258.078 570.266 258.002 569.988 257.849C569.711 257.693 569.497 257.516 569.347 257.32C569.197 257.12 569.082 256.955 569.001 256.824H568.907V260.624H567.803ZM568.888 254.334C568.888 254.877 568.968 255.356 569.127 255.771C569.286 256.183 569.519 256.506 569.824 256.74C570.13 256.97 570.505 257.086 570.948 257.086C571.41 257.086 571.795 256.964 572.104 256.721C572.416 256.474 572.65 256.144 572.806 255.729C572.965 255.31 573.045 254.846 573.045 254.334C573.045 253.828 572.967 253.373 572.811 252.967C572.658 252.558 572.425 252.235 572.113 251.998C571.804 251.758 571.416 251.638 570.948 251.638C570.498 251.638 570.121 251.752 569.815 251.98C569.509 252.204 569.278 252.519 569.122 252.925C568.966 253.328 568.888 253.797 568.888 254.334ZM576.939 248.343V257.928H575.834V248.343H576.939ZM581.976 258.078C581.283 258.078 580.686 257.925 580.183 257.619C579.684 257.311 579.299 256.88 579.027 256.328C578.759 255.772 578.625 255.126 578.625 254.39C578.625 253.654 578.759 253.005 579.027 252.443C579.299 251.878 579.676 251.438 580.16 251.123C580.647 250.805 581.215 250.646 581.864 250.646C582.238 250.646 582.608 250.708 582.973 250.833C583.338 250.958 583.67 251.16 583.97 251.441C584.269 251.719 584.508 252.087 584.686 252.546C584.864 253.005 584.953 253.569 584.953 254.24V254.708H579.411V253.753H583.829C583.829 253.348 583.748 252.986 583.586 252.668C583.427 252.349 583.199 252.098 582.903 251.914C582.609 251.73 582.263 251.638 581.864 251.638C581.424 251.638 581.043 251.747 580.722 251.966C580.403 252.181 580.158 252.462 579.987 252.808C579.815 253.154 579.729 253.526 579.729 253.922V254.558C579.729 255.101 579.823 255.562 580.01 255.939C580.2 256.314 580.464 256.599 580.801 256.796C581.138 256.989 581.53 257.086 581.976 257.086C582.266 257.086 582.528 257.045 582.762 256.964C582.999 256.88 583.204 256.755 583.375 256.59C583.547 256.421 583.68 256.212 583.773 255.963L584.84 256.262C584.728 256.624 584.539 256.942 584.274 257.217C584.009 257.488 583.681 257.701 583.291 257.853C582.901 258.003 582.463 258.078 581.976 258.078ZM587.438 258.003C587.207 258.003 587.009 257.921 586.844 257.755C586.678 257.59 586.595 257.392 586.595 257.161C586.595 256.93 586.678 256.732 586.844 256.566C587.009 256.401 587.207 256.318 587.438 256.318C587.669 256.318 587.867 256.401 588.032 256.566C588.198 256.732 588.28 256.93 588.28 257.161C588.28 257.314 588.241 257.454 588.163 257.582C588.089 257.71 587.987 257.813 587.859 257.891C587.734 257.966 587.594 258.003 587.438 258.003ZM593.183 258.078C592.534 258.078 591.965 257.924 591.475 257.615C590.988 257.306 590.607 256.874 590.333 256.318C590.061 255.763 589.926 255.114 589.926 254.371C589.926 253.622 590.061 252.969 590.333 252.41C590.607 251.852 590.988 251.418 591.475 251.109C591.965 250.8 592.534 250.646 593.183 250.646C593.832 250.646 594.4 250.8 594.887 251.109C595.377 251.418 595.757 251.852 596.029 252.41C596.303 252.969 596.441 253.622 596.441 254.371C596.441 255.114 596.303 255.763 596.029 256.318C595.757 256.874 595.377 257.306 594.887 257.615C594.4 257.924 593.832 258.078 593.183 258.078ZM593.183 257.086C593.676 257.086 594.082 256.96 594.4 256.707C594.718 256.454 594.954 256.122 595.107 255.71C595.26 255.298 595.336 254.852 595.336 254.371C595.336 253.891 595.26 253.443 595.107 253.028C594.954 252.613 594.718 252.278 594.4 252.022C594.082 251.766 593.676 251.638 593.183 251.638C592.69 251.638 592.284 251.766 591.966 252.022C591.648 252.278 591.412 252.613 591.259 253.028C591.107 253.443 591.03 253.891 591.03 254.371C591.03 254.852 591.107 255.298 591.259 255.71C591.412 256.122 591.648 256.454 591.966 256.707C592.284 256.96 592.69 257.086 593.183 257.086ZM598.127 257.928V250.739H599.194V251.825H599.269C599.4 251.469 599.637 251.181 599.98 250.959C600.323 250.738 600.71 250.627 601.141 250.627C601.222 250.627 601.324 250.628 601.445 250.632C601.567 250.635 601.659 250.639 601.721 250.646V251.769C601.684 251.76 601.598 251.746 601.464 251.727C601.333 251.705 601.194 251.694 601.047 251.694C600.698 251.694 600.386 251.767 600.111 251.914C599.84 252.058 599.625 252.257 599.465 252.513C599.309 252.766 599.231 253.054 599.231 253.379V257.928H598.127ZM605.714 260.774C605.18 260.774 604.721 260.705 604.338 260.568C603.954 260.434 603.634 260.256 603.378 260.035C603.125 259.816 602.924 259.582 602.774 259.332L603.654 258.715C603.754 258.846 603.881 258.995 604.033 259.164C604.186 259.336 604.395 259.484 604.661 259.609C604.929 259.737 605.28 259.801 605.714 259.801C606.294 259.801 606.773 259.66 607.151 259.379C607.528 259.098 607.717 258.658 607.717 258.059V256.599H607.623C607.542 256.73 607.427 256.892 607.277 257.086C607.13 257.276 606.918 257.446 606.64 257.596C606.366 257.743 605.995 257.816 605.527 257.816C604.946 257.816 604.425 257.679 603.963 257.404C603.505 257.13 603.141 256.73 602.873 256.206C602.607 255.682 602.475 255.045 602.475 254.296C602.475 253.56 602.604 252.919 602.863 252.373C603.122 251.824 603.483 251.399 603.945 251.1C604.406 250.797 604.94 250.646 605.545 250.646C606.013 250.646 606.385 250.724 606.659 250.88C606.937 251.033 607.149 251.207 607.296 251.404C607.445 251.597 607.561 251.756 607.642 251.881H607.754V250.739H608.822V258.134C608.822 258.752 608.681 259.254 608.4 259.641C608.123 260.031 607.748 260.317 607.277 260.498C606.809 260.682 606.288 260.774 605.714 260.774ZM605.676 256.824C606.119 256.824 606.494 256.722 606.8 256.52C607.105 256.317 607.338 256.025 607.497 255.644C607.656 255.264 607.736 254.808 607.736 254.278C607.736 253.76 607.658 253.303 607.502 252.906C607.346 252.51 607.115 252.2 606.809 251.975C606.503 251.75 606.126 251.638 605.676 251.638C605.208 251.638 604.818 251.756 604.506 251.994C604.197 252.231 603.965 252.549 603.809 252.948C603.656 253.348 603.579 253.791 603.579 254.278C603.579 254.777 603.657 255.218 603.813 255.602C603.973 255.983 604.207 256.282 604.516 256.501C604.828 256.716 605.214 256.824 605.676 256.824Z" fill="#CBD5F5"/>
<path d="M705.13 291.058H590.903C579.985 291.058 571.133 299.91 571.133 310.828C571.133 321.747 579.985 330.598 590.903 330.598H705.13C716.049 330.598 724.9 321.747 724.9 310.828C724.9 299.91 716.049 291.058 705.13 291.058Z" fill="#F3F4F6" stroke="#E5E7EB" stroke-width="1.09833"/>
<path d="M599.592 308.675H597.2C597.157 308.366 597.067 308.091 596.933 307.851C596.798 307.607 596.625 307.4 596.414 307.228C596.203 307.057 595.959 306.926 595.682 306.835C595.409 306.744 595.113 306.699 594.792 306.699C594.213 306.699 593.709 306.843 593.28 307.13C592.85 307.414 592.517 307.829 592.28 308.375C592.044 308.918 591.925 309.576 591.925 310.352C591.925 311.149 592.044 311.819 592.28 312.361C592.521 312.904 592.856 313.313 593.285 313.59C593.715 313.867 594.212 314.005 594.776 314.005C595.092 314.005 595.386 313.963 595.655 313.879C595.928 313.796 596.17 313.674 596.381 313.513C596.592 313.35 596.767 313.151 596.905 312.918C597.047 312.685 597.146 312.42 597.2 312.121L599.592 312.132C599.53 312.645 599.375 313.14 599.128 313.617C598.884 314.09 598.554 314.515 598.139 314.889C597.728 315.261 597.237 315.556 596.665 315.774C596.097 315.989 595.455 316.096 594.738 316.096C593.74 316.096 592.848 315.871 592.062 315.419C591.279 314.968 590.66 314.314 590.205 313.459C589.754 312.603 589.528 311.568 589.528 310.352C589.528 309.132 589.758 308.095 590.216 307.239C590.675 306.384 591.297 305.732 592.084 305.285C592.87 304.833 593.755 304.607 594.738 304.607C595.386 304.607 595.986 304.698 596.54 304.88C597.096 305.062 597.59 305.328 598.019 305.678C598.449 306.024 598.798 306.448 599.068 306.95C599.341 307.452 599.515 308.028 599.592 308.675ZM601.244 315.943V307.556H603.499V309.019H603.586C603.739 308.499 603.996 308.106 604.356 307.84C604.717 307.571 605.132 307.436 605.601 307.436C605.718 307.436 605.843 307.443 605.978 307.458C606.113 307.472 606.231 307.492 606.333 307.518V309.582C606.224 309.549 606.073 309.52 605.88 309.495C605.687 309.469 605.51 309.456 605.35 309.456C605.008 309.456 604.702 309.531 604.433 309.68C604.167 309.826 603.956 310.03 603.799 310.292C603.646 310.554 603.57 310.856 603.57 311.198V315.943H601.244ZM610.967 316.107C610.105 316.107 609.362 315.932 608.74 315.583C608.121 315.23 607.644 314.731 607.309 314.087C606.974 313.439 606.807 312.673 606.807 311.788C606.807 310.925 606.974 310.168 607.309 309.516C607.644 308.865 608.115 308.357 608.723 307.993C609.335 307.629 610.052 307.447 610.875 307.447C611.428 307.447 611.943 307.536 612.42 307.714C612.9 307.889 613.319 308.153 613.676 308.506C614.036 308.859 614.317 309.303 614.517 309.839C614.717 310.37 614.817 310.993 614.817 311.706V312.345H607.735V310.903H612.627C612.627 310.568 612.555 310.272 612.409 310.013C612.263 309.755 612.061 309.553 611.803 309.407C611.548 309.258 611.251 309.183 610.913 309.183C610.56 309.183 610.247 309.265 609.974 309.429C609.704 309.589 609.493 309.806 609.34 310.079C609.187 310.348 609.109 310.649 609.105 310.98V312.35C609.105 312.765 609.182 313.124 609.335 313.426C609.491 313.728 609.712 313.961 609.995 314.125C610.279 314.289 610.616 314.371 611.006 314.371C611.264 314.371 611.501 314.334 611.716 314.262C611.93 314.189 612.114 314.08 612.267 313.934C612.42 313.788 612.536 313.61 612.616 313.399L614.768 313.541C614.659 314.058 614.435 314.509 614.096 314.895C613.761 315.277 613.328 315.576 612.797 315.79C612.269 316.002 611.659 316.107 610.967 316.107ZM618.727 316.102C618.192 316.102 617.715 316.009 617.296 315.823C616.877 315.634 616.546 315.355 616.302 314.988C616.062 314.616 615.942 314.154 615.942 313.601C615.942 313.135 616.027 312.744 616.199 312.427C616.37 312.11 616.603 311.855 616.897 311.662C617.192 311.469 617.527 311.324 617.902 311.226C618.281 311.127 618.678 311.058 619.093 311.018C619.58 310.967 619.974 310.92 620.272 310.876C620.571 310.829 620.787 310.76 620.922 310.669C621.057 310.578 621.124 310.443 621.124 310.264V310.232C621.124 309.886 621.015 309.618 620.796 309.429C620.581 309.24 620.276 309.145 619.879 309.145C619.46 309.145 619.127 309.238 618.88 309.424C618.632 309.606 618.468 309.835 618.388 310.112L616.237 309.937C616.346 309.427 616.561 308.987 616.881 308.615C617.201 308.24 617.615 307.953 618.121 307.753C618.63 307.549 619.22 307.447 619.89 307.447C620.356 307.447 620.802 307.501 621.228 307.611C621.657 307.72 622.038 307.889 622.369 308.119C622.704 308.348 622.968 308.643 623.161 309.003C623.354 309.36 623.45 309.788 623.45 310.286V315.943H621.244V314.78H621.178C621.044 315.042 620.864 315.274 620.638 315.474C620.412 315.67 620.141 315.825 619.824 315.938C619.508 316.047 619.142 316.102 618.727 316.102ZM619.393 314.496C619.735 314.496 620.037 314.429 620.299 314.294C620.561 314.156 620.767 313.97 620.916 313.737C621.066 313.504 621.14 313.24 621.14 312.946V312.056C621.067 312.103 620.967 312.147 620.84 312.187C620.716 312.223 620.576 312.258 620.419 312.29C620.263 312.319 620.106 312.347 619.95 312.372C619.793 312.394 619.651 312.414 619.524 312.432C619.251 312.472 619.013 312.536 618.809 312.623C618.605 312.711 618.446 312.829 618.334 312.978C618.221 313.124 618.164 313.306 618.164 313.524C618.164 313.841 618.279 314.083 618.508 314.251C618.741 314.414 619.036 314.496 619.393 314.496ZM629.716 307.556V309.303H624.665V307.556H629.716ZM625.812 305.547H628.138V313.366C628.138 313.581 628.171 313.748 628.236 313.868C628.302 313.985 628.393 314.067 628.509 314.114C628.629 314.161 628.768 314.185 628.924 314.185C629.033 314.185 629.143 314.176 629.252 314.158C629.361 314.136 629.445 314.12 629.503 314.109L629.869 315.84C629.752 315.876 629.589 315.918 629.377 315.965C629.166 316.016 628.91 316.047 628.607 316.058C628.047 316.08 627.555 316.005 627.133 315.834C626.714 315.663 626.389 315.397 626.156 315.037C625.923 314.677 625.808 314.221 625.812 313.672V305.547ZM634.963 316.107C634.101 316.107 633.358 315.932 632.736 315.583C632.117 315.23 631.64 314.731 631.305 314.087C630.97 313.439 630.803 312.673 630.803 311.788C630.803 310.925 630.97 310.168 631.305 309.516C631.64 308.865 632.111 308.357 632.719 307.993C633.331 307.629 634.048 307.447 634.871 307.447C635.424 307.447 635.939 307.536 636.416 307.714C636.896 307.889 637.315 308.153 637.672 308.506C638.032 308.859 638.313 309.303 638.513 309.839C638.713 310.37 638.813 310.993 638.813 311.706V312.345H631.731V310.903H636.623C636.623 310.568 636.551 310.272 636.405 310.013C636.259 309.755 636.057 309.553 635.799 309.407C635.544 309.258 635.247 309.183 634.909 309.183C634.556 309.183 634.243 309.265 633.97 309.429C633.7 309.589 633.489 309.806 633.336 310.079C633.183 310.348 633.105 310.649 633.101 310.98V312.35C633.101 312.765 633.178 313.124 633.331 313.426C633.487 313.728 633.708 313.961 633.991 314.125C634.275 314.289 634.612 314.371 635.002 314.371C635.26 314.371 635.497 314.334 635.712 314.262C635.926 314.189 636.11 314.08 636.263 313.934C636.416 313.788 636.532 313.61 636.612 313.399L638.764 313.541C638.655 314.058 638.431 314.509 638.092 314.895C637.757 315.277 637.324 315.576 636.793 315.79C636.265 316.002 635.655 316.107 634.963 316.107ZM645.861 315.943H643.327L647.188 304.76H650.235L654.09 315.943H651.556L648.755 307.316H648.668L645.861 315.943ZM645.703 311.548H651.687V313.393H645.703V311.548ZM658.792 316.107C657.932 316.107 657.193 315.925 656.575 315.561C655.959 315.193 655.486 314.684 655.155 314.032C654.827 313.381 654.663 312.631 654.663 311.782C654.663 310.923 654.829 310.17 655.16 309.522C655.495 308.87 655.97 308.362 656.585 307.998C657.201 307.631 657.932 307.447 658.781 307.447C659.512 307.447 660.153 307.58 660.703 307.845C661.252 308.111 661.687 308.484 662.008 308.965C662.328 309.445 662.505 310.01 662.537 310.658H660.342C660.28 310.239 660.117 309.902 659.851 309.647C659.589 309.389 659.245 309.26 658.819 309.26C658.458 309.26 658.144 309.358 657.874 309.555C657.608 309.748 657.401 310.03 657.252 310.401C657.102 310.772 657.028 311.222 657.028 311.75C657.028 312.285 657.101 312.74 657.246 313.115C657.395 313.49 657.605 313.776 657.874 313.972C658.144 314.169 658.458 314.267 658.819 314.267C659.085 314.267 659.323 314.212 659.534 314.103C659.749 313.994 659.925 313.836 660.064 313.628C660.206 313.417 660.299 313.164 660.342 312.869H662.537C662.501 313.51 662.326 314.074 662.013 314.562C661.704 315.046 661.276 315.425 660.73 315.698C660.184 315.971 659.538 316.107 658.792 316.107ZM667.816 316.107C666.957 316.107 666.218 315.925 665.599 315.561C664.984 315.193 664.511 314.684 664.18 314.032C663.852 313.381 663.688 312.631 663.688 311.782C663.688 310.923 663.854 310.17 664.185 309.522C664.52 308.87 664.995 308.362 665.61 307.998C666.225 307.631 666.957 307.447 667.805 307.447C668.537 307.447 669.178 307.58 669.727 307.845C670.277 308.111 670.712 308.484 671.033 308.965C671.353 309.445 671.529 310.01 671.562 310.658H669.367C669.305 310.239 669.141 309.902 668.876 309.647C668.614 309.389 668.27 309.26 667.844 309.26C667.483 309.26 667.168 309.358 666.899 309.555C666.633 309.748 666.426 310.03 666.276 310.401C666.127 310.772 666.053 311.222 666.053 311.75C666.053 312.285 666.125 312.74 666.271 313.115C666.42 313.49 666.63 313.776 666.899 313.972C667.168 314.169 667.483 314.267 667.844 314.267C668.109 314.267 668.348 314.212 668.559 314.103C668.774 313.994 668.95 313.836 669.089 313.628C669.231 313.417 669.323 313.164 669.367 312.869H671.562C671.526 313.51 671.351 314.074 671.038 314.562C670.729 315.046 670.301 315.425 669.755 315.698C669.209 315.971 668.563 316.107 667.816 316.107ZM676.841 316.107C675.993 316.107 675.259 315.927 674.641 315.567C674.025 315.203 673.55 314.697 673.215 314.049C672.88 313.397 672.713 312.642 672.713 311.782C672.713 310.916 672.88 310.159 673.215 309.511C673.55 308.859 674.025 308.353 674.641 307.993C675.259 307.629 675.993 307.447 676.841 307.447C677.689 307.447 678.421 307.629 679.036 307.993C679.655 308.353 680.132 308.859 680.467 309.511C680.802 310.159 680.969 310.916 680.969 311.782C680.969 312.642 680.802 313.397 680.467 314.049C680.132 314.697 679.655 315.203 679.036 315.567C678.421 315.927 677.689 316.107 676.841 316.107ZM676.852 314.305C677.238 314.305 677.56 314.196 677.819 313.978C678.077 313.756 678.272 313.453 678.403 313.071C678.537 312.689 678.605 312.254 678.605 311.766C678.605 311.278 678.537 310.843 678.403 310.461C678.272 310.079 678.077 309.777 677.819 309.555C677.56 309.333 677.238 309.222 676.852 309.222C676.463 309.222 676.135 309.333 675.869 309.555C675.607 309.777 675.409 310.079 675.274 310.461C675.143 310.843 675.077 311.278 675.077 311.766C675.077 312.254 675.143 312.689 675.274 313.071C675.409 313.453 675.607 313.756 675.869 313.978C676.135 314.196 676.463 314.305 676.852 314.305ZM687.86 312.372V307.556H690.186V315.943H687.953V314.42H687.866C687.676 314.911 687.362 315.306 686.921 315.605C686.484 315.903 685.951 316.053 685.321 316.053C684.761 316.053 684.267 315.925 683.841 315.67C683.416 315.416 683.082 315.053 682.842 314.584C682.606 314.114 682.485 313.552 682.482 312.896V307.556H684.808V312.481C684.812 312.977 684.944 313.368 685.207 313.655C685.469 313.943 685.82 314.087 686.26 314.087C686.541 314.087 686.803 314.023 687.047 313.896C687.291 313.765 687.487 313.572 687.636 313.317C687.789 313.062 687.864 312.747 687.86 312.372ZM694.373 311.094V315.943H692.047V307.556H694.264V309.036H694.362C694.548 308.548 694.859 308.162 695.296 307.878C695.733 307.591 696.263 307.447 696.885 307.447C697.468 307.447 697.975 307.574 698.409 307.829C698.842 308.084 699.178 308.448 699.419 308.921C699.659 309.391 699.779 309.951 699.779 310.603V315.943H697.453V311.018C697.457 310.505 697.326 310.104 697.06 309.817C696.794 309.525 696.428 309.38 695.962 309.38C695.649 309.38 695.373 309.447 695.132 309.582C694.896 309.717 694.71 309.913 694.575 310.172C694.444 310.426 694.377 310.734 694.373 311.094ZM706.074 307.556V309.303H701.023V307.556H706.074ZM702.169 305.547H704.496V313.366C704.496 313.581 704.528 313.748 704.594 313.868C704.659 313.985 704.75 314.067 704.867 314.114C704.987 314.161 705.125 314.185 705.282 314.185C705.391 314.185 705.5 314.176 705.61 314.158C705.719 314.136 705.802 314.12 705.861 314.109L706.227 315.84C706.11 315.876 705.946 315.918 705.735 315.965C705.524 316.016 705.267 316.047 704.965 316.058C704.405 316.08 703.913 316.005 703.491 315.834C703.072 315.663 702.746 315.397 702.513 315.037C702.28 314.677 702.166 314.221 702.169 313.672V305.547Z" fill="#4B5563"/>
<path d="M847.913 291.058H766.637C755.718 291.058 746.867 299.91 746.867 310.828C746.867 321.747 755.718 330.598 766.637 330.598H847.913C858.832 330.598 867.683 321.747 867.683 310.828C867.683 299.91 858.832 291.058 847.913 291.058Z" fill="#234C72"/>
<path d="M783.994 308.675H781.602C781.559 308.366 781.47 308.091 781.335 307.851C781.2 307.607 781.027 307.4 780.816 307.228C780.605 307.057 780.361 306.926 780.084 306.835C779.811 306.744 779.515 306.699 779.194 306.699C778.616 306.699 778.111 306.843 777.682 307.13C777.252 307.414 776.919 307.829 776.683 308.375C776.446 308.918 776.328 309.576 776.328 310.352C776.328 311.149 776.446 311.819 776.683 312.361C776.923 312.904 777.258 313.313 777.687 313.59C778.117 313.867 778.614 314.005 779.178 314.005C779.495 314.005 779.788 313.963 780.057 313.879C780.33 313.796 780.572 313.674 780.783 313.513C780.994 313.35 781.169 313.151 781.308 312.918C781.45 312.685 781.548 312.42 781.602 312.121L783.994 312.132C783.932 312.645 783.777 313.14 783.53 313.617C783.286 314.09 782.957 314.515 782.542 314.889C782.13 315.261 781.639 315.556 781.067 315.774C780.499 315.989 779.857 316.096 779.14 316.096C778.142 316.096 777.25 315.871 776.464 315.419C775.681 314.968 775.063 314.314 774.608 313.459C774.156 312.603 773.93 311.568 773.93 310.352C773.93 309.132 774.16 308.095 774.618 307.239C775.077 306.384 775.7 305.732 776.486 305.285C777.272 304.833 778.157 304.607 779.14 304.607C779.788 304.607 780.388 304.698 780.942 304.88C781.499 305.062 781.992 305.328 782.421 305.678C782.851 306.024 783.201 306.448 783.47 306.95C783.743 307.452 783.918 308.028 783.994 308.675ZM789.435 316.107C788.587 316.107 787.854 315.927 787.235 315.567C786.62 315.203 786.145 314.697 785.81 314.049C785.475 313.397 785.307 312.642 785.307 311.782C785.307 310.916 785.475 310.159 785.81 309.511C786.145 308.859 786.62 308.353 787.235 307.993C787.854 307.629 788.587 307.447 789.435 307.447C790.284 307.447 791.015 307.629 791.631 307.993C792.249 308.353 792.726 308.859 793.061 309.511C793.396 310.159 793.564 310.916 793.564 311.782C793.564 312.642 793.396 313.397 793.061 314.049C792.726 314.697 792.249 315.203 791.631 315.567C791.015 315.927 790.284 316.107 789.435 316.107ZM789.446 314.305C789.832 314.305 790.154 314.196 790.413 313.978C790.671 313.756 790.866 313.453 790.997 313.071C791.132 312.689 791.199 312.254 791.199 311.766C791.199 311.278 791.132 310.843 790.997 310.461C790.866 310.079 790.671 309.777 790.413 309.555C790.154 309.333 789.832 309.222 789.446 309.222C789.057 309.222 788.729 309.333 788.463 309.555C788.201 309.777 788.003 310.079 787.868 310.461C787.737 310.843 787.672 311.278 787.672 311.766C787.672 312.254 787.737 312.689 787.868 313.071C788.003 313.453 788.201 313.756 788.463 313.978C788.729 314.196 789.057 314.305 789.446 314.305ZM797.402 311.094V315.943H795.076V307.556H797.293V309.036H797.391C797.577 308.548 797.888 308.162 798.325 307.878C798.762 307.591 799.292 307.447 799.914 307.447C800.497 307.447 801.004 307.574 801.438 307.829C801.871 308.084 802.207 308.448 802.448 308.921C802.688 309.391 802.808 309.951 802.808 310.603V315.943H800.482V311.018C800.486 310.505 800.355 310.104 800.089 309.817C799.823 309.525 799.457 309.38 798.991 309.38C798.678 309.38 798.402 309.447 798.161 309.582C797.925 309.717 797.739 309.913 797.604 310.172C797.473 310.426 797.406 310.734 797.402 311.094ZM809.103 307.556V309.303H804.052V307.556H809.103ZM805.198 305.547H807.525V313.366C807.525 313.581 807.557 313.748 807.623 313.868C807.688 313.985 807.779 314.067 807.896 314.114C808.016 314.161 808.154 314.185 808.311 314.185C808.42 314.185 808.529 314.176 808.639 314.158C808.748 314.136 808.831 314.12 808.89 314.109L809.256 315.84C809.139 315.876 808.975 315.918 808.764 315.965C808.553 316.016 808.296 316.047 807.994 316.058C807.434 316.08 806.942 316.005 806.52 315.834C806.101 315.663 805.775 315.397 805.542 315.037C805.309 314.677 805.195 314.221 805.198 313.672V305.547ZM810.618 315.943V307.556H812.944V315.943H810.618ZM811.786 306.475C811.441 306.475 811.144 306.36 810.896 306.131C810.653 305.898 810.531 305.619 810.531 305.295C810.531 304.975 810.653 304.7 810.896 304.471C811.144 304.238 811.441 304.121 811.786 304.121C812.132 304.121 812.427 304.238 812.671 304.471C812.919 304.7 813.042 304.975 813.042 305.295C813.042 305.619 812.919 305.898 812.671 306.131C812.427 306.36 812.132 306.475 811.786 306.475ZM817.134 311.094V315.943H814.807V307.556H817.024V309.036H817.123C817.308 308.548 817.62 308.162 818.056 307.878C818.493 307.591 819.023 307.447 819.645 307.447C820.228 307.447 820.736 307.574 821.169 307.829C821.602 308.084 821.939 308.448 822.179 308.921C822.419 309.391 822.54 309.951 822.54 310.603V315.943H820.213V311.018C820.217 310.505 820.086 310.104 819.82 309.817C819.554 309.525 819.189 309.38 818.723 309.38C818.41 309.38 818.133 309.447 817.893 309.582C817.656 309.717 817.47 309.913 817.336 310.172C817.205 310.426 817.137 310.734 817.134 311.094ZM829.751 312.372V307.556H832.078V315.943H829.844V314.42H829.757C829.568 314.911 829.253 315.306 828.812 315.605C828.375 315.903 827.842 316.053 827.212 316.053C826.652 316.053 826.158 315.925 825.733 315.67C825.307 315.416 824.974 315.053 824.733 314.584C824.497 314.114 824.376 313.552 824.373 312.896V307.556H826.699V312.481C826.703 312.977 826.836 313.368 827.098 313.655C827.36 313.943 827.711 314.087 828.152 314.087C828.432 314.087 828.694 314.023 828.938 313.896C829.182 313.765 829.378 313.572 829.528 313.317C829.68 313.062 829.755 312.747 829.751 312.372ZM837.761 316.107C836.898 316.107 836.155 315.932 835.533 315.583C834.914 315.23 834.437 314.731 834.102 314.087C833.767 313.439 833.6 312.673 833.6 311.788C833.6 310.925 833.767 310.168 834.102 309.516C834.437 308.865 834.908 308.357 835.516 307.993C836.128 307.629 836.845 307.447 837.668 307.447C838.221 307.447 838.736 307.536 839.213 307.714C839.694 307.889 840.112 308.153 840.469 308.506C840.829 308.859 841.11 309.303 841.31 309.839C841.51 310.37 841.61 310.993 841.61 311.706V312.345H834.528V310.903H839.421C839.421 310.568 839.348 310.272 839.202 310.013C839.057 309.755 838.854 309.553 838.596 309.407C838.341 309.258 838.044 309.183 837.706 309.183C837.353 309.183 837.04 309.265 836.767 309.429C836.497 309.589 836.286 309.806 836.133 310.079C835.98 310.348 835.902 310.649 835.899 310.98V312.35C835.899 312.765 835.975 313.124 836.128 313.426C836.284 313.728 836.505 313.961 836.789 314.125C837.073 314.289 837.409 314.371 837.799 314.371C838.057 314.371 838.294 314.334 838.509 314.262C838.723 314.189 838.907 314.08 839.06 313.934C839.213 313.788 839.33 313.61 839.41 313.399L841.561 313.541C841.452 314.058 841.228 314.509 840.889 314.895C840.554 315.277 840.121 315.576 839.59 315.79C839.062 316.002 838.452 316.107 837.761 316.107Z" fill="white"/>
</g>
<rect x="36" y="32.8" width="171" height="171" rx="85.5" fill="black" fill-opacity="0.25"/>
<path d="M145.744 152.8H97.84V142.72L115.024 125.344C118.48 121.76 121.264 118.784 123.376 116.416C125.488 113.984 127.024 111.808 127.984 109.888C128.944 107.904 129.424 105.792 129.424 103.552C129.424 100.8 128.656 98.752 127.12 97.408C125.648 96.064 123.632 95.392 121.072 95.392C118.448 95.392 115.888 96 113.392 97.216C110.896 98.432 108.272 100.16 105.52 102.4L97.648 93.088C99.632 91.36 101.712 89.76 103.888 88.288C106.128 86.816 108.688 85.632 111.568 84.736C114.512 83.776 118.032 83.296 122.128 83.296C126.608 83.296 130.448 84.128 133.648 85.792C136.912 87.392 139.408 89.6 141.136 92.416C142.928 95.168 143.824 98.304 143.824 101.824C143.824 105.6 143.056 109.056 141.52 112.192C140.048 115.328 137.872 118.432 134.992 121.504C132.176 124.576 128.752 127.968 124.72 131.68L115.888 139.936V140.608H145.744V152.8Z" fill="white"/>
</g>
<rect x="0.5" y="0.5" width="1317" height="789.8" rx="73.89" stroke="black" stroke-opacity="0.54"/>
<defs>
<linearGradient id="paint0_linear_23_216" x1="0" y1="0" x2="0" y2="790.8" gradientUnits="userSpaceOnUse">
<stop stop-color="#62B5E5"/>
<stop offset="1" stop-color="#8CCF6A"/>
</linearGradient>
<clipPath id="clip0_23_216">
<rect width="1318" height="790.8" rx="74.39" fill="white"/>
</clipPath>
<clipPath id="clip1_23_216">
<rect width="214.175" height="150.472" fill="white" transform="translate(452.513)"/>
</clipPath>
</defs>
</svg>
